<svg xmlns="http://www.w3.org/2000/svg" data-name="Ebene 1" viewBox="0 0 605.16021 158.58423" height="158.58" width="605.16" version="1.1">
 <defs>
  <style>.cls-1,.cls-2{fill:#282828;}.cls-2{font-size:54.97px;font-family:Play-Regular, Play;letter-spacing:0.3em;}.cls-3{fill:#2f418f;}.cls-4{fill:#409030;}.cls-5{fill:#dfa809;}</style>
 </defs>
 <title>Elektra_v02</title>
 <g fill="#282828">
  <path class="cls-1" d="m198.02 14.884h62.43v14h-42.79v18.79h38.58v14h-38.58v21.06h44v14h-63.64z"/>
  <path class="cls-1" d="m274.65 8.4542h18.42v88.28h-18.42z"/>
  <path class="cls-1" d="m307.95 78.194v-21.94q0-11.48 7.37-16.65t22.77-5.17q14.49 0 21.24 5t6.75 16.84v14.88h-39.6v5.55c0 3.53 1.27 6 3.79 7.56s7.06 2.27 13.62 2.27a91.15 91.15 0 0 0 20.43 -2.64v11.72a114.49 114.49 0 0 1 -24 2.4q-32.37-0.02-32.37-19.82zm40.6-17.53v-8.83a5 5 0 0 0 -2.46 -4.54c-1.64-1-4.39-1.51-8.26-1.51-4.45 0-7.44 0.51-8.95 1.51a5.22 5.22 0 0 0 -2.4 4.54v8.83z"/>
  <path class="cls-1" d="m380.2 8.4542h18.42v88.28h-18.42zm19.17 54 20-26.74h21.06l-21.18 26.61 23 34.43h-20.81z"/>
  <path class="cls-1" d="m471.02 97.614a29.08 29.08 0 0 1 -6.31 -1.51 15.29 15.29 0 0 1 -5.73 -3.16 14.52 14.52 0 0 1 -3.6 -5.54 22 22 0 0 1 -1.51 -8.45v-31.88h-12.38v-11.38h12.36v-17.62h18.41v17.65h16.76v11.35h-16.76v28.75a21.49 21.49 0 0 0 0.76 6.62 5.1 5.1 0 0 0 2.9 3.16 17.16 17.16 0 0 0 6.56 0.94 60.78 60.78 0 0 0 6.55 -0.63v11.48a98.48 98.48 0 0 1 -10.21 0.63 67.83 67.83 0 0 1 -7.8 -0.41z"/>
  <path class="cls-1" d="m499.62 35.694h17.53v10.72a8.65 8.65 0 0 1 2.4 -5.67 18.17 18.17 0 0 1 6.12 -4.54 17 17 0 0 1 7.37 -1.77h6.56v15.26h-6.3q-7.83 0-11.54 2.4t-3.74 7.98v36.7h-18.4z"/>
  <path class="cls-1" d="m554.16 96.414a9.87 9.87 0 0 1 -5.92 -5.67q-1.71-4.09-1.7-12.3 0-7.31 1.82-11.47a11.32 11.32 0 0 1 5.93 -6q4.1-1.83 11.29-1.83h20.68v-4.16a12.19 12.19 0 0 0 -1.07 -5.8 6 6 0 0 0 -3.91 -2.65 35.19 35.19 0 0 0 -8.51 -0.76 208.17 208.17 0 0 0 -21.44 1.51v-11.6a188.41 188.41 0 0 1 23.33 -1.26q11.72 0 18.09 1.77t9.14 6.05q2.77 4.29 2.78 12.48v42h-18v-5.55a11.93 11.93 0 0 1 -5.8 5.17q-3.66 1.64-13.88 1.64-8.59 0.01-12.83-1.57zm27.94-10.28a5.89 5.89 0 0 0 2.46 -0.75 3.92 3.92 0 0 0 1.19 -1.64 5.43 5.43 0 0 0 0.51 -2.65v-11.85h-12.61a22.75 22.75 0 0 0 -6.06 0.56 3.61 3.61 0 0 0 -2.39 2.27 19.53 19.53 0 0 0 -0.63 6 18.31 18.31 0 0 0 0.63 5.81 3.45 3.45 0 0 0 2.46 2.14 27.93 27.93 0 0 0 6.49 0.5 56.47 56.47 0 0 0 7.95 -0.39z"/>
  <g aria-label="INITIATIVE" transform="translate(376.2 302.99)">
   <path d="m-178.24-189.66h5.3321v35.676h-5.3321z"/>
   <path d="m-147.15-189.66h6.4315l19.404 29.464v-29.464h4.6724v35.676h-6.4315l-19.404-29.959v29.959h-4.6724z"/>
   <path d="m-90.932-189.66h5.3321v35.676h-5.3321z"/>
   <path d="m-51.044-185.92h-12.093v-3.738h29.519v3.738h-12.038v31.938h-5.3871z"/>
   <path d="m-11.139-189.66h5.3321v35.676h-5.3321z"/>
   <path d="m30.342-189.66h6.1566l13.852 35.676h-5.552l-4.0678-10.829h-15.282l-4.0128 10.829h-5.2771zm9.07 21.163-6.0467-16.106h-0.49473l-6.0467 16.106z"/>
   <path d="m81.099-185.92h-12.093v-3.738h29.519v3.738h-12.038v31.938h-5.3871z"/>
   <path d="m121-189.66h5.3321v35.676h-5.3321z"/>
   <path d="m148.3-189.66h5.552l11.434 30.618h0.49473l11.434-30.618h5.2771l-14.182 35.676h-6.1566z"/>
   <path d="m204.45-189.66h23.967v3.738h-18.635v11.654h16.821v3.738h-16.821v12.808h19.185v3.738h-24.517z"/>
   <path d="m-178.24-189.66h5.3321v35.676h-5.3321z"/>
   <path d="m-147.15-189.66h6.4315l19.404 29.464v-29.464h4.6724v35.676h-6.4315l-19.404-29.959v29.959h-4.6724z"/>
   <path d="m-90.932-189.66h5.3321v35.676h-5.3321z"/>
   <path d="m-51.044-185.92h-12.093v-3.738h29.519v3.738h-12.038v31.938h-5.3871z"/>
   <path d="m-11.139-189.66h5.3321v35.676h-5.3321z"/>
   <path d="m30.342-189.66h6.1566l13.852 35.676h-5.552l-4.0678-10.829h-15.282l-4.0128 10.829h-5.2771zm9.07 21.163-6.0467-16.106h-0.49473l-6.0467 16.106z"/>
   <path d="m81.099-185.92h-12.093v-3.738h29.519v3.738h-12.038v31.938h-5.3871z"/>
   <path d="m121-189.66h5.3321v35.676h-5.3321z"/>
   <path d="m148.3-189.66h5.552l11.434 30.618h0.49473l11.434-30.618h5.2771l-14.182 35.676h-6.1566z"/>
   <path d="m204.45-189.66h23.967v3.738h-18.635v11.654h16.821v3.738h-16.821v12.808h19.185v3.738h-24.517z"/>
  </g>
 </g>
 <path fill="#2f418f" class="cls-3" d="m18.66 77.414a67.09 67.09 0 0 1 76.05 -46 67.08 67.08 0 1 0 -47.58 125.17 69.29 69.29 0 0 0 7.95 2 67.09 67.09 0 0 1 -36.42 -81.17z"/>
 <path fill="#409030" class="cls-4" d="m108.67 140.72a67.08 67.08 0 0 1 -77.89 -42.84 69.3 69.3 0 0 0 1.31 8.08 67.08 67.08 0 1 0 128.6 -37.32 67.08 67.08 0 0 1 -52.02 72.08z"/>
 <path fill="#dfa809" class="cls-5" d="m118.08 32.694a67.09 67.09 0 0 1 1.84 88.88 67.08 67.08 0 1 0 -84.61 -103.79 68.4 68.4 0 0 0 -5.67 5.9 67.08 67.08 0 0 1 88.44 9.01z"/>
</svg>
