<?xml version="1.0" encoding="UTF-8" standalone="no"?>
<svg
   xmlns:dc="http://purl.org/dc/elements/1.1/"
   xmlns:cc="http://creativecommons.org/ns#"
   xmlns:rdf="http://www.w3.org/1999/02/22-rdf-syntax-ns#"
   xmlns:svg="http://www.w3.org/2000/svg"
   xmlns="http://www.w3.org/2000/svg"
   xmlns:sodipodi="http://sodipodi.sourceforge.net/DTD/sodipodi-0.dtd"
   xmlns:inkscape="http://www.inkscape.org/namespaces/inkscape"
   version="1.0"
   width="468pt"
   height="459pt"
   viewBox="0 0 468 459"
   preserveAspectRatio="xMidYMid meet"
   id="svg2"
   sodipodi:version="0.32"
   inkscape:version="0.46"
   sodipodi:docname="circle_with_shadows.svg"
   inkscape:output_extension="org.inkscape.output.svg.inkscape">
  <defs
     id="defs21">
    <inkscape:perspective
       sodipodi:type="inkscape:persp3d"
       inkscape:vp_x="0 : 286.875 : 1"
       inkscape:vp_y="0 : 1000 : 0"
       inkscape:vp_z="585 : 286.875 : 1"
       inkscape:persp3d-origin="292.5 : 191.25 : 1"
       id="perspective23" />
  </defs>
  <sodipodi:namedview
     inkscape:window-height="942"
     inkscape:window-width="1280"
     inkscape:pageshadow="2"
     inkscape:pageopacity="0.0"
     guidetolerance="10.0"
     gridtolerance="10.0"
     objecttolerance="10.0"
     borderopacity="1.0"
     bordercolor="#666666"
     pagecolor="#ffffff"
     id="base"
     showgrid="false"
     inkscape:zoom="0.81220044"
     inkscape:cx="277.00611"
     inkscape:cy="286.875"
     inkscape:window-x="1276"
     inkscape:window-y="-4"
     inkscape:current-layer="svg2" />
  <metadata
     id="metadata4">
Created by potrace 1.8, written by Peter Selinger 2001-2007
<rdf:RDF>
  <cc:Work
     rdf:about="">
    <dc:format>image/svg+xml</dc:format>
    <dc:type
       rdf:resource="http://purl.org/dc/dcmitype/StillImage" />
  </cc:Work>
</rdf:RDF>
</metadata>
  <g
     transform="translate(0,459) scale(0.900000,-0.900000)"
     fill="#000000"
     stroke="none"
     id="g6">
    <g
       id="g8">
      <path
         d="M201 469 c-43 -26 -55 -38 -75 -76 -27 -54 -19 -73 12 -25 74 116 240 104 310 -23 11 -19 11 -19 12 2 0 34 -34 84 -81 115 -53 35 -127 39 -178 7z"
         id="path10" />
    </g>
    <g
       id="g12">
      <path
         d="M71 383 c-105 -127 -1 -320 160 -298 66 9 72 25 9 25 -87 0 -144 44 -166 129 -14 56 -8 91 26 146 29 46 9 45 -29 -2z"
         id="path14" />
    </g>
    <g
       id="g16">
      <path
         d="M382 353 c57 -65 64 -157 18 -221 -46 -63 -125 -95 -184 -72 -43 16 -45 3 -3 -15 48 -20 103 -19 152 4 48 22 69 44 90 94 28 67 12 143 -42 200 -29 29 -56 38 -31 10z"
         id="path18" />
    </g>
  </g>
  <path
     style="fill:#e3dedb;fill-opacity:1;stroke:none;stroke-width:1px;stroke-linecap:butt;stroke-linejoin:miter;stroke-opacity:1"
     d="M 436.44339,179.26602 C 435.12163,177.15713 431.51434,171.1271 428.42718,165.86595 C 420.3625,152.12211 412.18811,141.48783 400.30042,129.27506 C 374.03008,102.28632 342.79534,85.765499 305.6721,79.223769 C 294.65318,77.282049 265.01562,77.566229 253.96074,79.719609 C 223.29711,85.692559 196.27348,99.681829 174.91616,120.63844 C 166.15036,129.23979 159.69104,137.26555 147.86114,154.25463 C 128.57379,181.95345 120.95556,180.11475 131.53714,150.31472 C 139.1775,128.7978 154.46131,102.84886 166.9929,90.117729 C 182.57534,74.287159 213.82837,54.412189 234.0507,47.473179 C 250.13499,41.954079 259.20927,40.589869 280.06266,40.555869 C 302.3721,40.519499 312.35704,41.976319 330.49494,47.914039 C 357.16436,56.644669 378.57774,70.404549 400.58557,92.953129 C 426.89322,119.90719 440.63777,146.68535 440.59909,170.91058 C 440.58022,182.73471 439.71174,184.48085 436.44338,179.26603 L 436.44339,179.26602 z"
     id="path3172" />
  <path
     style="fill:#e3dedb;fill-opacity:1"
     d="M 261.289,450.15037 C 242.60039,447.27353 225.03947,441.72797 209.7529,433.87578 C 199.53823,428.62885 192.26415,422.8761 193.43956,420.97424 C 194.69359,418.94514 204.57313,420.63662 218.99577,425.34978 C 238.38335,431.68542 248.3212,433.24707 264.79727,432.54715 C 273.61739,432.17247 281.58132,431.17354 288.4506,429.58035 C 342.02149,417.15558 391.79159,372.82322 408.04226,323.05502 C 413.75177,305.56938 414.96249,297.14733 414.98039,274.79106 C 414.99475,256.80233 414.69638,252.69442 412.69079,243.27175 C 406.33479,213.41021 394.51538,189.15358 373.94208,163.74906 C 361.18318,147.99404 360.55335,144.61785 371.37979,150.01432 C 379.39195,154.00798 387.43255,160.12958 397.16023,169.64189 C 421.14699,193.09754 439.05711,225.57169 446.10247,258.38273 C 448.70291,270.49295 449.75575,298.49406 448.08326,311.05741 C 443.91414,342.37353 426.89844,379.52811 406.58072,401.68031 C 387.82488,422.12962 348.99077,442.08782 315.13966,448.67501 C 301.3962,451.34938 273.96094,452.10104 261.28901,450.15038 L 261.289,450.15037 z"
     id="path3174" />
  <path
     style="fill:#e3dedb;fill-opacity:1"
     d="M 188.71172,403.90241 C 136.82992,395.47467 92.813265,361.90337 69.365485,312.8776 C 44.866515,261.65388 48.239475,200.80339 78.158915,154.23864 C 92.285275,132.25322 118.65238,104.9806 125.78145,104.9806 C 131.09125,104.9806 127.93938,114.04885 114.80856,136.55095 C 92.480875,174.81347 86.113515,195.2267 87.019335,225.64047 C 87.877285,254.44739 96.064205,284.57623 110.03708,310.34863 C 129.81538,346.82895 162.52733,370.58791 204.25945,378.78314 C 215.24771,380.94101 235.83228,382.73441 249.78039,382.74912 C 265.89508,382.76613 281.79219,386.16583 281.79219,389.59503 C 281.79219,392.01929 273.9838,395.71698 262.83063,398.57434 C 239.09492,404.65523 207.38083,406.93505 188.71172,403.90241 z"
     id="path3176" />
  <path
     style="fill:#e6b500;stroke:none;stroke-width:1px;stroke-linecap:butt;stroke-linejoin:miter;stroke-opacity:1;fill-opacity:1"
     d="M 511.23116,196.49438 C 509.57896,193.85827 505.06984,186.32073 501.21089,179.74429 C 491.13005,162.5645 480.91206,149.27164 466.05244,134.00568 C 433.21452,100.26976 394.1711,79.618733 347.76705,71.441565 C 333.99339,69.014418 296.94645,69.36965 283.12784,72.061375 C 244.79831,79.527561 211.01877,97.014144 184.32212,123.20991 C 173.36487,133.96159 165.29073,143.9938 150.50335,165.23015 C 126.39416,199.85367 116.87138,197.55529 130.09835,160.30526 C 139.6488,133.40911 158.75356,100.97293 174.41805,85.059016 C 193.8961,65.27081 232.96238,40.427102 258.2403,31.753332 C 278.34566,24.854456 289.68851,23.1492 315.75525,23.106698 C 343.64204,23.061229 356.12322,24.882257 378.7956,32.304403 C 412.13237,43.217694 438.89909,60.417549 466.40888,88.603277 C 499.29344,122.29585 516.47413,155.76854 516.42578,186.05008 C 516.40219,200.83025 515.3166,203.01292 511.23114,196.49439 L 511.23116,196.49438 z"
     id="path2396"
     transform="scale(0.8,0.8)" />
  <path
     style="fill:#3e56a0;fill-opacity:1"
     d="M 291.30098,536.48534 C 267.94021,532.88929 245.98907,525.95734 226.88085,516.14211 C 214.11252,509.58344 205.01991,502.3925 206.48918,500.01518 C 208.05671,497.4788 220.40614,499.59316 238.43444,505.4846 C 262.66891,513.40416 275.09123,515.35622 295.68631,514.48132 C 306.71146,514.01297 316.66638,512.76431 325.25298,510.77282 C 392.21659,495.24185 454.42921,439.82641 474.74255,377.61615 C 481.87944,355.7591 483.39284,345.23154 483.41521,317.28621 C 483.43317,294.80029 483.0602,289.66541 480.55321,277.88707 C 472.60822,240.56014 457.83395,210.23935 432.11733,178.48371 C 416.1687,158.78993 415.38141,154.56969 428.91447,161.31528 C 438.92966,166.30735 448.98041,173.95936 461.14002,185.84974 C 491.12347,215.1693 513.51112,255.76199 522.31781,296.77579 C 525.56836,311.91357 526.88442,346.91496 524.7938,362.61914 C 519.5824,401.76429 498.31278,448.20752 472.91563,475.89777 C 449.47083,501.4594 400.92819,526.40715 358.6143,534.64114 C 341.43498,537.98411 307.1409,538.92368 291.30099,536.48536 L 291.30098,536.48534 z"
     id="path3170"
     transform="scale(0.8,0.8)" />
  <path
     style="fill:#4e9e3f;fill-opacity:1"
     d="M 202.72896,477.32125 C 137.87672,466.78658 82.855906,424.82245 53.546183,363.54024 C 22.922461,299.51059 27.138662,223.44748 64.537965,165.24154 C 82.195921,137.75976 115.15479,103.66899 124.06613,103.66899 C 130.70338,103.66899 126.76354,115.0043 110.35001,143.13192 C 82.440418,190.96008 74.481212,216.47661 75.613494,254.49383 C 76.685927,290.50247 86.919583,328.16352 104.38567,360.37902 C 129.10854,405.97942 169.99848,435.67812 222.16363,445.92216 C 235.89895,448.6195 261.62967,450.86125 279.0648,450.87964 C 299.20817,450.9009 319.07955,455.15052 319.07955,459.43703 C 319.07955,462.46735 309.31907,467.08946 295.3776,470.66116 C 265.70796,478.26228 226.06535,481.11205 202.72896,477.32125 z"
     id="path3168"
     transform="scale(0.8,0.8)" />
</svg>
