<?xml version="1.0" encoding="UTF-8" standalone="no"?>
<svg
   xmlns:dc="http://purl.org/dc/elements/1.1/"
   xmlns:cc="http://creativecommons.org/ns#"
   xmlns:rdf="http://www.w3.org/1999/02/22-rdf-syntax-ns#"
   xmlns:svg="http://www.w3.org/2000/svg"
   xmlns="http://www.w3.org/2000/svg"
   xmlns:sodipodi="http://sodipodi.sourceforge.net/DTD/sodipodi-0.dtd"
   xmlns:inkscape="http://www.inkscape.org/namespaces/inkscape"
   version="1.0"
   width="468pt"
   height="459pt"
   viewBox="0 0 468 459"
   preserveAspectRatio="xMidYMid meet"
   id="svg2"
   sodipodi:version="0.32"
   inkscape:version="0.46"
   sodipodi:docname="circle.svg"
   inkscape:output_extension="org.inkscape.output.svg.inkscape">
  <defs
     id="defs21">
    <inkscape:perspective
       sodipodi:type="inkscape:persp3d"
       inkscape:vp_x="0 : 286.875 : 1"
       inkscape:vp_y="0 : 1000 : 0"
       inkscape:vp_z="585 : 286.875 : 1"
       inkscape:persp3d-origin="292.5 : 191.25 : 1"
       id="perspective23" />
  </defs>
  <sodipodi:namedview
     inkscape:window-height="942"
     inkscape:window-width="1280"
     inkscape:pageshadow="2"
     inkscape:pageopacity="0.0"
     guidetolerance="10.0"
     gridtolerance="10.0"
     objecttolerance="10.0"
     borderopacity="1.0"
     bordercolor="#666666"
     pagecolor="#ffffff"
     id="base"
     showgrid="false"
     inkscape:zoom="0.81220044"
     inkscape:cx="43.531808"
     inkscape:cy="286.875"
     inkscape:window-x="1276"
     inkscape:window-y="-4"
     inkscape:current-layer="svg2" />
  <metadata
     id="metadata4">
Created by potrace 1.8, written by Peter Selinger 2001-2007
<rdf:RDF>
  <cc:Work
     rdf:about="">
    <dc:format>image/svg+xml</dc:format>
    <dc:type
       rdf:resource="http://purl.org/dc/dcmitype/StillImage" />
  </cc:Work>
</rdf:RDF>
</metadata>
  <g
     transform="translate(0,459) scale(0.900000,-0.900000)"
     fill="#000000"
     stroke="none"
     id="g6">
    <g
       id="g8">
      <path
         d="M201 469 c-43 -26 -55 -38 -75 -76 -27 -54 -19 -73 12 -25 74 116 240 104 310 -23 11 -19 11 -19 12 2 0 34 -34 84 -81 115 -53 35 -127 39 -178 7z"
         id="path10" />
    </g>
    <g
       id="g12">
      <path
         d="M71 383 c-105 -127 -1 -320 160 -298 66 9 72 25 9 25 -87 0 -144 44 -166 129 -14 56 -8 91 26 146 29 46 9 45 -29 -2z"
         id="path14" />
    </g>
    <g
       id="g16">
      <path
         d="M382 353 c57 -65 64 -157 18 -221 -46 -63 -125 -95 -184 -72 -43 16 -45 3 -3 -15 48 -20 103 -19 152 4 48 22 69 44 90 94 28 67 12 143 -42 200 -29 29 -56 38 -31 10z"
         id="path18" />
    </g>
  </g>
  <path
     style="fill:#e6b500;stroke:none;stroke-width:1px;stroke-linecap:butt;stroke-linejoin:miter;stroke-opacity:1;fill-opacity:1"
     d="M 511.23116,196.49438 C 509.57896,193.85827 505.06984,186.32073 501.21089,179.74429 C 491.13005,162.5645 480.91206,149.27164 466.05244,134.00568 C 433.21452,100.26976 394.1711,79.618733 347.76705,71.441565 C 333.99339,69.014418 296.94645,69.36965 283.12784,72.061375 C 244.79831,79.527561 211.01877,97.014144 184.32212,123.20991 C 173.36487,133.96159 165.29073,143.9938 150.50335,165.23015 C 126.39416,199.85367 116.87138,197.55529 130.09835,160.30526 C 139.6488,133.40911 158.75356,100.97293 174.41805,85.059016 C 193.8961,65.27081 232.96238,40.427102 258.2403,31.753332 C 278.34566,24.854456 289.68851,23.1492 315.75525,23.106698 C 343.64204,23.061229 356.12322,24.882257 378.7956,32.304403 C 412.13237,43.217694 438.89909,60.417549 466.40888,88.603277 C 499.29344,122.29585 516.47413,155.76854 516.42578,186.05008 C 516.40219,200.83025 515.3166,203.01292 511.23114,196.49439 L 511.23116,196.49438 z"
     id="path2396"
     transform="scale(0.8,0.8)" />
  <path
     style="fill:#4e9e3f;fill-opacity:1"
     d="M 202.72896,477.32125 C 137.87672,466.78658 82.855906,424.82245 53.546183,363.54024 C 22.922461,299.51059 27.138662,223.44748 64.537965,165.24154 C 82.195921,137.75976 115.15479,103.66899 124.06613,103.66899 C 130.70338,103.66899 126.76354,115.0043 110.35001,143.13192 C 82.440418,190.96008 74.481212,216.47661 75.613494,254.49383 C 76.685927,290.50247 86.919583,328.16352 104.38567,360.37902 C 129.10854,405.97942 169.99848,435.67812 222.16363,445.92216 C 235.89895,448.6195 261.62967,450.86125 279.0648,450.87964 C 299.20817,450.9009 319.07955,455.15052 319.07955,459.43703 C 319.07955,462.46735 309.31907,467.08946 295.3776,470.66116 C 265.70796,478.26228 226.06535,481.11205 202.72896,477.32125 z"
     id="path3168"
     transform="scale(0.8,0.8)" />
  <path
     style="fill:#3e56a0;fill-opacity:1"
     d="M 291.30098,536.48534 C 267.94021,532.88929 245.98907,525.95734 226.88085,516.14211 C 214.11252,509.58344 205.01991,502.3925 206.48918,500.01518 C 208.05671,497.4788 220.40614,499.59316 238.43444,505.4846 C 262.66891,513.40416 275.09123,515.35622 295.68631,514.48132 C 306.71146,514.01297 316.66638,512.76431 325.25298,510.77282 C 392.21659,495.24185 454.42921,439.82641 474.74255,377.61615 C 481.87944,355.7591 483.39284,345.23154 483.41521,317.28621 C 483.43317,294.80029 483.0602,289.66541 480.55321,277.88707 C 472.60822,240.56014 457.83395,210.23935 432.11733,178.48371 C 416.1687,158.78993 415.38141,154.56969 428.91447,161.31528 C 438.92966,166.30735 448.98041,173.95936 461.14002,185.84974 C 491.12347,215.1693 513.51112,255.76199 522.31781,296.77579 C 525.56836,311.91357 526.88442,346.91496 524.7938,362.61914 C 519.5824,401.76429 498.31278,448.20752 472.91563,475.89777 C 449.47083,501.4594 400.92819,526.40715 358.6143,534.64114 C 341.43498,537.98411 307.1409,538.92368 291.30099,536.48536 L 291.30098,536.48534 z"
     id="path3170"
     transform="scale(0.8,0.8)" />
</svg>
