<?xml version="1.0" standalone="yes"?>

<svg version="1.1" viewBox="0.0 0.0 634.4173228346457 387.5590551181102" fill="none" stroke="none" stroke-linecap="square" stroke-miterlimit="10" xmlns="http://www.w3.org/2000/svg" xmlns:xlink="http://www.w3.org/1999/xlink"><clipPath id="p.0"><path d="m0 0l634.4173 0l0 387.55905l-634.4173 0l0 -387.55905z" clip-rule="nonzero"></path></clipPath><g clip-path="url(#p.0)"><path fill="#000000" fill-opacity="0.0" d="m0 0l634.4173 0l0 387.55905l-634.4173 0z" fill-rule="nonzero"></path><path fill="#cfe2f3" d="m105.057915 87.06094l0 0c0 -15.898842 13.339798 -28.787403 29.79528 -28.787403l0 0c7.902191 0 15.480743 3.0329514 21.068436 8.431637c5.5876923 5.3986816 8.726837 12.720871 8.726837 20.355766l0 0c0 15.898842 -13.339798 28.7874 -29.795273 28.7874l0 0c-16.455482 0 -29.79528 -12.888557 -29.79528 -28.7874z" fill-rule="nonzero"></path><path stroke="#000000" stroke-width="1.0" stroke-linejoin="round" stroke-linecap="butt" d="m105.057915 87.06094l0 0c0 -15.898842 13.339798 -28.787403 29.79528 -28.787403l0 0c7.902191 0 15.480743 3.0329514 21.068436 8.431637c5.5876923 5.3986816 8.726837 12.720871 8.726837 20.355766l0 0c0 15.898842 -13.339798 28.7874 -29.795273 28.7874l0 0c-16.455482 0 -29.79528 -12.888557 -29.79528 -28.7874z" fill-rule="nonzero"></path><path fill="#000000" d="m132.81288 96.21532q-0.046875 0.125 -0.109375 0.1875q-0.046875 0.078125 -0.140625 0.109375q-0.09375 0.03125 -0.234375 0.046875q-0.125 0.03125 -0.328125 0.03125q-0.234375 0 -0.390625 -0.03125q-0.140625 -0.03125 -0.234375 -0.09375q-0.078125 -0.0625 -0.09375 -0.15625q-0.015625 -0.078125 0.03125 -0.203125l5.609375 -15.390625q0.046875 -0.125 0.09375 -0.1875q0.0625 -0.078125 0.15625 -0.109375q0.09375 -0.046875 0.234375 -0.0625q0.140625 -0.015625 0.328125 -0.015625q0.234375 0 0.375 0.03125q0.15625 0.03125 0.234375 0.09375q0.09375 0.046875 0.109375 0.140625q0.015625 0.09375 -0.03125 0.21875l-5.609375 15.390625z" fill-rule="nonzero"></path><path fill="#cfe2f3" d="m54.185013 179.8044l0 0c0 -15.8988495 13.339798 -28.7874 29.795273 -28.7874l0 0c7.902199 0 15.480743 3.0329437 21.068443 8.431625c5.5877 5.398697 8.726837 12.720871 8.726837 20.355774l0 0c0 15.898834 -13.339806 28.7874 -29.79528 28.7874l0 0c-16.455475 0 -29.795273 -12.888565 -29.795273 -28.7874z" fill-rule="nonzero"></path><path stroke="#000000" stroke-width="1.0" stroke-linejoin="round" stroke-linecap="butt" d="m54.185013 179.8044l0 0c0 -15.8988495 13.339798 -28.7874 29.795273 -28.7874l0 0c7.902199 0 15.480743 3.0329437 21.068443 8.431625c5.5877 5.398697 8.726837 12.720871 8.726837 20.355774l0 0c0 15.898834 -13.339806 28.7874 -29.79528 28.7874l0 0c-16.455475 0 -29.795273 -12.888565 -29.795273 -28.7874z" fill-rule="nonzero"></path><path fill="#000000" d="m87.2152 186.50565q0 0.109375 -0.078125 0.171875q-0.0625 0.046875 -0.203125 0.078125q-0.125 0.03125 -0.375 0.03125q-0.234375 0 -0.390625 -0.03125q-0.140625 -0.03125 -0.203125 -0.078125q-0.0625 -0.0625 -0.0625 -0.171875l0 -0.84375q-0.546875 0.59375 -1.21875 0.921875q-0.671875 0.3125 -1.421875 0.3125q-0.65625 0 -1.203125 -0.171875q-0.53125 -0.171875 -0.90625 -0.484375q-0.375 -0.328125 -0.578125 -0.796875q-0.203125 -0.484375 -0.203125 -1.078125q0 -0.71875 0.28125 -1.234375q0.28125 -0.515625 0.8125 -0.859375q0.546875 -0.34375 1.328125 -0.515625q0.78125 -0.171875 1.75 -0.171875l1.15625 0l0 -0.65625q0 -0.46875 -0.109375 -0.84375q-0.09375 -0.375 -0.328125 -0.609375q-0.21875 -0.25 -0.578125 -0.375q-0.359375 -0.125 -0.890625 -0.125q-0.5625 0 -1.015625 0.140625q-0.453125 0.125 -0.796875 0.296875q-0.328125 0.15625 -0.5625 0.296875q-0.234375 0.125 -0.34375 0.125q-0.0625 0 -0.125 -0.03125q-0.0625 -0.046875 -0.109375 -0.109375q-0.03125 -0.078125 -0.046875 -0.1875q-0.015625 -0.125 -0.015625 -0.265625q0 -0.234375 0.03125 -0.359375q0.03125 -0.140625 0.15625 -0.265625q0.125 -0.125 0.421875 -0.28125q0.3125 -0.15625 0.703125 -0.296875q0.40625 -0.140625 0.875 -0.21875q0.484375 -0.09375 0.96875 -0.09375q0.890625 0 1.515625 0.203125q0.640625 0.203125 1.03125 0.609375q0.390625 0.390625 0.5625 0.96875q0.171875 0.578125 0.171875 1.359375l0 5.640625zm-1.515625 -3.8125l-1.3125 0q-0.625 0 -1.09375 0.109375q-0.453125 0.09375 -0.765625 0.3125q-0.3125 0.203125 -0.453125 0.5q-0.140625 0.28125 -0.140625 0.671875q0 0.640625 0.40625 1.03125q0.421875 0.390625 1.15625 0.390625q0.609375 0 1.125 -0.3125q0.515625 -0.3125 1.078125 -0.9375l0 -1.765625z" fill-rule="nonzero"></path><path fill="#000000" fill-opacity="0.0" d="m113.784744 107.41671l-29.795273 43.590553" fill-rule="nonzero"></path><path stroke="#000000" stroke-width="1.0" stroke-linejoin="round" stroke-linecap="butt" d="m113.784744 107.41671l-26.409477 38.637123" fill-rule="evenodd"></path><path fill="#000000" stroke="#000000" stroke-width="1.0" stroke-linecap="butt" d="m86.01164 145.12177l-1.1972198 4.678589l3.9244614 -2.8144531z" fill-rule="evenodd"></path><path fill="#4a86e8" d="m13.298884 139.94423l63.086613 0l0 26.929138l-63.086613 0z" fill-rule="nonzero"></path><path stroke="#000000" stroke-width="1.0" stroke-linejoin="round" stroke-linecap="butt" d="m13.298884 139.94423l63.086613 0l0 26.929138l-63.086613 0z" fill-rule="nonzero"></path><path fill="#000000" d="m30.729887 157.75693q-0.03125 0.0625 -0.078125 0.109375q-0.03125 0.03125 -0.109375 0.0625q-0.0625 0.015625 -0.1875 0.015625q-0.109375 0.015625 -0.28125 0.015625q-0.125 0 -0.234375 0q-0.09375 0 -0.171875 -0.015625q-0.0625 -0.015625 -0.109375 -0.03125q-0.046875 -0.015625 -0.078125 -0.03125q-0.03125 -0.03125 -0.0625 -0.0625q-0.015625 -0.03125 -0.03125 -0.078125l-2.484375 -7.03125q-0.046875 -0.140625 -0.046875 -0.21875q0 -0.078125 0.046875 -0.109375q0.0625 -0.046875 0.171875 -0.0625q0.125 -0.015625 0.3125 -0.015625q0.171875 0 0.265625 0.015625q0.09375 0.015625 0.140625 0.046875q0.0625 0.015625 0.078125 0.046875q0.03125 0.03125 0.0625 0.09375l2.171875 6.390625l0 0l2.124998 -6.375q0.015625 -0.0625 0.03125 -0.09375q0.03125 -0.046875 0.078125 -0.0625q0.0625 -0.03125 0.171875 -0.046875q0.109375 -0.015625 0.28125 -0.015625q0.1875 0 0.28125 0.015625q0.109375 0.015625 0.140625 0.0625q0.046875 0.046875 0.03125 0.125q0 0.078125 -0.046875 0.203125l-2.468748 7.046875zm7.605467 0.03125q0 0.0625 -0.046875 0.109375q-0.046875 0.03125 -0.140625 0.046875q-0.078125 0.015625 -0.234375 0.015625q-0.15625 0 -0.25 -0.015625q-0.078125 -0.015625 -0.125 -0.046875q-0.046875 -0.046875 -0.046875 -0.109375l0 -0.53125q-0.34375 0.375 -0.765625 0.578125q-0.421875 0.203125 -0.890625 0.203125q-0.421875 0 -0.765625 -0.109375q-0.328125 -0.109375 -0.578125 -0.3125q-0.234375 -0.203125 -0.359375 -0.5q-0.125 -0.296875 -0.125 -0.6875q0 -0.4375 0.171875 -0.765625q0.1875 -0.328125 0.515625 -0.546875q0.34375 -0.21875 0.828125 -0.328125q0.5 -0.109375 1.125 -0.109375l0.71875 0l0 -0.40625q0 -0.3125 -0.0625 -0.546875q-0.0625 -0.234375 -0.203125 -0.375q-0.140625 -0.15625 -0.375 -0.234375q-0.234375 -0.09375 -0.5625 -0.09375q-0.359375 0 -0.640625 0.09375q-0.28125 0.078125 -0.5 0.1875q-0.21875 0.09375 -0.359375 0.1875q-0.140625 0.078125 -0.21875 0.078125q-0.046875 0 -0.078125 -0.015625q-0.03125 -0.03125 -0.0625 -0.078125q-0.015625 -0.046875 -0.03125 -0.109375q-0.015625 -0.078125 -0.015625 -0.171875q0 -0.140625 0.015625 -0.21875q0.03125 -0.09375 0.109375 -0.171875q0.078125 -0.078125 0.265625 -0.171875q0.203125 -0.109375 0.453125 -0.1875q0.25 -0.09375 0.546875 -0.140625q0.296875 -0.0625 0.609375 -0.0625q0.5625 0 0.953125 0.140625q0.40625 0.125 0.640625 0.375q0.25 0.25 0.359375 0.625q0.125 0.359375 0.125 0.84375l0 3.5625zm-0.96875 -2.40625l-0.828125 0q-0.390625 0 -0.6875 0.0625q-0.296875 0.0625 -0.484375 0.203125q-0.1875 0.125 -0.28125 0.3125q-0.09375 0.1875 -0.09375 0.421875q0 0.421875 0.25 0.671875q0.265625 0.234375 0.734375 0.234375q0.390625 0 0.703125 -0.1875q0.328125 -0.203125 0.6875 -0.609375l0 -1.109375zm3.7011719 2.40625q0 0.046875 -0.03125 0.078125q-0.015625 0.03125 -0.0625 0.0625q-0.046875 0.015625 -0.140625 0.015625q-0.09375 0.015625 -0.25 0.015625q-0.140625 0 -0.234375 -0.015625q-0.09375 0 -0.15625 -0.015625q-0.046875 -0.03125 -0.078125 -0.0625q-0.015625 -0.03125 -0.015625 -0.078125l0 -7.828125q0 -0.046875 0.015625 -0.078125q0.03125 -0.046875 0.078125 -0.0625q0.0625 -0.03125 0.15625 -0.03125q0.09375 -0.015625 0.234375 -0.015625q0.15625 0 0.25 0.015625q0.09375 0 0.140625 0.03125q0.046875 0.015625 0.0625 0.0625q0.03125 0.03125 0.03125 0.078125l0 7.828125zm6.3164062 0q0 0.046875 -0.03125 0.078125q-0.015625 0.03125 -0.078125 0.0625q-0.046875 0.015625 -0.140625 0.015625q-0.078125 0.015625 -0.203125 0.015625q-0.125 0 -0.21875 -0.015625q-0.078125 0 -0.125 -0.015625q-0.046875 -0.03125 -0.078125 -0.0625q-0.015625 -0.03125 -0.015625 -0.078125l0 -0.703125q-0.453125 0.5 -0.890625 0.734375q-0.4375 0.21875 -0.890625 0.21875q-0.515625 0 -0.890625 -0.171875q-0.359375 -0.171875 -0.578125 -0.46875q-0.21875 -0.3125 -0.3125 -0.703125q-0.09375 -0.40625 -0.09375 -0.984375l0 -3.203125q0 -0.046875 0.015625 -0.078125q0.015625 -0.03125 0.078125 -0.046875q0.0625 -0.03125 0.15625 -0.046875q0.09375 -0.015625 0.234375 -0.015625q0.140625 0 0.234375 0.015625q0.09375 0.015625 0.140625 0.046875q0.0625 0.015625 0.078125 0.046875q0.03125 0.03125 0.03125 0.078125l0 3.078125q0 0.453125 0.0625 0.734375q0.0625 0.28125 0.203125 0.484375q0.140625 0.1875 0.34375 0.296875q0.21875 0.109375 0.5 0.109375q0.359375 0 0.71875 -0.25q0.359375 -0.265625 0.765625 -0.765625l0 -3.6875q0 -0.046875 0.015625 -0.078125q0.03125 -0.03125 0.078125 -0.046875q0.0625 -0.03125 0.15625 -0.046875q0.09375 -0.015625 0.234375 -0.015625q0.140625 0 0.234375 0.015625q0.09375 0.015625 0.140625 0.046875q0.0625 0.015625 0.09375 0.046875q0.03125 0.03125 0.03125 0.078125l0 5.28125zm6.2734375 -2.875q0 0.234375 -0.109375 0.328125q-0.109375 0.09375 -0.265625 0.09375l-3.453125 0q0 0.4375 0.078125 0.796875q0.09375 0.34375 0.296875 0.609375q0.21875 0.25 0.546875 0.390625q0.328125 0.125 0.796875 0.125q0.375 0 0.671875 -0.0625q0.296875 -0.0625 0.5 -0.140625q0.21875 -0.078125 0.359375 -0.140625q0.140625 -0.0625 0.203125 -0.0625q0.046875 0 0.078125 0.03125q0.03125 0.015625 0.046875 0.0625q0.015625 0.03125 0.015625 0.109375q0.015625 0.078125 0.015625 0.171875q0 0.078125 -0.015625 0.140625q0 0.046875 -0.015625 0.09375q0 0.046875 -0.015625 0.078125q-0.015625 0.03125 -0.046875 0.078125q-0.03125 0.03125 -0.203125 0.109375q-0.15625 0.0625 -0.40625 0.140625q-0.25 0.0625 -0.578125 0.109375q-0.328125 0.0625 -0.703125 0.0625q-0.65625 0 -1.15625 -0.171875q-0.484375 -0.1875 -0.8125 -0.546875q-0.328125 -0.359375 -0.5 -0.890625q-0.171875 -0.546875 -0.171875 -1.265625q0 -0.671875 0.171875 -1.21875q0.171875 -0.546875 0.5 -0.921875q0.34375 -0.375 0.8125 -0.578125q0.46875 -0.203125 1.046875 -0.203125q0.625 0 1.0625 0.203125q0.4375 0.203125 0.71875 0.546875q0.28125 0.328125 0.40625 0.78125q0.125 0.453125 0.125 0.96875l0 0.171875zm-0.96875 -0.28125q0.015625 -0.765625 -0.34375 -1.1875q-0.34375 -0.4375 -1.046875 -0.4375q-0.359375 0 -0.625 0.140625q-0.265625 0.125 -0.453125 0.34375q-0.171875 0.21875 -0.28125 0.515625q-0.09375 0.296875 -0.109375 0.625l2.859375 0zm9.699219 2.890625q0 0.125 -0.03125 0.203125q-0.015625 0.0625 -0.046875 0.109375q-0.015625 0.046875 -0.0625 0.078125q-0.03125 0.015625 -0.078125 0.015625l-3.953125 0q-0.046875 0 -0.078125 -0.015625q-0.03125 -0.03125 -0.078125 -0.078125q-0.03125 -0.046875 -0.046875 -0.109375q-0.015625 -0.078125 -0.015625 -0.203125q0 -0.09375 0.015625 -0.171875q0.015625 -0.078125 0.046875 -0.125q0.03125 -0.046875 0.0625 -0.078125q0.046875 -0.03125 0.09375 -0.03125l1.578125 0l0 -5.765625l-1.46875 0.875q-0.109375 0.0625 -0.1875 0.078125q-0.0625 0 -0.109375 -0.03125q-0.03125 -0.046875 -0.046875 -0.125q-0.015625 -0.09375 -0.015625 -0.21875q0 -0.109375 0 -0.171875q0.015625 -0.078125 0.03125 -0.125q0.03125 -0.046875 0.0625 -0.078125q0.03125 -0.03125 0.078125 -0.078125l1.75 -1.109375q0.015625 -0.015625 0.046875 -0.03125q0.046875 -0.015625 0.09375 -0.015625q0.0625 -0.015625 0.125 -0.015625q0.078125 -0.015625 0.171875 -0.015625q0.140625 0 0.234375 0.015625q0.09375 0.015625 0.140625 0.03125q0.0625 0.015625 0.078125 0.0625q0.015625 0.03125 0.015625 0.0625l0 6.65625l1.375 0q0.046875 0 0.078125 0.03125q0.046875 0.03125 0.078125 0.078125q0.03125 0.046875 0.046875 0.125q0.015625 0.078125 0.015625 0.171875z" fill-rule="nonzero"></path><path fill="#f3f3f3" d="m67.325455 312.93176l135.05511 0l0 26.929138l-135.05511 0z" fill-rule="nonzero"></path><path fill="#000000" d="m88.50805 334.55988q0 0.0625 -0.03125 0.109375q-0.015625 0.03125 -0.078125 0.0625q-0.0625 0.015625 -0.171875 0.015625q-0.09375 0.015625 -0.265625 0.015625q-0.171875 0 -0.28125 -0.015625q-0.109375 0 -0.1875 -0.015625q-0.078125 -0.03125 -0.125 -0.0625q-0.046875 -0.046875 -0.078125 -0.109375l-2.421875 -3.15625l0 3.171875q0 0.046875 -0.03125 0.09375q-0.015625 0.03125 -0.078125 0.0625q-0.046875 0.015625 -0.15625 0.015625q-0.09375 0.015625 -0.265625 0.015625q-0.140625 0 -0.25 -0.015625q-0.09375 0 -0.15625 -0.015625q-0.0625 -0.03125 -0.09375 -0.0625q-0.015625 -0.046875 -0.015625 -0.09375l0 -8.484375q0 -0.046875 0.015625 -0.078125q0.03125 -0.046875 0.09375 -0.0625q0.0625 -0.03125 0.15625 -0.046875q0.109375 -0.015625 0.25 -0.015625q0.171875 0 0.265625 0.015625q0.109375 0.015625 0.15625 0.046875q0.0625 0.015625 0.078125 0.0625q0.03125 0.03125 0.03125 0.078125l0 5.171875l2.15625 -2.375q0.0625 -0.0625 0.109375 -0.109375q0.0625 -0.046875 0.140625 -0.0625q0.078125 -0.03125 0.1875 -0.03125q0.109375 -0.015625 0.265625 -0.015625q0.15625 0 0.265625 0.015625q0.109375 0 0.171875 0.03125q0.0625 0.015625 0.09375 0.046875q0.03125 0.03125 0.03125 0.09375q0 0.078125 -0.046875 0.15625q-0.046875 0.0625 -0.140625 0.171875l-2.0625 2.0625l2.328125 3.015625q0.078125 0.109375 0.109375 0.1875q0.03125 0.0625 0.03125 0.109375zm6.261963 0.015625q0 0.046875 -0.015625 0.09375q-0.015625 0.03125 -0.078125 0.0625q-0.046875 0.015625 -0.140625 0.015625q-0.09375 0.015625 -0.21875 0.015625q-0.125 0 -0.21875 -0.015625q-0.09375 0 -0.15625 -0.015625q-0.046875 -0.03125 -0.078125 -0.0625q-0.015625 -0.046875 -0.015625 -0.09375l0 -0.765625q-0.453125 0.5 -0.9375 0.78125q-0.484375 0.265625 -1.0625 0.265625q-0.640625 0 -1.078125 -0.25q-0.4375 -0.25 -0.71875 -0.65625q-0.28125 -0.421875 -0.40625 -0.984375q-0.125 -0.5625 -0.125 -1.1875q0 -0.734375 0.15625 -1.328125q0.15625 -0.59375 0.46875 -1.0q0.3125 -0.421875 0.765625 -0.640625q0.46875 -0.234375 1.078125 -0.234375q0.5 0 0.90625 0.21875q0.421875 0.21875 0.828125 0.640625l0 -3.3125q0 -0.046875 0.015625 -0.078125q0.03125 -0.046875 0.09375 -0.0625q0.0625 -0.03125 0.15625 -0.046875q0.109375 -0.015625 0.25 -0.015625q0.15625 0 0.25 0.015625q0.109375 0.015625 0.171875 0.046875q0.0625 0.015625 0.078125 0.0625q0.03125 0.03125 0.03125 0.078125l0 8.453125zm-1.046875 -4.015625q-0.421875 -0.53125 -0.828125 -0.796875q-0.390625 -0.28125 -0.828125 -0.28125q-0.390625 0 -0.671875 0.1875q-0.28125 0.1875 -0.453125 0.5q-0.171875 0.3125 -0.265625 0.703125q-0.078125 0.390625 -0.078125 0.796875q0 0.4375 0.0625 0.859375q0.078125 0.40625 0.234375 0.734375q0.171875 0.3125 0.4375 0.5q0.28125 0.1875 0.6875 0.1875q0.21875 0 0.40625 -0.046875q0.203125 -0.0625 0.40625 -0.1875q0.203125 -0.140625 0.421875 -0.34375q0.21875 -0.21875 0.46875 -0.53125l0 -2.28125zm8.424347 1.078125q0 0.75 -0.171875 1.34375q-0.15625 0.59375 -0.46875 1.015625q-0.3125 0.40625 -0.78125 0.640625q-0.453125 0.21875 -1.046875 0.21875q-0.265625 0 -0.5 -0.0625q-0.234375 -0.046875 -0.453125 -0.171875q-0.21875 -0.125 -0.453125 -0.296875q-0.21875 -0.1875 -0.46875 -0.453125l0 0.703125q0 0.046875 -0.03125 0.09375q-0.015625 0.03125 -0.078125 0.0625q-0.046875 0.015625 -0.140625 0.015625q-0.078125 0.015625 -0.21875 0.015625q-0.125 0 -0.21875 -0.015625q-0.078125 0 -0.140625 -0.015625q-0.046875 -0.03125 -0.078125 -0.0625q-0.015625 -0.046875 -0.015625 -0.09375l0 -8.484375q0 -0.046875 0.015625 -0.078125q0.03125 -0.046875 0.09375 -0.0625q0.0625 -0.03125 0.15625 -0.046875q0.109375 -0.015625 0.25 -0.015625q0.171875 0 0.265625 0.015625q0.109375 0.015625 0.15625 0.046875q0.0625 0.015625 0.078125 0.0625q0.03125 0.03125 0.03125 0.078125l0 3.421875q0.25 -0.265625 0.484375 -0.4375q0.25 -0.171875 0.46875 -0.28125q0.234375 -0.125 0.453125 -0.171875q0.234375 -0.046875 0.5 -0.046875q0.609375 0 1.046875 0.25q0.453125 0.25 0.71875 0.671875q0.28125 0.40625 0.40625 0.96875q0.140625 0.546875 0.140625 1.171875zm-1.109375 0.125q0 -0.4375 -0.078125 -0.84375q-0.0625 -0.421875 -0.234375 -0.734375q-0.15625 -0.328125 -0.4375 -0.515625q-0.265625 -0.1875 -0.671875 -0.1875q-0.203125 0 -0.40625 0.0625q-0.1875 0.046875 -0.390625 0.1875q-0.203125 0.125 -0.421875 0.34375q-0.21875 0.203125 -0.46875 0.515625l0 2.28125q0.4375 0.53125 0.828125 0.8125q0.390625 0.265625 0.8125 0.265625q0.40625 0 0.671875 -0.1875q0.28125 -0.1875 0.453125 -0.5q0.1875 -0.328125 0.265625 -0.71875q0.078125 -0.390625 0.078125 -0.78125zm9.453125 1.25q0 0.4375 -0.171875 0.78125q-0.15625 0.34375 -0.453125 0.578125q-0.296875 0.234375 -0.71875 0.359375q-0.40625 0.125 -0.90625 0.125q-0.296875 0 -0.578125 -0.046875q-0.28125 -0.046875 -0.5 -0.125q-0.21875 -0.078125 -0.375 -0.15625q-0.140625 -0.078125 -0.21875 -0.140625q-0.0625 -0.0625 -0.09375 -0.171875q-0.03125 -0.125 -0.03125 -0.3125q0 -0.125 0.015625 -0.203125q0.015625 -0.09375 0.03125 -0.140625q0.015625 -0.046875 0.046875 -0.0625q0.03125 -0.03125 0.078125 -0.03125q0.078125 0 0.203125 0.09375q0.140625 0.078125 0.34375 0.1875q0.203125 0.09375 0.46875 0.1875q0.28125 0.078125 0.640625 0.078125q0.265625 0 0.46875 -0.046875q0.21875 -0.0625 0.375 -0.171875q0.171875 -0.109375 0.25 -0.28125q0.078125 -0.171875 0.078125 -0.40625q0 -0.25 -0.125 -0.40625q-0.109375 -0.171875 -0.3125 -0.296875q-0.203125 -0.125 -0.46875 -0.21875q-0.25 -0.109375 -0.515625 -0.21875q-0.265625 -0.109375 -0.53125 -0.234375q-0.25 -0.140625 -0.453125 -0.328125q-0.203125 -0.203125 -0.328125 -0.46875q-0.125 -0.28125 -0.125 -0.671875q0 -0.328125 0.125 -0.640625q0.140625 -0.3125 0.390625 -0.53125q0.265625 -0.234375 0.65625 -0.375q0.390625 -0.140625 0.90625 -0.140625q0.234375 0 0.453125 0.046875q0.234375 0.03125 0.421875 0.09375q0.1875 0.046875 0.3125 0.125q0.125 0.0625 0.1875 0.109375q0.078125 0.046875 0.09375 0.09375q0.03125 0.03125 0.03125 0.078125q0.015625 0.046875 0.015625 0.125q0.015625 0.0625 0.015625 0.171875q0 0.09375 -0.015625 0.1875q0 0.078125 -0.03125 0.125q-0.015625 0.046875 -0.046875 0.078125q-0.03125 0.015625 -0.078125 0.015625q-0.046875 0 -0.15625 -0.0625q-0.109375 -0.078125 -0.28125 -0.15625q-0.171875 -0.078125 -0.40625 -0.140625q-0.234375 -0.078125 -0.53125 -0.078125q-0.265625 0 -0.46875 0.0625q-0.203125 0.0625 -0.328125 0.171875q-0.125 0.109375 -0.203125 0.265625q-0.0625 0.140625 -0.0625 0.328125q0 0.25 0.125 0.421875q0.125 0.15625 0.328125 0.28125q0.203125 0.125 0.46875 0.234375q0.265625 0.09375 0.53125 0.203125q0.265625 0.109375 0.53125 0.25q0.265625 0.125 0.46875 0.328125q0.203125 0.1875 0.328125 0.453125q0.125 0.265625 0.125 0.625zm6.4940643 -1.546875q0 0.25 -0.125 0.359375q-0.125 0.09375 -0.28125 0.09375l-3.75 0q0 0.484375 0.09375 0.875q0.109375 0.375 0.328125 0.65625q0.21875 0.265625 0.578125 0.40625q0.359375 0.140625 0.875 0.140625q0.40625 0 0.71875 -0.0625q0.3125 -0.0625 0.546875 -0.140625q0.234375 -0.09375 0.375 -0.15625q0.15625 -0.0625 0.234375 -0.0625q0.046875 0 0.078125 0.015625q0.03125 0.015625 0.046875 0.0625q0.03125 0.046875 0.03125 0.125q0.015625 0.078125 0.015625 0.203125q0 0.078125 -0.015625 0.140625q0 0.0625 -0.015625 0.109375q0 0.046875 -0.03125 0.09375q-0.015625 0.03125 -0.0625 0.0625q-0.03125 0.03125 -0.203125 0.109375q-0.171875 0.078125 -0.4375 0.15625q-0.265625 0.078125 -0.625 0.140625q-0.359375 0.0625 -0.765625 0.0625q-0.703125 0 -1.234375 -0.1875q-0.53125 -0.203125 -0.90625 -0.59375q-0.359375 -0.390625 -0.546875 -0.96875q-0.171875 -0.59375 -0.171875 -1.359375q0 -0.734375 0.1875 -1.328125q0.1875 -0.59375 0.546875 -1.0q0.359375 -0.40625 0.859375 -0.625q0.515625 -0.21875 1.140625 -0.21875q0.671875 0 1.140625 0.21875q0.484375 0.21875 0.78125 0.578125q0.3125 0.359375 0.453125 0.859375q0.140625 0.484375 0.140625 1.046875l0 0.1875zm-1.046875 -0.3125q0.015625 -0.828125 -0.375 -1.296875q-0.375 -0.46875 -1.140625 -0.46875q-0.375 0 -0.671875 0.15625q-0.296875 0.140625 -0.5 0.390625q-0.1875 0.234375 -0.296875 0.5625q-0.109375 0.3125 -0.125 0.65625l3.109375 0zm5.772156 3.0q0 0.1875 -0.03125 0.296875q-0.015625 0.109375 -0.0625 0.15625q-0.046875 0.046875 -0.15625 0.09375q-0.09375 0.046875 -0.234375 0.0625q-0.125 0.03125 -0.28125 0.046875q-0.140625 0.03125 -0.28125 0.03125q-0.453125 0 -0.765625 -0.109375q-0.3125 -0.125 -0.515625 -0.359375q-0.203125 -0.25 -0.296875 -0.609375q-0.09375 -0.359375 -0.09375 -0.859375l0 -3.34375l-0.796875 0q-0.09375 0 -0.15625 -0.09375q-0.0625 -0.109375 -0.0625 -0.328125q0 -0.125 0.015625 -0.203125q0.015625 -0.09375 0.046875 -0.140625q0.03125 -0.0625 0.0625 -0.078125q0.046875 -0.015625 0.09375 -0.015625l0.796875 0l0 -1.359375q0 -0.046875 0.015625 -0.078125q0.03125 -0.046875 0.09375 -0.078125q0.0625 -0.03125 0.15625 -0.03125q0.109375 -0.015625 0.25 -0.015625q0.15625 0 0.25 0.015625q0.109375 0 0.171875 0.03125q0.0625 0.03125 0.078125 0.078125q0.03125 0.03125 0.03125 0.078125l0 1.359375l1.46875 0q0.046875 0 0.078125 0.015625q0.046875 0.015625 0.078125 0.078125q0.03125 0.046875 0.03125 0.140625q0.015625 0.078125 0.015625 0.203125q0 0.21875 -0.0625 0.328125q-0.046875 0.09375 -0.140625 0.09375l-1.46875 0l0 3.1875q0 0.59375 0.171875 0.90625q0.171875 0.296875 0.625 0.296875q0.15625 0 0.265625 -0.03125q0.109375 -0.03125 0.203125 -0.0625q0.09375 -0.03125 0.15625 -0.0625q0.0625 -0.03125 0.109375 -0.03125q0.03125 0 0.0625 0.015625q0.03125 0.015625 0.046875 0.0625q0.015625 0.046875 0.015625 0.125q0.015625 0.078125 0.015625 0.1875zm4.6025543 2.109375q-0.015625 0.078125 -0.0625 0.125q-0.046875 0.046875 -0.109375 0.078125q-0.0625 0.03125 -0.15625 0.03125q-0.09375 0.015625 -0.21875 0.015625q-0.15625 0 -0.265625 -0.03125q-0.109375 -0.015625 -0.171875 -0.0625q-0.046875 -0.03125 -0.0625 -0.09375q-0.015625 -0.0625 0.03125 -0.140625l3.8437576 -10.53125q0.015625 -0.078125 0.0625 -0.125q0.046875 -0.046875 0.09375 -0.078125q0.0625 -0.03125 0.15625 -0.03125q0.09375 -0.015625 0.234375 -0.015625q0.15625 0 0.25 0.03125q0.109375 0.015625 0.15625 0.0625q0.0625 0.03125 0.078125 0.09375q0.015625 0.0625 -0.015625 0.140625l-3.8437576 10.53125zm9.366493 -1.6875q0 0.078125 -0.0625 0.125q-0.046875 0.03125 -0.140625 0.046875q-0.078125 0.015625 -0.25 0.015625q-0.171875 0 -0.265625 -0.015625q-0.09375 -0.015625 -0.140625 -0.046875q-0.046875 -0.046875 -0.046875 -0.125l0 -0.5625q-0.375 0.390625 -0.84375 0.625q-0.453125 0.21875 -0.96875 0.21875q-0.453125 0 -0.8125 -0.125q-0.359375 -0.109375 -0.625 -0.328125q-0.25 -0.234375 -0.40625 -0.546875q-0.140625 -0.328125 -0.140625 -0.75q0 -0.46875 0.203125 -0.828125q0.203125 -0.359375 0.5625 -0.59375q0.375 -0.234375 0.90625 -0.34375q0.53125 -0.125 1.203125 -0.125l0.78125 0l0 -0.453125q0 -0.328125 -0.078125 -0.578125q-0.0625 -0.25 -0.21875 -0.421875q-0.15625 -0.171875 -0.40625 -0.25q-0.25 -0.09375 -0.609375 -0.09375q-0.375 0 -0.6875 0.09375q-0.3125 0.09375 -0.546875 0.203125q-0.234375 0.109375 -0.390625 0.203125q-0.140625 0.09375 -0.21875 0.09375q-0.0625 0 -0.09375 -0.015625q-0.03125 -0.03125 -0.0625 -0.078125q-0.03125 -0.0625 -0.046875 -0.140625q-0.015625 -0.078125 -0.015625 -0.171875q0 -0.15625 0.015625 -0.25q0.03125 -0.09375 0.109375 -0.171875q0.09375 -0.078125 0.296875 -0.1875q0.21875 -0.125 0.484375 -0.203125q0.28125 -0.09375 0.59375 -0.15625q0.328125 -0.0625 0.65625 -0.0625q0.625 0 1.046875 0.140625q0.4375 0.140625 0.703125 0.40625q0.265625 0.265625 0.390625 0.671875q0.125 0.40625 0.125 0.9375l0 3.84375zm-1.046875 -2.609375l-0.890625 0q-0.4375 0 -0.765625 0.078125q-0.3125 0.078125 -0.515625 0.21875q-0.203125 0.140625 -0.3125 0.34375q-0.09375 0.1875 -0.09375 0.453125q0 0.453125 0.28125 0.71875q0.28125 0.25 0.796875 0.25q0.40625 0 0.75 -0.203125q0.359375 -0.21875 0.75 -0.640625l0 -1.21875zm7.2723846 -4.171875l0 0.796875q0 0.171875 -0.046875 0.28125q-0.03125 0.09375 -0.109375 0.15625q-0.078125 0.046875 -0.1875 0.0625q-0.109375 0.015625 -0.28125 0.015625q-0.15625 0 -0.265625 -0.015625q-0.109375 -0.015625 -0.1875 -0.0625q-0.078125 -0.0625 -0.109375 -0.15625q-0.03125 -0.109375 -0.03125 -0.28125q0 -0.1875 0.015625 -0.34375q0.015625 -0.171875 0.0625 -0.3125q0.046875 -0.15625 0.109375 -0.296875q0.078125 -0.15625 0.1875 -0.296875l0.875 -1.3125q0.03125 -0.046875 0.0625 -0.078125q0.046875 -0.03125 0.109375 -0.046875q0.0625 -0.03125 0.140625 -0.046875q0.078125 -0.015625 0.1875 -0.015625q0.109375 0 0.1875 0.015625q0.078125 0 0.109375 0.03125q0.03125 0.015625 0.03125 0.0625q0 0.03125 -0.015625 0.078125l-0.84375 1.765625zm5.622406 6.75q-0.015625 0.0625 -0.0625 0.109375q-0.046875 0.046875 -0.125 0.078125q-0.078125 0.015625 -0.203125 0.015625q-0.125 0.015625 -0.3125 0.015625q-0.140625 0 -0.25 0q-0.09375 0 -0.171875 -0.015625q-0.078125 -0.015625 -0.140625 -0.03125q-0.046875 -0.015625 -0.09375 -0.03125q-0.03125 -0.03125 -0.046875 -0.0625q-0.015625 -0.03125 -0.046875 -0.09375l-2.6875 -7.625q-0.046875 -0.140625 -0.046875 -0.21875q0 -0.09375 0.046875 -0.140625q0.0625 -0.046875 0.1875 -0.046875q0.125 -0.015625 0.34375 -0.015625q0.1875 0 0.28125 0.015625q0.109375 0 0.15625 0.03125q0.0625 0.015625 0.09375 0.0625q0.03125 0.046875 0.0625 0.109375l2.34375 6.90625l0.015625 0l2.28125 -6.90625q0.03125 -0.0625 0.046875 -0.109375q0.03125 -0.046875 0.09375 -0.0625q0.0625 -0.03125 0.171875 -0.03125q0.125 -0.015625 0.3125 -0.015625q0.1875 0 0.296875 0.015625q0.125 0.015625 0.15625 0.0625q0.046875 0.046875 0.03125 0.140625q0 0.078125 -0.046875 0.203125l-2.6875 7.640625zm8.437149 0.03125q0 0.078125 -0.0625 0.125q-0.046875 0.03125 -0.140625 0.046875q-0.078125 0.015625 -0.25 0.015625q-0.171875 0 -0.265625 -0.015625q-0.09375 -0.015625 -0.140625 -0.046875q-0.046875 -0.046875 -0.046875 -0.125l0 -0.5625q-0.375 0.390625 -0.84375 0.625q-0.453125 0.21875 -0.96875 0.21875q-0.453125 0 -0.8125 -0.125q-0.359375 -0.109375 -0.625 -0.328125q-0.25 -0.234375 -0.40625 -0.546875q-0.140625 -0.328125 -0.140625 -0.75q0 -0.46875 0.203125 -0.828125q0.203125 -0.359375 0.5625 -0.59375q0.375 -0.234375 0.90625 -0.34375q0.53125 -0.125 1.203125 -0.125l0.78125 0l0 -0.453125q0 -0.328125 -0.078125 -0.578125q-0.0625 -0.25 -0.21875 -0.421875q-0.15625 -0.171875 -0.40625 -0.25q-0.25 -0.09375 -0.609375 -0.09375q-0.375 0 -0.6875 0.09375q-0.3125 0.09375 -0.546875 0.203125q-0.234375 0.109375 -0.390625 0.203125q-0.140625 0.09375 -0.21875 0.09375q-0.0625 0 -0.09375 -0.015625q-0.03125 -0.03125 -0.0625 -0.078125q-0.03125 -0.0625 -0.046875 -0.140625q-0.015625 -0.078125 -0.015625 -0.171875q0 -0.15625 0.015625 -0.25q0.03125 -0.09375 0.109375 -0.171875q0.09375 -0.078125 0.296875 -0.1875q0.21875 -0.125 0.484375 -0.203125q0.28125 -0.09375 0.59375 -0.15625q0.328125 -0.0625 0.65625 -0.0625q0.625 0 1.046875 0.140625q0.4375 0.140625 0.703125 0.40625q0.265625 0.265625 0.390625 0.671875q0.125 0.40625 0.125 0.9375l0 3.84375zm-1.046875 -2.609375l-0.890625 0q-0.4375 0 -0.765625 0.078125q-0.3125 0.078125 -0.515625 0.21875q-0.203125 0.140625 -0.3125 0.34375q-0.09375 0.1875 -0.09375 0.453125q0 0.453125 0.28125 0.71875q0.28125 0.25 0.796875 0.25q0.40625 0 0.75 -0.203125q0.359375 -0.21875 0.75 -0.640625l0 -1.21875zm4.1654816 2.609375q0 0.046875 -0.03125 0.09375q-0.015625 0.03125 -0.078125 0.0625q-0.046875 0.015625 -0.15625 0.015625q-0.09375 0.015625 -0.265625 0.015625q-0.140625 0 -0.25 -0.015625q-0.09375 0 -0.15625 -0.015625q-0.0625 -0.03125 -0.09375 -0.0625q-0.015625 -0.046875 -0.015625 -0.09375l0 -8.484375q0 -0.046875 0.015625 -0.078125q0.03125 -0.046875 0.09375 -0.0625q0.0625 -0.03125 0.15625 -0.046875q0.109375 -0.015625 0.25 -0.015625q0.171875 0 0.265625 0.015625q0.109375 0.015625 0.15625 0.046875q0.0625 0.015625 0.078125 0.0625q0.03125 0.03125 0.03125 0.078125l0 8.484375zm6.9024506 0q0 0.046875 -0.015625 0.09375q-0.015625 0.03125 -0.078125 0.0625q-0.0625 0.015625 -0.15625 0.015625q-0.09375 0.015625 -0.21875 0.015625q-0.140625 0 -0.234375 -0.015625q-0.09375 0 -0.15625 -0.015625q-0.046875 -0.03125 -0.078125 -0.0625q-0.015625 -0.046875 -0.015625 -0.09375l0 -0.765625q-0.484375 0.546875 -0.96875 0.796875q-0.46875 0.25 -0.953125 0.25q-0.578125 0 -0.96875 -0.1875q-0.390625 -0.203125 -0.625 -0.53125q-0.234375 -0.328125 -0.34375 -0.75q-0.109375 -0.4375 -0.109375 -1.0625l0 -3.46875q0 -0.046875 0.015625 -0.078125q0.03125 -0.046875 0.09375 -0.0625q0.0625 -0.03125 0.15625 -0.03125q0.109375 -0.015625 0.265625 -0.015625q0.15625 0 0.25 0.015625q0.109375 0 0.15625 0.03125q0.0625 0.015625 0.09375 0.0625q0.03125 0.03125 0.03125 0.078125l0 3.328125q0 0.5 0.0625 0.8125q0.078125 0.296875 0.21875 0.515625q0.15625 0.203125 0.375 0.328125q0.234375 0.109375 0.546875 0.109375q0.390625 0 0.78125 -0.28125q0.390625 -0.28125 0.828125 -0.8125l0 -4.0q0 -0.046875 0.015625 -0.078125q0.03125 -0.046875 0.09375 -0.0625q0.0625 -0.03125 0.15625 -0.03125q0.109375 -0.015625 0.265625 -0.015625q0.140625 0 0.234375 0.015625q0.109375 0 0.171875 0.03125q0.0625 0.015625 0.078125 0.0625q0.03125 0.03125 0.03125 0.078125l0 5.71875zm6.986847 -3.109375q0 0.25 -0.125 0.359375q-0.125 0.09375 -0.28125 0.09375l-3.75 0q0 0.484375 0.09375 0.875q0.109375 0.375 0.328125 0.65625q0.21875 0.265625 0.578125 0.40625q0.359375 0.140625 0.875 0.140625q0.40625 0 0.71875 -0.0625q0.3125 -0.0625 0.546875 -0.140625q0.234375 -0.09375 0.375 -0.15625q0.15625 -0.0625 0.234375 -0.0625q0.046875 0 0.078125 0.015625q0.03125 0.015625 0.046875 0.0625q0.03125 0.046875 0.03125 0.125q0.015625 0.078125 0.015625 0.203125q0 0.078125 -0.015625 0.140625q0 0.0625 -0.015625 0.109375q0 0.046875 -0.03125 0.09375q-0.015625 0.03125 -0.0625 0.0625q-0.03125 0.03125 -0.203125 0.109375q-0.171875 0.078125 -0.4375 0.15625q-0.265625 0.078125 -0.625 0.140625q-0.359375 0.0625 -0.765625 0.0625q-0.703125 0 -1.234375 -0.1875q-0.53125 -0.203125 -0.90625 -0.59375q-0.359375 -0.390625 -0.546875 -0.96875q-0.171875 -0.59375 -0.171875 -1.359375q0 -0.734375 0.1875 -1.328125q0.1875 -0.59375 0.546875 -1.0q0.359375 -0.40625 0.859375 -0.625q0.515625 -0.21875 1.140625 -0.21875q0.671875 0 1.140625 0.21875q0.484375 0.21875 0.78125 0.578125q0.3125 0.359375 0.453125 0.859375q0.140625 0.484375 0.140625 1.046875l0 0.1875zm-1.046875 -0.3125q0.015625 -0.828125 -0.375 -1.296875q-0.375 -0.46875 -1.140625 -0.46875q-0.375 0 -0.671875 0.15625q-0.296875 0.140625 -0.5 0.390625q-0.1875 0.234375 -0.296875 0.5625q-0.109375 0.3125 -0.125 0.65625l3.109375 0zm10.738434 3.140625q0 0.125 -0.03125 0.21875q-0.015625 0.078125 -0.046875 0.125q-0.03125 0.046875 -0.078125 0.078125q-0.03125 0.015625 -0.078125 0.015625l-4.296875 0q-0.03125 0 -0.078125 -0.015625q-0.03125 -0.03125 -0.078125 -0.078125q-0.03125 -0.046875 -0.046875 -0.125q-0.015625 -0.09375 -0.015625 -0.21875q0 -0.109375 0.015625 -0.1875q0.015625 -0.09375 0.046875 -0.140625q0.03125 -0.046875 0.0625 -0.078125q0.046875 -0.03125 0.09375 -0.03125l1.71875 0l0 -6.25l-1.59375 0.953125q-0.109375 0.0625 -0.1875 0.078125q-0.078125 0 -0.125 -0.03125q-0.03125 -0.046875 -0.046875 -0.140625q-0.015625 -0.09375 -0.015625 -0.234375q0 -0.109375 0 -0.1875q0.015625 -0.078125 0.03125 -0.125q0.015625 -0.0625 0.046875 -0.09375q0.046875 -0.03125 0.09375 -0.078125l1.90625 -1.203125q0.015625 -0.03125 0.046875 -0.03125q0.046875 -0.015625 0.09375 -0.03125q0.0625 -0.015625 0.140625 -0.015625q0.078125 0 0.1875 0q0.15625 0 0.25 0.015625q0.109375 0 0.15625 0.03125q0.0625 0.015625 0.078125 0.0625q0.03125 0.03125 0.03125 0.0625l0 7.21875l1.484375 0q0.046875 0 0.09375 0.03125q0.046875 0.03125 0.078125 0.078125q0.03125 0.046875 0.046875 0.140625q0.015625 0.078125 0.015625 0.1875zm3.2239227 -7.921875q0 0.1875 -0.03125 0.359375q-0.015625 0.15625 -0.0625 0.3125q-0.03125 0.140625 -0.109375 0.28125q-0.078125 0.140625 -0.1875 0.296875l-0.859375 1.3125q-0.03125 0.046875 -0.078125 0.078125q-0.046875 0.03125 -0.109375 0.0625q-0.046875 0.015625 -0.125 0.03125q-0.078125 0 -0.203125 0q-0.109375 0 -0.1875 0q-0.0625 -0.015625 -0.109375 -0.03125q-0.03125 -0.03125 -0.03125 -0.0625q0 -0.03125 0.03125 -0.09375l0.84375 -1.75l0 -0.796875q0 -0.171875 0.03125 -0.265625q0.03125 -0.109375 0.109375 -0.15625q0.078125 -0.0625 0.1875 -0.078125q0.125 -0.03125 0.28125 -0.03125q0.15625 0 0.265625 0.03125q0.125 0.015625 0.1875 0.078125q0.078125 0.046875 0.109375 0.15625q0.046875 0.09375 0.046875 0.265625z" fill-rule="nonzero"></path><path fill="#cfe2f3" d="m417.26263 87.06094l0 0c0 -15.898842 13.339813 -28.787403 29.795288 -28.787403l0 0c7.902191 0 15.480743 3.0329514 21.06842 8.431637c5.5877075 5.3986816 8.726837 12.720871 8.726837 20.355766l0 0c0 15.898842 -13.339783 28.7874 -29.795258 28.7874l0 0c-16.455475 0 -29.795288 -12.888557 -29.795288 -28.7874z" fill-rule="nonzero"></path><path stroke="#000000" stroke-width="1.0" stroke-linejoin="round" stroke-linecap="butt" d="m417.26263 87.06094l0 0c0 -15.898842 13.339813 -28.787403 29.795288 -28.787403l0 0c7.902191 0 15.480743 3.0329514 21.06842 8.431637c5.5877075 5.3986816 8.726837 12.720871 8.726837 20.355766l0 0c0 15.898842 -13.339783 28.7874 -29.795258 28.7874l0 0c-16.455475 0 -29.795288 -12.888557 -29.795288 -28.7874z" fill-rule="nonzero"></path><path fill="#000000" d="m445.0176 96.21532q-0.046875 0.125 -0.109375 0.1875q-0.046875 0.078125 -0.140625 0.109375q-0.09375 0.03125 -0.234375 0.046875q-0.125 0.03125 -0.328125 0.03125q-0.234375 0 -0.390625 -0.03125q-0.140625 -0.03125 -0.234375 -0.09375q-0.078125 -0.0625 -0.09375 -0.15625q-0.015625 -0.078125 0.03125 -0.203125l5.609375 -15.390625q0.046875 -0.125 0.09375 -0.1875q0.0625 -0.078125 0.15625 -0.109375q0.09375 -0.046875 0.234375 -0.0625q0.140625 -0.015625 0.328125 -0.015625q0.234375 0 0.375 0.03125q0.15625 0.03125 0.234375 0.09375q0.09375 0.046875 0.109375 0.140625q0.015625 0.09375 -0.03125 0.21875l-5.609375 15.390625z" fill-rule="nonzero"></path><path fill="#cfe2f3" d="m366.38974 179.8044l0 0c0 -15.8988495 13.339783 -28.7874 29.795258 -28.7874l0 0c7.9022217 0 15.480743 3.0329437 21.06845 8.431625c5.5877075 5.398697 8.726837 12.720871 8.726837 20.355774l0 0c0 15.898834 -13.339783 28.7874 -29.795288 28.7874l0 0c-16.455475 0 -29.795258 -12.888565 -29.795258 -28.7874z" fill-rule="nonzero"></path><path stroke="#000000" stroke-width="1.0" stroke-linejoin="round" stroke-linecap="butt" d="m366.38974 179.8044l0 0c0 -15.8988495 13.339783 -28.7874 29.795258 -28.7874l0 0c7.9022217 0 15.480743 3.0329437 21.06845 8.431625c5.5877075 5.398697 8.726837 12.720871 8.726837 20.355774l0 0c0 15.898834 -13.339783 28.7874 -29.795288 28.7874l0 0c-16.455475 0 -29.795258 -12.888565 -29.795258 -28.7874z" fill-rule="nonzero"></path><path fill="#000000" d="m399.41992 186.50565q0 0.109375 -0.078125 0.171875q-0.0625 0.046875 -0.203125 0.078125q-0.125 0.03125 -0.375 0.03125q-0.234375 0 -0.390625 -0.03125q-0.140625 -0.03125 -0.203125 -0.078125q-0.0625 -0.0625 -0.0625 -0.171875l0 -0.84375q-0.546875 0.59375 -1.21875 0.921875q-0.671875 0.3125 -1.421875 0.3125q-0.65625 0 -1.203125 -0.171875q-0.53125 -0.171875 -0.90625 -0.484375q-0.375 -0.328125 -0.578125 -0.796875q-0.203125 -0.484375 -0.203125 -1.078125q0 -0.71875 0.28125 -1.234375q0.28125 -0.515625 0.8125 -0.859375q0.546875 -0.34375 1.328125 -0.515625q0.78125 -0.171875 1.75 -0.171875l1.15625 0l0 -0.65625q0 -0.46875 -0.109375 -0.84375q-0.09375 -0.375 -0.328125 -0.609375q-0.21875 -0.25 -0.578125 -0.375q-0.359375 -0.125 -0.890625 -0.125q-0.5625 0 -1.015625 0.140625q-0.453125 0.125 -0.796875 0.296875q-0.328125 0.15625 -0.5625 0.296875q-0.234375 0.125 -0.34375 0.125q-0.0625 0 -0.125 -0.03125q-0.0625 -0.046875 -0.109375 -0.109375q-0.03125 -0.078125 -0.046875 -0.1875q-0.015625 -0.125 -0.015625 -0.265625q0 -0.234375 0.03125 -0.359375q0.03125 -0.140625 0.15625 -0.265625q0.125 -0.125 0.421875 -0.28125q0.3125 -0.15625 0.703125 -0.296875q0.40625 -0.140625 0.875 -0.21875q0.484375 -0.09375 0.96875 -0.09375q0.890625 0 1.515625 0.203125q0.640625 0.203125 1.03125 0.609375q0.390625 0.390625 0.5625 0.96875q0.171875 0.578125 0.171875 1.359375l0 5.640625zm-1.515625 -3.8125l-1.3125 0q-0.625 0 -1.09375 0.109375q-0.453125 0.09375 -0.765625 0.3125q-0.3125 0.203125 -0.453125 0.5q-0.140625 0.28125 -0.140625 0.671875q0 0.640625 0.40625 1.03125q0.421875 0.390625 1.15625 0.390625q0.609375 0 1.125 -0.3125q0.515625 -0.3125 1.078125 -0.9375l0 -1.765625z" fill-rule="nonzero"></path><path fill="#000000" fill-opacity="0.0" d="m425.98947 107.41671l-29.795288 43.590553" fill-rule="nonzero"></path><path stroke="#000000" stroke-width="1.0" stroke-linejoin="round" stroke-linecap="butt" d="m425.98947 107.41671l-26.409515 38.637123" fill-rule="evenodd"></path><path fill="#000000" stroke="#000000" stroke-width="1.0" stroke-linecap="butt" d="m398.21637 145.12177l-1.1972351 4.678589l3.924469 -2.8144531z" fill-rule="evenodd"></path><path fill="#4a86e8" d="m325.5036 139.94423l63.08661 0l0 26.929138l-63.08661 0z" fill-rule="nonzero"></path><path stroke="#000000" stroke-width="1.0" stroke-linejoin="round" stroke-linecap="butt" d="m325.5036 139.94423l63.08661 0l0 26.929138l-63.08661 0z" fill-rule="nonzero"></path><path fill="#000000" d="m342.9346 157.75693q-0.03125 0.0625 -0.078125 0.109375q-0.03125 0.03125 -0.109375 0.0625q-0.0625 0.015625 -0.1875 0.015625q-0.109375 0.015625 -0.28125 0.015625q-0.125 0 -0.234375 0q-0.09375 0 -0.171875 -0.015625q-0.0625 -0.015625 -0.109375 -0.03125q-0.046875 -0.015625 -0.078125 -0.03125q-0.03125 -0.03125 -0.0625 -0.0625q-0.015625 -0.03125 -0.03125 -0.078125l-2.484375 -7.03125q-0.046875 -0.140625 -0.046875 -0.21875q0 -0.078125 0.046875 -0.109375q0.0625 -0.046875 0.171875 -0.0625q0.125 -0.015625 0.3125 -0.015625q0.171875 0 0.265625 0.015625q0.09375 0.015625 0.140625 0.046875q0.0625 0.015625 0.078125 0.046875q0.03125 0.03125 0.0625 0.09375l2.171875 6.390625l0 0l2.125 -6.375q0.015625 -0.0625 0.03125 -0.09375q0.03125 -0.046875 0.078125 -0.0625q0.0625 -0.03125 0.171875 -0.046875q0.109375 -0.015625 0.28125 -0.015625q0.1875 0 0.28125 0.015625q0.109375 0.015625 0.140625 0.0625q0.046875 0.046875 0.03125 0.125q0 0.078125 -0.046875 0.203125l-2.46875 7.046875zm7.6054688 0.03125q0 0.0625 -0.046875 0.109375q-0.046875 0.03125 -0.140625 0.046875q-0.078125 0.015625 -0.234375 0.015625q-0.15625 0 -0.25 -0.015625q-0.078125 -0.015625 -0.125 -0.046875q-0.046875 -0.046875 -0.046875 -0.109375l0 -0.53125q-0.34375 0.375 -0.765625 0.578125q-0.421875 0.203125 -0.890625 0.203125q-0.421875 0 -0.765625 -0.109375q-0.328125 -0.109375 -0.578125 -0.3125q-0.234375 -0.203125 -0.359375 -0.5q-0.125 -0.296875 -0.125 -0.6875q0 -0.4375 0.171875 -0.765625q0.1875 -0.328125 0.515625 -0.546875q0.34375 -0.21875 0.828125 -0.328125q0.5 -0.109375 1.125 -0.109375l0.71875 0l0 -0.40625q0 -0.3125 -0.0625 -0.546875q-0.0625 -0.234375 -0.203125 -0.375q-0.140625 -0.15625 -0.375 -0.234375q-0.234375 -0.09375 -0.5625 -0.09375q-0.359375 0 -0.640625 0.09375q-0.28125 0.078125 -0.5 0.1875q-0.21875 0.09375 -0.359375 0.1875q-0.140625 0.078125 -0.21875 0.078125q-0.046875 0 -0.078125 -0.015625q-0.03125 -0.03125 -0.0625 -0.078125q-0.015625 -0.046875 -0.03125 -0.109375q-0.015625 -0.078125 -0.015625 -0.171875q0 -0.140625 0.015625 -0.21875q0.03125 -0.09375 0.109375 -0.171875q0.078125 -0.078125 0.265625 -0.171875q0.203125 -0.109375 0.453125 -0.1875q0.25 -0.09375 0.546875 -0.140625q0.296875 -0.0625 0.609375 -0.0625q0.5625 0 0.953125 0.140625q0.40625 0.125 0.640625 0.375q0.25 0.25 0.359375 0.625q0.125 0.359375 0.125 0.84375l0 3.5625zm-0.96875 -2.40625l-0.828125 0q-0.390625 0 -0.6875 0.0625q-0.296875 0.0625 -0.484375 0.203125q-0.1875 0.125 -0.28125 0.3125q-0.09375 0.1875 -0.09375 0.421875q0 0.421875 0.25 0.671875q0.265625 0.234375 0.734375 0.234375q0.390625 0 0.703125 -0.1875q0.328125 -0.203125 0.6875 -0.609375l0 -1.109375zm3.7011719 2.40625q0 0.046875 -0.03125 0.078125q-0.015625 0.03125 -0.0625 0.0625q-0.046875 0.015625 -0.140625 0.015625q-0.09375 0.015625 -0.25 0.015625q-0.140625 0 -0.234375 -0.015625q-0.09375 0 -0.15625 -0.015625q-0.046875 -0.03125 -0.078125 -0.0625q-0.015625 -0.03125 -0.015625 -0.078125l0 -7.828125q0 -0.046875 0.015625 -0.078125q0.03125 -0.046875 0.078125 -0.0625q0.0625 -0.03125 0.15625 -0.03125q0.09375 -0.015625 0.234375 -0.015625q0.15625 0 0.25 0.015625q0.09375 0 0.140625 0.03125q0.046875 0.015625 0.0625 0.0625q0.03125 0.03125 0.03125 0.078125l0 7.828125zm6.3164062 0q0 0.046875 -0.03125 0.078125q-0.015625 0.03125 -0.078125 0.0625q-0.046875 0.015625 -0.140625 0.015625q-0.078125 0.015625 -0.203125 0.015625q-0.125 0 -0.21875 -0.015625q-0.078125 0 -0.125 -0.015625q-0.046875 -0.03125 -0.078125 -0.0625q-0.015625 -0.03125 -0.015625 -0.078125l0 -0.703125q-0.453125 0.5 -0.890625 0.734375q-0.4375 0.21875 -0.890625 0.21875q-0.515625 0 -0.890625 -0.171875q-0.359375 -0.171875 -0.578125 -0.46875q-0.21875 -0.3125 -0.3125 -0.703125q-0.09375 -0.40625 -0.09375 -0.984375l0 -3.203125q0 -0.046875 0.015625 -0.078125q0.015625 -0.03125 0.078125 -0.046875q0.0625 -0.03125 0.15625 -0.046875q0.09375 -0.015625 0.234375 -0.015625q0.140625 0 0.234375 0.015625q0.09375 0.015625 0.140625 0.046875q0.0625 0.015625 0.078125 0.046875q0.03125 0.03125 0.03125 0.078125l0 3.078125q0 0.453125 0.0625 0.734375q0.0625 0.28125 0.203125 0.484375q0.140625 0.1875 0.34375 0.296875q0.21875 0.109375 0.5 0.109375q0.359375 0 0.71875 -0.25q0.359375 -0.265625 0.765625 -0.765625l0 -3.6875q0 -0.046875 0.015625 -0.078125q0.03125 -0.03125 0.078125 -0.046875q0.0625 -0.03125 0.15625 -0.046875q0.09375 -0.015625 0.234375 -0.015625q0.140625 0 0.234375 0.015625q0.09375 0.015625 0.140625 0.046875q0.0625 0.015625 0.09375 0.046875q0.03125 0.03125 0.03125 0.078125l0 5.28125zm6.2734375 -2.875q0 0.234375 -0.109375 0.328125q-0.109375 0.09375 -0.265625 0.09375l-3.453125 0q0 0.4375 0.078125 0.796875q0.09375 0.34375 0.296875 0.609375q0.21875 0.25 0.546875 0.390625q0.328125 0.125 0.796875 0.125q0.375 0 0.671875 -0.0625q0.296875 -0.0625 0.5 -0.140625q0.21875 -0.078125 0.359375 -0.140625q0.140625 -0.0625 0.203125 -0.0625q0.046875 0 0.078125 0.03125q0.03125 0.015625 0.046875 0.0625q0.015625 0.03125 0.015625 0.109375q0.015625 0.078125 0.015625 0.171875q0 0.078125 -0.015625 0.140625q0 0.046875 -0.015625 0.09375q0 0.046875 -0.015625 0.078125q-0.015625 0.03125 -0.046875 0.078125q-0.03125 0.03125 -0.203125 0.109375q-0.15625 0.0625 -0.40625 0.140625q-0.25 0.0625 -0.578125 0.109375q-0.328125 0.0625 -0.703125 0.0625q-0.65625 0 -1.15625 -0.171875q-0.484375 -0.1875 -0.8125 -0.546875q-0.328125 -0.359375 -0.5 -0.890625q-0.171875 -0.546875 -0.171875 -1.265625q0 -0.671875 0.171875 -1.21875q0.171875 -0.546875 0.5 -0.921875q0.34375 -0.375 0.8125 -0.578125q0.46875 -0.203125 1.046875 -0.203125q0.625 0 1.0625 0.203125q0.4375 0.203125 0.71875 0.546875q0.28125 0.328125 0.40625 0.78125q0.125 0.453125 0.125 0.96875l0 0.171875zm-0.96875 -0.28125q0.015625 -0.765625 -0.34375 -1.1875q-0.34375 -0.4375 -1.046875 -0.4375q-0.359375 0 -0.625 0.140625q-0.265625 0.125 -0.453125 0.34375q-0.171875 0.21875 -0.28125 0.515625q-0.09375 0.296875 -0.109375 0.625l2.859375 0zm9.699219 2.890625q0 0.125 -0.03125 0.203125q-0.015625 0.0625 -0.046875 0.109375q-0.015625 0.046875 -0.0625 0.078125q-0.03125 0.015625 -0.078125 0.015625l-3.953125 0q-0.046875 0 -0.078125 -0.015625q-0.03125 -0.03125 -0.078125 -0.078125q-0.03125 -0.046875 -0.046875 -0.109375q-0.015625 -0.078125 -0.015625 -0.203125q0 -0.09375 0.015625 -0.171875q0.015625 -0.078125 0.046875 -0.125q0.03125 -0.046875 0.0625 -0.078125q0.046875 -0.03125 0.09375 -0.03125l1.578125 0l0 -5.765625l-1.46875 0.875q-0.109375 0.0625 -0.1875 0.078125q-0.0625 0 -0.109375 -0.03125q-0.03125 -0.046875 -0.046875 -0.125q-0.015625 -0.09375 -0.015625 -0.21875q0 -0.109375 0 -0.171875q0.015625 -0.078125 0.03125 -0.125q0.03125 -0.046875 0.0625 -0.078125q0.03125 -0.03125 0.078125 -0.078125l1.75 -1.109375q0.015625 -0.015625 0.046875 -0.03125q0.046875 -0.015625 0.09375 -0.015625q0.0625 -0.015625 0.125 -0.015625q0.078125 -0.015625 0.171875 -0.015625q0.140625 0 0.234375 0.015625q0.09375 0.015625 0.140625 0.03125q0.0625 0.015625 0.078125 0.0625q0.015625 0.03125 0.015625 0.0625l0 6.65625l1.375 0q0.046875 0 0.078125 0.03125q0.046875 0.03125 0.078125 0.078125q0.03125 0.046875 0.046875 0.125q0.015625 0.078125 0.015625 0.171875z" fill-rule="nonzero"></path><path fill="#cfe2f3" d="m468.13553 179.8044l0 0c0 -15.8988495 13.339813 -28.7874 29.795288 -28.7874l0 0c7.902191 0 15.480743 3.0329437 21.06845 8.431625c5.5877075 5.398697 8.726807 12.720871 8.726807 20.355774l0 0c0 15.898834 -13.339783 28.7874 -29.795258 28.7874l0 0c-16.455475 0 -29.795288 -12.888565 -29.795288 -28.7874z" fill-rule="nonzero"></path><path stroke="#000000" stroke-width="1.0" stroke-linejoin="round" stroke-linecap="butt" d="m468.13553 179.8044l0 0c0 -15.8988495 13.339813 -28.7874 29.795288 -28.7874l0 0c7.902191 0 15.480743 3.0329437 21.06845 8.431625c5.5877075 5.398697 8.726807 12.720871 8.726807 20.355774l0 0c0 15.898834 -13.339783 28.7874 -29.795258 28.7874l0 0c-16.455475 0 -29.795288 -12.888565 -29.795288 -28.7874z" fill-rule="nonzero"></path><path fill="#000000" d="m502.12366 182.20877q0 1.078125 -0.234375 1.953125q-0.234375 0.859375 -0.703125 1.484375q-0.453125 0.609375 -1.125 0.9375q-0.65625 0.3125 -1.515625 0.3125q-0.40625 0 -0.75 -0.078125q-0.328125 -0.078125 -0.65625 -0.25q-0.328125 -0.171875 -0.65625 -0.4375q-0.3125 -0.28125 -0.671875 -0.65625l0 1.015625q0 0.078125 -0.046875 0.140625q-0.03125 0.046875 -0.125 0.078125q-0.078125 0.03125 -0.203125 0.046875q-0.125 0.03125 -0.3125 0.03125q-0.1875 0 -0.328125 -0.03125q-0.125 -0.015625 -0.21875 -0.046875q-0.078125 -0.03125 -0.109375 -0.078125q-0.015625 -0.0625 -0.015625 -0.140625l0 -12.390625q0 -0.078125 0.03125 -0.125q0.03125 -0.0625 0.109375 -0.09375q0.09375 -0.046875 0.234375 -0.0625q0.15625 -0.015625 0.390625 -0.015625q0.21875 0 0.359375 0.015625q0.15625 0.015625 0.234375 0.0625q0.09375 0.03125 0.125 0.09375q0.046875 0.046875 0.046875 0.125l0 5.0q0.375 -0.375 0.71875 -0.640625q0.34375 -0.265625 0.671875 -0.421875q0.34375 -0.15625 0.671875 -0.234375q0.34375 -0.078125 0.703125 -0.078125q0.921875 0 1.5625 0.359375q0.640625 0.359375 1.046875 0.96875q0.40625 0.609375 0.578125 1.4375q0.1875 0.8125 0.1875 1.71875zm-1.609375 0.171875q0 -0.640625 -0.09375 -1.234375q-0.09375 -0.609375 -0.34375 -1.0625q-0.234375 -0.46875 -0.640625 -0.75q-0.390625 -0.296875 -0.984375 -0.296875q-0.296875 0 -0.59375 0.09375q-0.28125 0.078125 -0.578125 0.28125q-0.296875 0.1875 -0.625 0.5q-0.3125 0.296875 -0.671875 0.765625l0 3.328125q0.625 0.765625 1.203125 1.171875q0.578125 0.40625 1.203125 0.40625q0.5625 0 0.96875 -0.28125q0.421875 -0.28125 0.671875 -0.734375q0.25 -0.453125 0.359375 -1.015625q0.125 -0.578125 0.125 -1.171875z" fill-rule="nonzero"></path><path fill="#cfe2f3" d="m519.0084 272.44852l0 0c0 -15.898834 13.339844 -28.7874 29.795288 -28.7874l0 0c7.9022217 0 15.480774 3.032959 21.06842 8.431641c5.5877075 5.398697 8.726868 12.720871 8.726868 20.355759l0 0c0 15.898834 -13.339783 28.787415 -29.795288 28.787415l0 0c-16.455444 0 -29.795288 -12.88858 -29.795288 -28.787415z" fill-rule="nonzero"></path><path stroke="#000000" stroke-width="1.0" stroke-linejoin="round" stroke-linecap="butt" d="m519.0084 272.44852l0 0c0 -15.898834 13.339844 -28.7874 29.795288 -28.7874l0 0c7.9022217 0 15.480774 3.032959 21.06842 8.431641c5.5877075 5.398697 8.726868 12.720871 8.726868 20.355759l0 0c0 15.898834 -13.339783 28.787415 -29.795288 28.787415l0 0c-16.455444 0 -29.795288 -12.88858 -29.795288 -28.787415z" fill-rule="nonzero"></path><path fill="#000000" d="m552.2812 277.86853q0 0.15625 -0.015625 0.28125q0 0.109375 -0.03125 0.1875q-0.015625 0.078125 -0.046875 0.140625q-0.03125 0.0625 -0.15625 0.171875q-0.109375 0.109375 -0.390625 0.28125q-0.28125 0.171875 -0.625 0.3125q-0.34375 0.140625 -0.765625 0.21875q-0.40625 0.078125 -0.828125 0.078125q-0.90625 0 -1.609375 -0.296875q-0.6875 -0.296875 -1.15625 -0.859375q-0.46875 -0.578125 -0.71875 -1.40625q-0.25 -0.828125 -0.25 -1.921875q0 -1.21875 0.296875 -2.109375q0.3125 -0.890625 0.828125 -1.453125q0.53125 -0.5625 1.234375 -0.828125q0.71875 -0.28125 1.546875 -0.28125q0.390625 0 0.765625 0.078125q0.375 0.0625 0.6875 0.1875q0.328125 0.125 0.5625 0.28125q0.25 0.15625 0.359375 0.265625q0.125 0.109375 0.15625 0.171875q0.046875 0.0625 0.0625 0.15625q0.03125 0.09375 0.046875 0.203125q0.015625 0.109375 0.015625 0.28125q0 0.359375 -0.09375 0.5q-0.078125 0.140625 -0.203125 0.140625q-0.140625 0 -0.328125 -0.140625q-0.171875 -0.15625 -0.453125 -0.34375q-0.265625 -0.1875 -0.671875 -0.34375q-0.390625 -0.15625 -0.921875 -0.15625q-1.109375 0 -1.703125 0.859375q-0.578125 0.84375 -0.578125 2.453125q0 0.8125 0.140625 1.421875q0.15625 0.609375 0.453125 1.015625q0.296875 0.40625 0.71875 0.609375q0.4375 0.1875 1.0 0.1875q0.53125 0 0.921875 -0.15625q0.40625 -0.171875 0.6875 -0.375q0.296875 -0.203125 0.5 -0.359375q0.203125 -0.15625 0.3125 -0.15625q0.0625 0 0.109375 0.03125q0.046875 0.03125 0.078125 0.125q0.03125 0.09375 0.046875 0.234375q0.015625 0.125 0.015625 0.3125z" fill-rule="nonzero"></path><path fill="#000000" fill-opacity="0.0" d="m468.13553 107.426445l29.795288 43.590553" fill-rule="nonzero"></path><path stroke="#000000" stroke-width="1.0" stroke-linejoin="round" stroke-linecap="butt" d="m468.13553 107.426445l26.409515 38.63714" fill-rule="evenodd"></path><path fill="#000000" stroke="#000000" stroke-width="1.0" stroke-linecap="butt" d="m493.1814 146.99565l3.924469 2.8144379l-1.1972351 -4.678589z" fill-rule="evenodd"></path><path fill="#000000" fill-opacity="0.0" d="m518.99927 200.16016l29.795288 43.496063" fill-rule="nonzero"></path><path stroke="#000000" stroke-width="1.0" stroke-linejoin="round" stroke-linecap="butt" d="m518.99927 200.16017l26.40448 38.546066" fill-rule="evenodd"></path><path fill="#000000" stroke="#000000" stroke-width="1.0" stroke-linecap="butt" d="m544.0411 239.63968l3.9273071 2.8104858l-1.2019653 -4.6773834z" fill-rule="evenodd"></path><path fill="#4a86e8" d="m558.0303 233.69336l63.08661 0l0 26.929138l-63.08661 0z" fill-rule="nonzero"></path><path stroke="#000000" stroke-width="1.0" stroke-linejoin="round" stroke-linecap="butt" d="m558.0303 233.69336l63.08661 0l0 26.929138l-63.08661 0z" fill-rule="nonzero"></path><path fill="#000000" d="m575.4613 251.50604q-0.03125 0.0625 -0.078125 0.109375q-0.03125 0.03125 -0.109375 0.0625q-0.0625 0.015625 -0.1875 0.015625q-0.109375 0.015625 -0.28125 0.015625q-0.125 0 -0.234375 0q-0.09375 0 -0.171875 -0.015625q-0.0625 -0.015625 -0.109375 -0.03125q-0.046875 -0.015625 -0.078125 -0.03125q-0.03125 -0.03125 -0.0625 -0.0625q-0.015625 -0.03125 -0.03125 -0.078125l-2.484375 -7.03125q-0.046875 -0.140625 -0.046875 -0.21875q0 -0.078125 0.046875 -0.109375q0.0625 -0.046875 0.171875 -0.0625q0.125 -0.015625 0.3125 -0.015625q0.171875 0 0.265625 0.015625q0.09375 0.015625 0.140625 0.046875q0.0625 0.015625 0.078125 0.046875q0.03125 0.03125 0.0625 0.09375l2.171875 6.390625l0 0l2.125 -6.375q0.015625 -0.0625 0.03125 -0.09375q0.03125 -0.046875 0.078125 -0.0625q0.0625 -0.03125 0.171875 -0.046875q0.109375 -0.015625 0.28125 -0.015625q0.1875 0 0.28125 0.015625q0.109375 0.015625 0.140625 0.0625q0.046875 0.046875 0.03125 0.125q0 0.078125 -0.046875 0.203125l-2.46875 7.046875zm7.6054688 0.03125q0 0.0625 -0.046875 0.109375q-0.046875 0.03125 -0.140625 0.046875q-0.078125 0.015625 -0.234375 0.015625q-0.15625 0 -0.25 -0.015625q-0.078125 -0.015625 -0.125 -0.046875q-0.046875 -0.046875 -0.046875 -0.109375l0 -0.53125q-0.34375 0.375 -0.765625 0.578125q-0.421875 0.203125 -0.890625 0.203125q-0.421875 0 -0.765625 -0.109375q-0.328125 -0.109375 -0.578125 -0.3125q-0.234375 -0.203125 -0.359375 -0.5q-0.125 -0.296875 -0.125 -0.6875q0 -0.4375 0.171875 -0.765625q0.1875 -0.328125 0.515625 -0.546875q0.34375 -0.21875 0.828125 -0.328125q0.5 -0.109375 1.125 -0.109375l0.71875 0l0 -0.40625q0 -0.3125 -0.0625 -0.546875q-0.0625 -0.234375 -0.203125 -0.375q-0.140625 -0.15625 -0.375 -0.234375q-0.234375 -0.09375 -0.5625 -0.09375q-0.359375 0 -0.640625 0.09375q-0.28125 0.078125 -0.5 0.1875q-0.21875 0.09375 -0.359375 0.1875q-0.140625 0.078125 -0.21875 0.078125q-0.046875 0 -0.078125 -0.015625q-0.03125 -0.03125 -0.0625 -0.078125q-0.015625 -0.046875 -0.03125 -0.109375q-0.015625 -0.078125 -0.015625 -0.171875q0 -0.140625 0.015625 -0.21875q0.03125 -0.09375 0.109375 -0.171875q0.078125 -0.078125 0.265625 -0.171875q0.203125 -0.109375 0.453125 -0.1875q0.25 -0.09375 0.546875 -0.140625q0.296875 -0.0625 0.609375 -0.0625q0.5625 0 0.953125 0.140625q0.40625 0.125 0.640625 0.375q0.25 0.25 0.359375 0.625q0.125 0.359375 0.125 0.84375l0 3.5625zm-0.96875 -2.40625l-0.828125 0q-0.390625 0 -0.6875 0.0625q-0.296875 0.0625 -0.484375 0.203125q-0.1875 0.125 -0.28125 0.3125q-0.09375 0.1875 -0.09375 0.421875q0 0.421875 0.25 0.671875q0.265625 0.234375 0.734375 0.234375q0.390625 0 0.703125 -0.1875q0.328125 -0.203125 0.6875 -0.609375l0 -1.109375zm3.7011719 2.40625q0 0.046875 -0.03125 0.078125q-0.015625 0.03125 -0.0625 0.0625q-0.046875 0.015625 -0.140625 0.015625q-0.09375 0.015625 -0.25 0.015625q-0.140625 0 -0.234375 -0.015625q-0.09375 0 -0.15625 -0.015625q-0.046875 -0.03125 -0.078125 -0.0625q-0.015625 -0.03125 -0.015625 -0.078125l0 -7.828125q0 -0.046875 0.015625 -0.078125q0.03125 -0.046875 0.078125 -0.0625q0.0625 -0.03125 0.15625 -0.03125q0.09375 -0.015625 0.234375 -0.015625q0.15625 0 0.25 0.015625q0.09375 0 0.140625 0.03125q0.046875 0.015625 0.0625 0.0625q0.03125 0.03125 0.03125 0.078125l0 7.828125zm6.3164062 0q0 0.046875 -0.03125 0.078125q-0.015625 0.03125 -0.078125 0.0625q-0.046875 0.015625 -0.140625 0.015625q-0.078125 0.015625 -0.203125 0.015625q-0.125 0 -0.21875 -0.015625q-0.078125 0 -0.125 -0.015625q-0.046875 -0.03125 -0.078125 -0.0625q-0.015625 -0.03125 -0.015625 -0.078125l0 -0.703125q-0.453125 0.5 -0.890625 0.734375q-0.4375 0.21875 -0.890625 0.21875q-0.515625 0 -0.890625 -0.171875q-0.359375 -0.171875 -0.578125 -0.46875q-0.21875 -0.3125 -0.3125 -0.703125q-0.09375 -0.40625 -0.09375 -0.984375l0 -3.203125q0 -0.046875 0.015625 -0.078125q0.015625 -0.03125 0.078125 -0.046875q0.0625 -0.03125 0.15625 -0.046875q0.09375 -0.015625 0.234375 -0.015625q0.140625 0 0.234375 0.015625q0.09375 0.015625 0.140625 0.046875q0.0625 0.015625 0.078125 0.046875q0.03125 0.03125 0.03125 0.078125l0 3.078125q0 0.453125 0.0625 0.734375q0.0625 0.28125 0.203125 0.484375q0.140625 0.1875 0.34375 0.296875q0.21875 0.109375 0.5 0.109375q0.359375 0 0.71875 -0.25q0.359375 -0.265625 0.765625 -0.765625l0 -3.6875q0 -0.046875 0.015625 -0.078125q0.03125 -0.03125 0.078125 -0.046875q0.0625 -0.03125 0.15625 -0.046875q0.09375 -0.015625 0.234375 -0.015625q0.140625 0 0.234375 0.015625q0.09375 0.015625 0.140625 0.046875q0.0625 0.015625 0.09375 0.046875q0.03125 0.03125 0.03125 0.078125l0 5.28125zm6.2734375 -2.875q0 0.234375 -0.109375 0.328125q-0.109375 0.09375 -0.265625 0.09375l-3.453125 0q0 0.4375 0.078125 0.796875q0.09375 0.34375 0.296875 0.609375q0.21875 0.25 0.546875 0.390625q0.328125 0.125 0.796875 0.125q0.375 0 0.671875 -0.0625q0.296875 -0.0625 0.5 -0.140625q0.21875 -0.078125 0.359375 -0.140625q0.140625 -0.0625 0.203125 -0.0625q0.046875 0 0.078125 0.03125q0.03125 0.015625 0.046875 0.0625q0.015625 0.03125 0.015625 0.109375q0.015625 0.078125 0.015625 0.171875q0 0.078125 -0.015625 0.140625q0 0.046875 -0.015625 0.09375q0 0.046875 -0.015625 0.078125q-0.015625 0.03125 -0.046875 0.078125q-0.03125 0.03125 -0.203125 0.109375q-0.15625 0.0625 -0.40625 0.140625q-0.25 0.0625 -0.578125 0.109375q-0.328125 0.0625 -0.703125 0.0625q-0.65625 0 -1.15625 -0.171875q-0.484375 -0.1875 -0.8125 -0.546875q-0.328125 -0.359375 -0.5 -0.890625q-0.171875 -0.546875 -0.171875 -1.265625q0 -0.671875 0.171875 -1.21875q0.171875 -0.546875 0.5 -0.921875q0.34375 -0.375 0.8125 -0.578125q0.46875 -0.203125 1.046875 -0.203125q0.625 0 1.0625 0.203125q0.4375 0.203125 0.71875 0.546875q0.28125 0.328125 0.40625 0.78125q0.125 0.453125 0.125 0.96875l0 0.171875zm-0.96875 -0.28125q0.015625 -0.765625 -0.34375 -1.1875q-0.34375 -0.4375 -1.046875 -0.4375q-0.359375 0 -0.625 0.140625q-0.265625 0.125 -0.453125 0.34375q-0.171875 0.21875 -0.28125 0.515625q-0.09375 0.296875 -0.109375 0.625l2.859375 0zm9.683594 2.859375q0 0.109375 -0.015625 0.1875q-0.015625 0.078125 -0.046875 0.140625q-0.03125 0.0625 -0.078125 0.09375q-0.03125 0.015625 -0.09375 0.015625l-4.1875 0q-0.078125 0 -0.140625 -0.015625q-0.0625 -0.03125 -0.109375 -0.078125q-0.046875 -0.046875 -0.0625 -0.125q-0.015625 -0.09375 -0.015625 -0.21875q0 -0.125 0 -0.203125q0.015625 -0.09375 0.046875 -0.15625q0.03125 -0.078125 0.0625 -0.140625q0.046875 -0.0625 0.125 -0.140625l1.46875 -1.5625q0.515625 -0.53125 0.8125 -0.953125q0.3125 -0.4375 0.46875 -0.78125q0.171875 -0.359375 0.21875 -0.640625q0.0625 -0.296875 0.0625 -0.546875q0 -0.25 -0.078125 -0.46875q-0.078125 -0.234375 -0.234375 -0.40625q-0.15625 -0.171875 -0.390625 -0.265625q-0.234375 -0.09375 -0.546875 -0.09375q-0.359375 0 -0.640625 0.09375q-0.28125 0.09375 -0.5 0.21875q-0.203125 0.109375 -0.359375 0.21875q-0.140625 0.09375 -0.203125 0.09375q-0.046875 0 -0.078125 -0.015625q-0.03125 -0.03125 -0.0625 -0.078125q-0.015625 -0.0625 -0.03125 -0.140625q0 -0.09375 0 -0.21875q0 -0.078125 0 -0.140625q0.015625 -0.078125 0.015625 -0.125q0.015625 -0.046875 0.03125 -0.078125q0.03125 -0.046875 0.09375 -0.109375q0.078125 -0.0625 0.25 -0.15625q0.1875 -0.109375 0.4375 -0.203125q0.265625 -0.109375 0.578125 -0.171875q0.3125 -0.078125 0.65625 -0.078125q0.546875 0 0.953125 0.15625q0.421875 0.140625 0.6875 0.421875q0.28125 0.265625 0.40625 0.625q0.140625 0.359375 0.140625 0.765625q0 0.359375 -0.0625 0.71875q-0.0625 0.359375 -0.265625 0.78125q-0.203125 0.421875 -0.609375 0.9375q-0.390625 0.5 -1.03125 1.171875l-1.203125 1.25l3.296875 0q0.046875 0 0.09375 0.03125q0.046875 0.03125 0.078125 0.078125q0.03125 0.046875 0.046875 0.125q0.015625 0.078125 0.015625 0.1875z" fill-rule="nonzero"></path><path fill="#f3f3f3" d="m379.53018 312.93176l135.05515 0l0 26.929138l-135.05515 0z" fill-rule="nonzero"></path><path fill="#000000" d="m395.01187 334.55988q0 0.0625 -0.03125 0.109375q-0.015625 0.03125 -0.078125 0.0625q-0.0625 0.015625 -0.171875 0.015625q-0.09375 0.015625 -0.265625 0.015625q-0.171875 0 -0.28125 -0.015625q-0.109375 0 -0.1875 -0.015625q-0.078125 -0.03125 -0.125 -0.0625q-0.046875 -0.046875 -0.078125 -0.109375l-2.421875 -3.15625l0 3.171875q0 0.046875 -0.03125 0.09375q-0.015625 0.03125 -0.078125 0.0625q-0.046875 0.015625 -0.15625 0.015625q-0.09375 0.015625 -0.265625 0.015625q-0.140625 0 -0.25 -0.015625q-0.09375 0 -0.15625 -0.015625q-0.0625 -0.03125 -0.09375 -0.0625q-0.015625 -0.046875 -0.015625 -0.09375l0 -8.484375q0 -0.046875 0.015625 -0.078125q0.03125 -0.046875 0.09375 -0.0625q0.0625 -0.03125 0.15625 -0.046875q0.109375 -0.015625 0.25 -0.015625q0.171875 0 0.265625 0.015625q0.109375 0.015625 0.15625 0.046875q0.0625 0.015625 0.078125 0.0625q0.03125 0.03125 0.03125 0.078125l0 5.171875l2.15625 -2.375q0.0625 -0.0625 0.109375 -0.109375q0.0625 -0.046875 0.140625 -0.0625q0.078125 -0.03125 0.1875 -0.03125q0.109375 -0.015625 0.265625 -0.015625q0.15625 0 0.265625 0.015625q0.109375 0 0.171875 0.03125q0.0625 0.015625 0.09375 0.046875q0.03125 0.03125 0.03125 0.09375q0 0.078125 -0.046875 0.15625q-0.046875 0.0625 -0.140625 0.171875l-2.0625 2.0625l2.328125 3.015625q0.078125 0.109375 0.109375 0.1875q0.03125 0.0625 0.03125 0.109375zm6.261963 0.015625q0 0.046875 -0.015625 0.09375q-0.015625 0.03125 -0.078125 0.0625q-0.046875 0.015625 -0.140625 0.015625q-0.09375 0.015625 -0.21875 0.015625q-0.125 0 -0.21875 -0.015625q-0.09375 0 -0.15625 -0.015625q-0.046875 -0.03125 -0.078125 -0.0625q-0.015625 -0.046875 -0.015625 -0.09375l0 -0.765625q-0.453125 0.5 -0.9375 0.78125q-0.484375 0.265625 -1.0625 0.265625q-0.640625 0 -1.078125 -0.25q-0.4375 -0.25 -0.71875 -0.65625q-0.28125 -0.421875 -0.40625 -0.984375q-0.125 -0.5625 -0.125 -1.1875q0 -0.734375 0.15625 -1.328125q0.15625 -0.59375 0.46875 -1.0q0.3125 -0.421875 0.765625 -0.640625q0.46875 -0.234375 1.078125 -0.234375q0.5 0 0.90625 0.21875q0.421875 0.21875 0.828125 0.640625l0 -3.3125q0 -0.046875 0.015625 -0.078125q0.03125 -0.046875 0.09375 -0.0625q0.0625 -0.03125 0.15625 -0.046875q0.109375 -0.015625 0.25 -0.015625q0.15625 0 0.25 0.015625q0.109375 0.015625 0.171875 0.046875q0.0625 0.015625 0.078125 0.0625q0.03125 0.03125 0.03125 0.078125l0 8.453125zm-1.046875 -4.015625q-0.421875 -0.53125 -0.828125 -0.796875q-0.390625 -0.28125 -0.828125 -0.28125q-0.390625 0 -0.671875 0.1875q-0.28125 0.1875 -0.453125 0.5q-0.171875 0.3125 -0.265625 0.703125q-0.078125 0.390625 -0.078125 0.796875q0 0.4375 0.0625 0.859375q0.078125 0.40625 0.234375 0.734375q0.171875 0.3125 0.4375 0.5q0.28125 0.1875 0.6875 0.1875q0.21875 0 0.40625 -0.046875q0.203125 -0.0625 0.40625 -0.1875q0.203125 -0.140625 0.421875 -0.34375q0.21875 -0.21875 0.46875 -0.53125l0 -2.28125zm8.424347 1.078125q0 0.75 -0.171875 1.34375q-0.15625 0.59375 -0.46875 1.015625q-0.3125 0.40625 -0.78125 0.640625q-0.453125 0.21875 -1.046875 0.21875q-0.265625 0 -0.5 -0.0625q-0.234375 -0.046875 -0.453125 -0.171875q-0.21875 -0.125 -0.453125 -0.296875q-0.21875 -0.1875 -0.46875 -0.453125l0 0.703125q0 0.046875 -0.03125 0.09375q-0.015625 0.03125 -0.078125 0.0625q-0.046875 0.015625 -0.140625 0.015625q-0.078125 0.015625 -0.21875 0.015625q-0.125 0 -0.21875 -0.015625q-0.078125 0 -0.140625 -0.015625q-0.046875 -0.03125 -0.078125 -0.0625q-0.015625 -0.046875 -0.015625 -0.09375l0 -8.484375q0 -0.046875 0.015625 -0.078125q0.03125 -0.046875 0.09375 -0.0625q0.0625 -0.03125 0.15625 -0.046875q0.109375 -0.015625 0.25 -0.015625q0.171875 0 0.265625 0.015625q0.109375 0.015625 0.15625 0.046875q0.0625 0.015625 0.078125 0.0625q0.03125 0.03125 0.03125 0.078125l0 3.421875q0.25 -0.265625 0.484375 -0.4375q0.25 -0.171875 0.46875 -0.28125q0.234375 -0.125 0.453125 -0.171875q0.234375 -0.046875 0.5 -0.046875q0.609375 0 1.046875 0.25q0.453125 0.25 0.71875 0.671875q0.28125 0.40625 0.40625 0.96875q0.140625 0.546875 0.140625 1.171875zm-1.109375 0.125q0 -0.4375 -0.078125 -0.84375q-0.0625 -0.421875 -0.234375 -0.734375q-0.15625 -0.328125 -0.4375 -0.515625q-0.265625 -0.1875 -0.671875 -0.1875q-0.203125 0 -0.40625 0.0625q-0.1875 0.046875 -0.390625 0.1875q-0.203125 0.125 -0.421875 0.34375q-0.21875 0.203125 -0.46875 0.515625l0 2.28125q0.4375 0.53125 0.828125 0.8125q0.390625 0.265625 0.8125 0.265625q0.40625 0 0.671875 -0.1875q0.28125 -0.1875 0.453125 -0.5q0.1875 -0.328125 0.265625 -0.71875q0.078125 -0.390625 0.078125 -0.78125zm9.453125 1.25q0 0.4375 -0.171875 0.78125q-0.15625 0.34375 -0.453125 0.578125q-0.296875 0.234375 -0.71875 0.359375q-0.40625 0.125 -0.90625 0.125q-0.296875 0 -0.578125 -0.046875q-0.28125 -0.046875 -0.5 -0.125q-0.21875 -0.078125 -0.375 -0.15625q-0.140625 -0.078125 -0.21875 -0.140625q-0.0625 -0.0625 -0.09375 -0.171875q-0.03125 -0.125 -0.03125 -0.3125q0 -0.125 0.015625 -0.203125q0.015625 -0.09375 0.03125 -0.140625q0.015625 -0.046875 0.046875 -0.0625q0.03125 -0.03125 0.078125 -0.03125q0.078125 0 0.203125 0.09375q0.140625 0.078125 0.34375 0.1875q0.203125 0.09375 0.46875 0.1875q0.28125 0.078125 0.640625 0.078125q0.265625 0 0.46875 -0.046875q0.21875 -0.0625 0.375 -0.171875q0.171875 -0.109375 0.25 -0.28125q0.078125 -0.171875 0.078125 -0.40625q0 -0.25 -0.125 -0.40625q-0.109375 -0.171875 -0.3125 -0.296875q-0.203125 -0.125 -0.46875 -0.21875q-0.25 -0.109375 -0.515625 -0.21875q-0.265625 -0.109375 -0.53125 -0.234375q-0.25 -0.140625 -0.453125 -0.328125q-0.203125 -0.203125 -0.328125 -0.46875q-0.125 -0.28125 -0.125 -0.671875q0 -0.328125 0.125 -0.640625q0.140625 -0.3125 0.390625 -0.53125q0.265625 -0.234375 0.65625 -0.375q0.390625 -0.140625 0.90625 -0.140625q0.234375 0 0.453125 0.046875q0.234375 0.03125 0.421875 0.09375q0.1875 0.046875 0.3125 0.125q0.125 0.0625 0.1875 0.109375q0.078125 0.046875 0.09375 0.09375q0.03125 0.03125 0.03125 0.078125q0.015625 0.046875 0.015625 0.125q0.015625 0.0625 0.015625 0.171875q0 0.09375 -0.015625 0.1875q0 0.078125 -0.03125 0.125q-0.015625 0.046875 -0.046875 0.078125q-0.03125 0.015625 -0.078125 0.015625q-0.046875 0 -0.15625 -0.0625q-0.109375 -0.078125 -0.28125 -0.15625q-0.171875 -0.078125 -0.40625 -0.140625q-0.234375 -0.078125 -0.53125 -0.078125q-0.265625 0 -0.46875 0.0625q-0.203125 0.0625 -0.328125 0.171875q-0.125 0.109375 -0.203125 0.265625q-0.0625 0.140625 -0.0625 0.328125q0 0.25 0.125 0.421875q0.125 0.15625 0.328125 0.28125q0.203125 0.125 0.46875 0.234375q0.265625 0.09375 0.53125 0.203125q0.265625 0.109375 0.53125 0.25q0.265625 0.125 0.46875 0.328125q0.203125 0.1875 0.328125 0.453125q0.125 0.265625 0.125 0.625zm6.4940796 -1.546875q0 0.25 -0.125 0.359375q-0.125 0.09375 -0.28125 0.09375l-3.75 0q0 0.484375 0.09375 0.875q0.109375 0.375 0.328125 0.65625q0.21875 0.265625 0.578125 0.40625q0.359375 0.140625 0.875 0.140625q0.40625 0 0.71875 -0.0625q0.3125 -0.0625 0.546875 -0.140625q0.234375 -0.09375 0.375 -0.15625q0.15625 -0.0625 0.234375 -0.0625q0.046875 0 0.078125 0.015625q0.03125 0.015625 0.046875 0.0625q0.03125 0.046875 0.03125 0.125q0.015625 0.078125 0.015625 0.203125q0 0.078125 -0.015625 0.140625q0 0.0625 -0.015625 0.109375q0 0.046875 -0.03125 0.09375q-0.015625 0.03125 -0.0625 0.0625q-0.03125 0.03125 -0.203125 0.109375q-0.171875 0.078125 -0.4375 0.15625q-0.265625 0.078125 -0.625 0.140625q-0.359375 0.0625 -0.765625 0.0625q-0.703125 0 -1.234375 -0.1875q-0.53125 -0.203125 -0.90625 -0.59375q-0.359375 -0.390625 -0.546875 -0.96875q-0.171875 -0.59375 -0.171875 -1.359375q0 -0.734375 0.1875 -1.328125q0.1875 -0.59375 0.546875 -1.0q0.359375 -0.40625 0.859375 -0.625q0.515625 -0.21875 1.140625 -0.21875q0.671875 0 1.140625 0.21875q0.484375 0.21875 0.78125 0.578125q0.3125 0.359375 0.453125 0.859375q0.140625 0.484375 0.140625 1.046875l0 0.1875zm-1.046875 -0.3125q0.015625 -0.828125 -0.375 -1.296875q-0.375 -0.46875 -1.140625 -0.46875q-0.375 0 -0.671875 0.15625q-0.296875 0.140625 -0.5 0.390625q-0.1875 0.234375 -0.296875 0.5625q-0.109375 0.3125 -0.125 0.65625l3.109375 0zm5.772156 3.0q0 0.1875 -0.03125 0.296875q-0.015625 0.109375 -0.0625 0.15625q-0.046875 0.046875 -0.15625 0.09375q-0.09375 0.046875 -0.234375 0.0625q-0.125 0.03125 -0.28125 0.046875q-0.140625 0.03125 -0.28125 0.03125q-0.453125 0 -0.765625 -0.109375q-0.3125 -0.125 -0.515625 -0.359375q-0.203125 -0.25 -0.296875 -0.609375q-0.09375 -0.359375 -0.09375 -0.859375l0 -3.34375l-0.796875 0q-0.09375 0 -0.15625 -0.09375q-0.0625 -0.109375 -0.0625 -0.328125q0 -0.125 0.015625 -0.203125q0.015625 -0.09375 0.046875 -0.140625q0.03125 -0.0625 0.0625 -0.078125q0.046875 -0.015625 0.09375 -0.015625l0.796875 0l0 -1.359375q0 -0.046875 0.015625 -0.078125q0.03125 -0.046875 0.09375 -0.078125q0.0625 -0.03125 0.15625 -0.03125q0.109375 -0.015625 0.25 -0.015625q0.15625 0 0.25 0.015625q0.109375 0 0.171875 0.03125q0.0625 0.03125 0.078125 0.078125q0.03125 0.03125 0.03125 0.078125l0 1.359375l1.46875 0q0.046875 0 0.078125 0.015625q0.046875 0.015625 0.078125 0.078125q0.03125 0.046875 0.03125 0.140625q0.015625 0.078125 0.015625 0.203125q0 0.21875 -0.0625 0.328125q-0.046875 0.09375 -0.140625 0.09375l-1.46875 0l0 3.1875q0 0.59375 0.171875 0.90625q0.171875 0.296875 0.625 0.296875q0.15625 0 0.265625 -0.03125q0.109375 -0.03125 0.203125 -0.0625q0.09375 -0.03125 0.15625 -0.0625q0.0625 -0.03125 0.109375 -0.03125q0.03125 0 0.0625 0.015625q0.03125 0.015625 0.046875 0.0625q0.015625 0.046875 0.015625 0.125q0.015625 0.078125 0.015625 0.1875zm4.602539 2.109375q-0.015625 0.078125 -0.0625 0.125q-0.046875 0.046875 -0.109375 0.078125q-0.0625 0.03125 -0.15625 0.03125q-0.09375 0.015625 -0.21875 0.015625q-0.15625 0 -0.265625 -0.03125q-0.109375 -0.015625 -0.171875 -0.0625q-0.046875 -0.03125 -0.0625 -0.09375q-0.015625 -0.0625 0.03125 -0.140625l3.84375 -10.53125q0.015625 -0.078125 0.0625 -0.125q0.046875 -0.046875 0.09375 -0.078125q0.0625 -0.03125 0.15625 -0.03125q0.09375 -0.015625 0.234375 -0.015625q0.15625 0 0.25 0.03125q0.109375 0.015625 0.15625 0.0625q0.0625 0.03125 0.078125 0.09375q0.015625 0.0625 -0.015625 0.140625l-3.84375 10.53125zm10.319611 -4.625q0 0.75 -0.171875 1.34375q-0.15625 0.59375 -0.46875 1.015625q-0.3125 0.40625 -0.78125 0.640625q-0.453125 0.21875 -1.046875 0.21875q-0.265625 0 -0.5 -0.0625q-0.234375 -0.046875 -0.453125 -0.171875q-0.21875 -0.125 -0.453125 -0.296875q-0.21875 -0.1875 -0.46875 -0.453125l0 0.703125q0 0.046875 -0.03125 0.09375q-0.015625 0.03125 -0.078125 0.0625q-0.046875 0.015625 -0.140625 0.015625q-0.078125 0.015625 -0.21875 0.015625q-0.125 0 -0.21875 -0.015625q-0.078125 0 -0.140625 -0.015625q-0.046875 -0.03125 -0.078125 -0.0625q-0.015625 -0.046875 -0.015625 -0.09375l0 -8.484375q0 -0.046875 0.015625 -0.078125q0.03125 -0.046875 0.09375 -0.0625q0.0625 -0.03125 0.15625 -0.046875q0.109375 -0.015625 0.25 -0.015625q0.171875 0 0.265625 0.015625q0.109375 0.015625 0.15625 0.046875q0.0625 0.015625 0.078125 0.0625q0.03125 0.03125 0.03125 0.078125l0 3.421875q0.25 -0.265625 0.484375 -0.4375q0.25 -0.171875 0.46875 -0.28125q0.234375 -0.125 0.453125 -0.171875q0.234375 -0.046875 0.5 -0.046875q0.609375 0 1.046875 0.25q0.453125 0.25 0.71875 0.671875q0.28125 0.40625 0.40625 0.96875q0.140625 0.546875 0.140625 1.171875zm-1.109375 0.125q0 -0.4375 -0.078125 -0.84375q-0.0625 -0.421875 -0.234375 -0.734375q-0.15625 -0.328125 -0.4375 -0.515625q-0.265625 -0.1875 -0.671875 -0.1875q-0.203125 0 -0.40625 0.0625q-0.1875 0.046875 -0.390625 0.1875q-0.203125 0.125 -0.421875 0.34375q-0.21875 0.203125 -0.46875 0.515625l0 2.28125q0.4375 0.53125 0.828125 0.8125q0.390625 0.265625 0.8125 0.265625q0.40625 0 0.671875 -0.1875q0.28125 -0.1875 0.453125 -0.5q0.1875 -0.328125 0.265625 -0.71875q0.078125 -0.390625 0.078125 -0.78125zm2.939972 4.5q-0.015625 0.078125 -0.0625 0.125q-0.046875 0.046875 -0.109375 0.078125q-0.0625 0.03125 -0.15625 0.03125q-0.09375 0.015625 -0.21875 0.015625q-0.15625 0 -0.265625 -0.03125q-0.109375 -0.015625 -0.171875 -0.0625q-0.046875 -0.03125 -0.0625 -0.09375q-0.015625 -0.0625 0.03125 -0.140625l3.84375 -10.53125q0.015625 -0.078125 0.0625 -0.125q0.046875 -0.046875 0.09375 -0.078125q0.0625 -0.03125 0.15625 -0.03125q0.09375 -0.015625 0.234375 -0.015625q0.15625 0 0.25 0.03125q0.109375 0.015625 0.15625 0.0625q0.0625 0.03125 0.078125 0.09375q0.015625 0.0625 -0.015625 0.140625l-3.84375 10.53125zm9.163361 -2.5625q0 0.109375 -0.015625 0.1875q0 0.078125 -0.015625 0.140625q-0.015625 0.046875 -0.046875 0.09375q-0.015625 0.03125 -0.09375 0.125q-0.078125 0.078125 -0.265625 0.203125q-0.1875 0.109375 -0.4375 0.203125q-0.234375 0.078125 -0.515625 0.140625q-0.265625 0.0625 -0.578125 0.0625q-0.609375 0 -1.09375 -0.203125q-0.46875 -0.203125 -0.796875 -0.59375q-0.3125 -0.390625 -0.484375 -0.953125q-0.15625 -0.578125 -0.15625 -1.328125q0 -0.84375 0.203125 -1.4375q0.203125 -0.609375 0.5625 -1.0q0.359375 -0.390625 0.84375 -0.578125q0.484375 -0.1875 1.046875 -0.1875q0.28125 0 0.53125 0.0625q0.265625 0.046875 0.46875 0.125q0.21875 0.078125 0.390625 0.1875q0.171875 0.109375 0.234375 0.1875q0.078125 0.078125 0.109375 0.125q0.03125 0.046875 0.046875 0.109375q0.03125 0.046875 0.03125 0.125q0 0.078125 0 0.1875q0 0.25 -0.0625 0.359375q-0.046875 0.09375 -0.125 0.09375q-0.09375 0 -0.21875 -0.109375q-0.125 -0.109375 -0.328125 -0.234375q-0.1875 -0.125 -0.453125 -0.21875q-0.265625 -0.109375 -0.640625 -0.109375q-0.75 0 -1.15625 0.578125q-0.40625 0.578125 -0.40625 1.6875q0 0.546875 0.109375 0.96875q0.109375 0.40625 0.3125 0.6875q0.203125 0.28125 0.5 0.421875q0.296875 0.140625 0.671875 0.140625q0.359375 0 0.625 -0.109375q0.28125 -0.125 0.484375 -0.25q0.203125 -0.140625 0.328125 -0.25q0.140625 -0.125 0.21875 -0.125q0.046875 0 0.078125 0.03125q0.03125 0.03125 0.046875 0.09375q0.03125 0.046875 0.03125 0.140625q0.015625 0.09375 0.015625 0.21875zm5.680237 -5.90625l0 0.796875q0 0.171875 -0.046875 0.28125q-0.03125 0.09375 -0.109375 0.15625q-0.078125 0.046875 -0.1875 0.0625q-0.109375 0.015625 -0.28125 0.015625q-0.15625 0 -0.265625 -0.015625q-0.109375 -0.015625 -0.1875 -0.0625q-0.078125 -0.0625 -0.109375 -0.15625q-0.03125 -0.109375 -0.03125 -0.28125q0 -0.1875 0.015625 -0.34375q0.015625 -0.171875 0.0625 -0.3125q0.046875 -0.15625 0.109375 -0.296875q0.078125 -0.15625 0.1875 -0.296875l0.875 -1.3125q0.03125 -0.046875 0.0625 -0.078125q0.046875 -0.03125 0.109375 -0.046875q0.0625 -0.03125 0.140625 -0.046875q0.078125 -0.015625 0.1875 -0.015625q0.109375 0 0.1875 0.015625q0.078125 0 0.109375 0.03125q0.03125 0.015625 0.03125 0.0625q0 0.03125 -0.015625 0.078125l-0.84375 1.765625zm5.622406 6.75q-0.015625 0.0625 -0.0625 0.109375q-0.046875 0.046875 -0.125 0.078125q-0.078125 0.015625 -0.203125 0.015625q-0.125 0.015625 -0.3125 0.015625q-0.140625 0 -0.25 0q-0.09375 0 -0.171875 -0.015625q-0.078125 -0.015625 -0.140625 -0.03125q-0.046875 -0.015625 -0.09375 -0.03125q-0.03125 -0.03125 -0.046875 -0.0625q-0.015625 -0.03125 -0.046875 -0.09375l-2.6875 -7.625q-0.046875 -0.140625 -0.046875 -0.21875q0 -0.09375 0.046875 -0.140625q0.0625 -0.046875 0.1875 -0.046875q0.125 -0.015625 0.34375 -0.015625q0.1875 0 0.28125 0.015625q0.109375 0 0.15625 0.03125q0.0625 0.015625 0.09375 0.0625q0.03125 0.046875 0.0625 0.109375l2.34375 6.90625l0.015625 0l2.28125 -6.90625q0.03125 -0.0625 0.046875 -0.109375q0.03125 -0.046875 0.09375 -0.0625q0.0625 -0.03125 0.171875 -0.03125q0.125 -0.015625 0.3125 -0.015625q0.1875 0 0.296875 0.015625q0.125 0.015625 0.15625 0.0625q0.046875 0.046875 0.03125 0.140625q0 0.078125 -0.046875 0.203125l-2.6875 7.640625zm8.437134 0.03125q0 0.078125 -0.0625 0.125q-0.046875 0.03125 -0.140625 0.046875q-0.078125 0.015625 -0.25 0.015625q-0.171875 0 -0.265625 -0.015625q-0.09375 -0.015625 -0.140625 -0.046875q-0.046875 -0.046875 -0.046875 -0.125l0 -0.5625q-0.375 0.390625 -0.84375 0.625q-0.453125 0.21875 -0.96875 0.21875q-0.453125 0 -0.8125 -0.125q-0.359375 -0.109375 -0.625 -0.328125q-0.25 -0.234375 -0.40625 -0.546875q-0.140625 -0.328125 -0.140625 -0.75q0 -0.46875 0.203125 -0.828125q0.203125 -0.359375 0.5625 -0.59375q0.375 -0.234375 0.90625 -0.34375q0.53125 -0.125 1.203125 -0.125l0.78125 0l0 -0.453125q0 -0.328125 -0.078125 -0.578125q-0.0625 -0.25 -0.21875 -0.421875q-0.15625 -0.171875 -0.40625 -0.25q-0.25 -0.09375 -0.609375 -0.09375q-0.375 0 -0.6875 0.09375q-0.3125 0.09375 -0.546875 0.203125q-0.234375 0.109375 -0.390625 0.203125q-0.140625 0.09375 -0.21875 0.09375q-0.0625 0 -0.09375 -0.015625q-0.03125 -0.03125 -0.0625 -0.078125q-0.03125 -0.0625 -0.046875 -0.140625q-0.015625 -0.078125 -0.015625 -0.171875q0 -0.15625 0.015625 -0.25q0.03125 -0.09375 0.109375 -0.171875q0.09375 -0.078125 0.296875 -0.1875q0.21875 -0.125 0.484375 -0.203125q0.28125 -0.09375 0.59375 -0.15625q0.328125 -0.0625 0.65625 -0.0625q0.625 0 1.046875 0.140625q0.4375 0.140625 0.703125 0.40625q0.265625 0.265625 0.390625 0.671875q0.125 0.40625 0.125 0.9375l0 3.84375zm-1.046875 -2.609375l-0.890625 0q-0.4375 0 -0.765625 0.078125q-0.3125 0.078125 -0.515625 0.21875q-0.203125 0.140625 -0.3125 0.34375q-0.09375 0.1875 -0.09375 0.453125q0 0.453125 0.28125 0.71875q0.28125 0.25 0.796875 0.25q0.40625 0 0.75 -0.203125q0.359375 -0.21875 0.75 -0.640625l0 -1.21875zm4.165497 2.609375q0 0.046875 -0.03125 0.09375q-0.015625 0.03125 -0.078125 0.0625q-0.046875 0.015625 -0.15625 0.015625q-0.09375 0.015625 -0.265625 0.015625q-0.140625 0 -0.25 -0.015625q-0.09375 0 -0.15625 -0.015625q-0.0625 -0.03125 -0.09375 -0.0625q-0.015625 -0.046875 -0.015625 -0.09375l0 -8.484375q0 -0.046875 0.015625 -0.078125q0.03125 -0.046875 0.09375 -0.0625q0.0625 -0.03125 0.15625 -0.046875q0.109375 -0.015625 0.25 -0.015625q0.171875 0 0.265625 0.015625q0.109375 0.015625 0.15625 0.046875q0.0625 0.015625 0.078125 0.0625q0.03125 0.03125 0.03125 0.078125l0 8.484375zm6.9024353 0q0 0.046875 -0.015625 0.09375q-0.015625 0.03125 -0.078125 0.0625q-0.0625 0.015625 -0.15625 0.015625q-0.09375 0.015625 -0.21875 0.015625q-0.140625 0 -0.234375 -0.015625q-0.09375 0 -0.15625 -0.015625q-0.046875 -0.03125 -0.078125 -0.0625q-0.015625 -0.046875 -0.015625 -0.09375l0 -0.765625q-0.484375 0.546875 -0.96875 0.796875q-0.46875 0.25 -0.953125 0.25q-0.578125 0 -0.96875 -0.1875q-0.390625 -0.203125 -0.625 -0.53125q-0.234375 -0.328125 -0.34375 -0.75q-0.109375 -0.4375 -0.109375 -1.0625l0 -3.46875q0 -0.046875 0.015625 -0.078125q0.03125 -0.046875 0.09375 -0.0625q0.0625 -0.03125 0.15625 -0.03125q0.109375 -0.015625 0.265625 -0.015625q0.15625 0 0.25 0.015625q0.109375 0 0.15625 0.03125q0.0625 0.015625 0.09375 0.0625q0.03125 0.03125 0.03125 0.078125l0 3.328125q0 0.5 0.0625 0.8125q0.078125 0.296875 0.21875 0.515625q0.15625 0.203125 0.375 0.328125q0.234375 0.109375 0.546875 0.109375q0.390625 0 0.78125 -0.28125q0.390625 -0.28125 0.828125 -0.8125l0 -4.0q0 -0.046875 0.015625 -0.078125q0.03125 -0.046875 0.09375 -0.0625q0.0625 -0.03125 0.15625 -0.03125q0.109375 -0.015625 0.265625 -0.015625q0.140625 0 0.234375 0.015625q0.109375 0 0.171875 0.03125q0.0625 0.015625 0.078125 0.0625q0.03125 0.03125 0.03125 0.078125l0 5.71875zm6.986847 -3.109375q0 0.25 -0.125 0.359375q-0.125 0.09375 -0.28125 0.09375l-3.75 0q0 0.484375 0.09375 0.875q0.109375 0.375 0.328125 0.65625q0.21875 0.265625 0.578125 0.40625q0.359375 0.140625 0.875 0.140625q0.40625 0 0.71875 -0.0625q0.3125 -0.0625 0.546875 -0.140625q0.234375 -0.09375 0.375 -0.15625q0.15625 -0.0625 0.234375 -0.0625q0.046875 0 0.078125 0.015625q0.03125 0.015625 0.046875 0.0625q0.03125 0.046875 0.03125 0.125q0.015625 0.078125 0.015625 0.203125q0 0.078125 -0.015625 0.140625q0 0.0625 -0.015625 0.109375q0 0.046875 -0.03125 0.09375q-0.015625 0.03125 -0.0625 0.0625q-0.03125 0.03125 -0.203125 0.109375q-0.171875 0.078125 -0.4375 0.15625q-0.265625 0.078125 -0.625 0.140625q-0.359375 0.0625 -0.765625 0.0625q-0.703125 0 -1.234375 -0.1875q-0.53125 -0.203125 -0.90625 -0.59375q-0.359375 -0.390625 -0.546875 -0.96875q-0.171875 -0.59375 -0.171875 -1.359375q0 -0.734375 0.1875 -1.328125q0.1875 -0.59375 0.546875 -1.0q0.359375 -0.40625 0.859375 -0.625q0.515625 -0.21875 1.140625 -0.21875q0.671875 0 1.140625 0.21875q0.484375 0.21875 0.78125 0.578125q0.3125 0.359375 0.453125 0.859375q0.140625 0.484375 0.140625 1.046875l0 0.1875zm-1.046875 -0.3125q0.015625 -0.828125 -0.375 -1.296875q-0.375 -0.46875 -1.140625 -0.46875q-0.375 0 -0.671875 0.15625q-0.296875 0.140625 -0.5 0.390625q-0.1875 0.234375 -0.296875 0.5625q-0.109375 0.3125 -0.125 0.65625l3.109375 0zm10.707184 3.109375q0 0.109375 -0.015625 0.203125q-0.015625 0.09375 -0.046875 0.15625q-0.015625 0.046875 -0.0625 0.078125q-0.046875 0.03125 -0.109375 0.03125l-4.546875 0q-0.078125 0 -0.15625 -0.015625q-0.0625 -0.03125 -0.109375 -0.078125q-0.046875 -0.046875 -0.078125 -0.140625q-0.015625 -0.109375 -0.015625 -0.234375q0 -0.140625 0.015625 -0.234375q0.015625 -0.09375 0.046875 -0.15625q0.03125 -0.078125 0.078125 -0.140625q0.046875 -0.078125 0.125 -0.171875l1.59375 -1.6875q0.546875 -0.578125 0.875 -1.046875q0.34375 -0.46875 0.515625 -0.84375q0.1875 -0.375 0.234375 -0.6875q0.0625 -0.3125 0.0625 -0.59375q0 -0.265625 -0.09375 -0.5q-0.078125 -0.25 -0.25 -0.4375q-0.171875 -0.1875 -0.421875 -0.296875q-0.25 -0.109375 -0.59375 -0.109375q-0.375 0 -0.6875 0.109375q-0.3125 0.109375 -0.546875 0.234375q-0.21875 0.125 -0.375 0.234375q-0.15625 0.109375 -0.234375 0.109375q-0.046875 0 -0.078125 -0.015625q-0.03125 -0.03125 -0.0625 -0.078125q-0.015625 -0.0625 -0.03125 -0.15625q-0.015625 -0.109375 -0.015625 -0.234375q0 -0.09375 0 -0.15625q0.015625 -0.078125 0.03125 -0.125q0.015625 -0.0625 0.03125 -0.09375q0.03125 -0.046875 0.109375 -0.109375q0.078125 -0.078125 0.265625 -0.1875q0.1875 -0.109375 0.46875 -0.21875q0.28125 -0.125 0.625 -0.1875q0.34375 -0.078125 0.703125 -0.078125q0.609375 0 1.046875 0.171875q0.453125 0.15625 0.75 0.453125q0.296875 0.28125 0.4375 0.671875q0.140625 0.390625 0.140625 0.828125q0 0.390625 -0.078125 0.78125q-0.0625 0.390625 -0.28125 0.84375q-0.21875 0.453125 -0.65625 1.015625q-0.421875 0.546875 -1.125 1.28125l-1.296875 1.359375l3.578125 0q0.046875 0 0.09375 0.03125q0.046875 0.015625 0.078125 0.078125q0.03125 0.0625 0.046875 0.15625q0.015625 0.078125 0.015625 0.1875zm3.255188 -7.890625q0 0.1875 -0.03125 0.359375q-0.015625 0.15625 -0.0625 0.3125q-0.03125 0.140625 -0.109375 0.28125q-0.078125 0.140625 -0.1875 0.296875l-0.859375 1.3125q-0.03125 0.046875 -0.078125 0.078125q-0.046875 0.03125 -0.109375 0.0625q-0.046875 0.015625 -0.125 0.03125q-0.078125 0 -0.203125 0q-0.109375 0 -0.1875 0q-0.0625 -0.015625 -0.109375 -0.03125q-0.03125 -0.03125 -0.03125 -0.0625q0 -0.03125 0.03125 -0.09375l0.84375 -1.75l0 -0.796875q0 -0.171875 0.03125 -0.265625q0.03125 -0.109375 0.109375 -0.15625q0.078125 -0.0625 0.1875 -0.078125q0.125 -0.03125 0.28125 -0.03125q0.15625 0 0.265625 0.03125q0.125 0.015625 0.1875 0.078125q0.078125 0.046875 0.109375 0.15625q0.046875 0.09375 0.046875 0.265625z" fill-rule="nonzero"></path></g></svg>

