<?xml version="1.0" standalone="yes"?>

<svg version="1.1" viewBox="0.0 0.0 651.6824146981627 393.0603674540682" fill="none" stroke="none" stroke-linecap="square" stroke-miterlimit="10" xmlns="http://www.w3.org/2000/svg" xmlns:xlink="http://www.w3.org/1999/xlink"><clipPath id="p.0"><path d="m0 0l651.68243 0l0 393.06036l-651.68243 0l0 -393.06036z" clip-rule="nonzero"></path></clipPath><g clip-path="url(#p.0)"><path fill="#000000" fill-opacity="0.0" d="m0 0l651.68243 0l0 393.06036l-651.68243 0z" fill-rule="nonzero"></path><path fill="#000000" fill-opacity="0.0" d="m228.20341 17.540682l195.27559 0l0 174.01575l-195.27559 0z" fill-rule="nonzero"></path><path stroke="#ff0000" stroke-width="1.0" stroke-linejoin="round" stroke-linecap="butt" d="m228.20341 17.540682l195.27559 0l0 174.01575l-195.27559 0z" fill-rule="nonzero"></path><path fill="#cfe2f3" d="m295.36246 73.720474l0 0c0 -7.96682 7.3608704 -14.425198 16.440948 -14.425198l0 0c9.080078 0 16.440948 6.458378 16.440948 14.425198l0 0c0 7.966812 -7.3608704 14.425194 -16.440948 14.425194l0 0c-9.080078 0 -16.440948 -6.4583817 -16.440948 -14.425194z" fill-rule="nonzero"></path><path stroke="#000000" stroke-width="1.0" stroke-linejoin="round" stroke-linecap="butt" d="m295.36246 73.720474l0 0c0 -7.96682 7.3608704 -14.425198 16.440948 -14.425198l0 0c9.080078 0 16.440948 6.458378 16.440948 14.425198l0 0c0 7.966812 -7.3608704 14.425194 -16.440948 14.425194l0 0c-9.080078 0 -16.440948 -6.4583817 -16.440948 -14.425194z" fill-rule="nonzero"></path><path fill="#000000" d="m310.65176 78.75735q-0.03125 0.0625 -0.0625 0.09375q-0.03125 0.046875 -0.09375 0.0625q-0.046875 0.03125 -0.125 0.046875q-0.078125 0.015625 -0.1875 0.015625q-0.140625 0 -0.234375 -0.03125q-0.078125 -0.015625 -0.125 -0.046875q-0.046875 -0.03125 -0.0625 -0.09375q-0.015625 -0.046875 0.015625 -0.109375l3.25 -8.921875q0.03125 -0.0625 0.0625 -0.09375q0.03125 -0.046875 0.078125 -0.0625q0.0625 -0.03125 0.140625 -0.03125q0.078125 -0.015625 0.1875 -0.015625q0.140625 0 0.21875 0.015625q0.09375 0.015625 0.140625 0.046875q0.046875 0.03125 0.046875 0.09375q0.015625 0.046875 0 0.125l-3.25 8.90625z" fill-rule="nonzero"></path><path fill="#cfe2f3" d="m267.28348 120.20733l0 0c0 -7.96682 7.36084 -14.425194 16.440918 -14.425194l0 0c9.080109 0 16.440948 6.458374 16.440948 14.425194l0 0c0 7.96682 -7.36084 14.425194 -16.440948 14.425194l0 0c-9.080078 0 -16.440918 -6.458374 -16.440918 -14.425194z" fill-rule="nonzero"></path><path stroke="#000000" stroke-width="1.0" stroke-linejoin="round" stroke-linecap="butt" d="m267.28348 120.20733l0 0c0 -7.96682 7.36084 -14.425194 16.440918 -14.425194l0 0c9.080109 0 16.440948 6.458374 16.440948 14.425194l0 0c0 7.96682 -7.36084 14.425194 -16.440948 14.425194l0 0c-9.080078 0 -16.440918 -6.458374 -16.440918 -14.425194z" fill-rule="nonzero"></path><path fill="#000000" d="m285.64096 123.82233q0 0.0625 -0.046875 0.09375q-0.046875 0.03125 -0.125 0.046875q-0.0625 0.015625 -0.21875 0.015625q-0.140625 0 -0.21875 -0.015625q-0.078125 -0.015625 -0.125 -0.046875q-0.03125 -0.03125 -0.03125 -0.09375l0 -0.484375q-0.3125 0.328125 -0.703125 0.53125q-0.390625 0.1875 -0.828125 0.1875q-0.390625 0 -0.703125 -0.109375q-0.296875 -0.09375 -0.515625 -0.28125q-0.21875 -0.1875 -0.34375 -0.453125q-0.109375 -0.28125 -0.109375 -0.640625q0 -0.40625 0.15625 -0.703125q0.171875 -0.296875 0.484375 -0.5q0.3125 -0.203125 0.765625 -0.296875q0.453125 -0.09375 1.015625 -0.09375l0.65625 0l0 -0.390625q0 -0.265625 -0.0625 -0.484375q-0.046875 -0.21875 -0.1875 -0.359375q-0.125 -0.140625 -0.34375 -0.203125q-0.203125 -0.078125 -0.515625 -0.078125q-0.3125 0 -0.578125 0.078125q-0.265625 0.078125 -0.46875 0.171875q-0.1875 0.09375 -0.328125 0.171875q-0.125 0.078125 -0.1875 0.078125q-0.046875 0 -0.078125 -0.015625q-0.03125 -0.03125 -0.0625 -0.078125q-0.015625 -0.046875 -0.03125 -0.109375q0 -0.0625 0 -0.140625q0 -0.140625 0.015625 -0.21875q0.015625 -0.078125 0.078125 -0.140625q0.078125 -0.078125 0.25 -0.171875q0.1875 -0.09375 0.421875 -0.171875q0.234375 -0.078125 0.5 -0.125q0.28125 -0.046875 0.5625 -0.046875q0.515625 0 0.875 0.125q0.375 0.109375 0.59375 0.34375q0.234375 0.21875 0.328125 0.5625q0.109375 0.328125 0.109375 0.78125l0 3.265625zm-0.890625 -2.21875l-0.75 0q-0.375 0 -0.640625 0.0625q-0.265625 0.0625 -0.453125 0.1875q-0.171875 0.125 -0.25 0.296875q-0.078125 0.15625 -0.078125 0.390625q0 0.375 0.234375 0.59375q0.234375 0.21875 0.671875 0.21875q0.34375 0 0.640625 -0.171875q0.296875 -0.1875 0.625 -0.546875l0 -1.03125z" fill-rule="nonzero"></path><path fill="#000000" fill-opacity="0.0" d="m300.1779 83.92063l-16.440948 21.858261" fill-rule="nonzero"></path><path stroke="#000000" stroke-width="1.0" stroke-linejoin="round" stroke-linecap="butt" d="m300.1779 83.92063l-12.83432 17.06324" fill-rule="evenodd"></path><path fill="#000000" stroke="#000000" stroke-width="1.0" stroke-linecap="butt" d="m286.02356 99.991005l-1.4078674 4.6195755l4.047882 -2.6338425z" fill-rule="evenodd"></path><path fill="#cfe2f3" d="m323.44144 120.20733l0 0c0 -7.96682 7.3608704 -14.425194 16.440948 -14.425194l0 0c9.080078 0 16.440948 6.458374 16.440948 14.425194l0 0c0 7.96682 -7.3608704 14.425194 -16.440948 14.425194l0 0c-9.080078 0 -16.440948 -6.458374 -16.440948 -14.425194z" fill-rule="nonzero"></path><path stroke="#000000" stroke-width="1.0" stroke-linejoin="round" stroke-linecap="butt" d="m323.44144 120.20733l0 0c0 -7.96682 7.3608704 -14.425194 16.440948 -14.425194l0 0c9.080078 0 16.440948 6.458374 16.440948 14.425194l0 0c0 7.96682 -7.3608704 14.425194 -16.440948 14.425194l0 0c-9.080078 0 -16.440948 -6.458374 -16.440948 -14.425194z" fill-rule="nonzero"></path><path fill="#000000" d="m342.34866 121.33795q0 0.625 -0.140625 1.125q-0.125 0.5 -0.390625 0.859375q-0.265625 0.34375 -0.65625 0.546875q-0.390625 0.1875 -0.890625 0.1875q-0.234375 0 -0.4375 -0.046875q-0.1875 -0.046875 -0.375 -0.140625q-0.1875 -0.109375 -0.375 -0.265625q-0.1875 -0.15625 -0.390625 -0.375l0 0.578125q0 0.046875 -0.03125 0.078125q-0.015625 0.03125 -0.0625 0.0625q-0.046875 0.015625 -0.125 0.015625q-0.0625 0.015625 -0.1875 0.015625q-0.109375 0 -0.1875 -0.015625q-0.0625 0 -0.109375 -0.015625q-0.046875 -0.03125 -0.0625 -0.0625q-0.015625 -0.03125 -0.015625 -0.078125l0 -7.171875q0 -0.046875 0.015625 -0.078125q0.015625 -0.03125 0.0625 -0.046875q0.0625 -0.015625 0.140625 -0.03125q0.09375 -0.015625 0.21875 -0.015625q0.125 0 0.203125 0.015625q0.09375 0.015625 0.140625 0.03125q0.0625 0.015625 0.078125 0.046875q0.015625 0.03125 0.015625 0.078125l0 2.890625q0.21875 -0.21875 0.421875 -0.359375q0.203125 -0.15625 0.390625 -0.25q0.203125 -0.09375 0.390625 -0.125q0.1875 -0.046875 0.40625 -0.046875q0.53125 0 0.90625 0.203125q0.375 0.203125 0.59375 0.5625q0.234375 0.34375 0.34375 0.828125q0.109375 0.46875 0.109375 1.0zm-0.9375 0.09375q0 -0.375 -0.0625 -0.71875q-0.046875 -0.34375 -0.1875 -0.609375q-0.140625 -0.28125 -0.375 -0.4375q-0.21875 -0.171875 -0.5625 -0.171875q-0.171875 0 -0.34375 0.0625q-0.171875 0.046875 -0.34375 0.15625q-0.171875 0.109375 -0.359375 0.296875q-0.171875 0.171875 -0.390625 0.4375l0 1.921875q0.375 0.453125 0.703125 0.6875q0.328125 0.234375 0.6875 0.234375q0.34375 0 0.578125 -0.15625q0.234375 -0.171875 0.375 -0.4375q0.15625 -0.265625 0.21875 -0.59375q0.0625 -0.328125 0.0625 -0.671875z" fill-rule="nonzero"></path><path fill="#cfe2f3" d="m351.52042 166.6444l0 0c0 -7.966812 7.3608704 -14.425186 16.440948 -14.425186l0 0c9.080078 0 16.440948 6.458374 16.440948 14.425186l0 0c0 7.9668274 -7.3608704 14.425201 -16.440948 14.425201l0 0c-9.080078 0 -16.440948 -6.458374 -16.440948 -14.425201z" fill-rule="nonzero"></path><path stroke="#000000" stroke-width="1.0" stroke-linejoin="round" stroke-linecap="butt" d="m351.52042 166.6444l0 0c0 -7.966812 7.3608704 -14.425186 16.440948 -14.425186l0 0c9.080078 0 16.440948 6.458374 16.440948 14.425186l0 0c0 7.9668274 -7.3608704 14.425201 -16.440948 14.425201l0 0c-9.080078 0 -16.440948 -6.458374 -16.440948 -14.425201z" fill-rule="nonzero"></path><path fill="#000000" d="m370.00525 169.5094q0 0.09375 -0.015625 0.171875q0 0.0625 -0.015625 0.109375q0 0.046875 -0.03125 0.078125q-0.015625 0.03125 -0.078125 0.109375q-0.0625 0.0625 -0.234375 0.15625q-0.15625 0.09375 -0.359375 0.171875q-0.203125 0.078125 -0.4375 0.125q-0.234375 0.0625 -0.484375 0.0625q-0.53125 0 -0.9375 -0.171875q-0.390625 -0.171875 -0.671875 -0.5q-0.265625 -0.34375 -0.40625 -0.8125q-0.140625 -0.484375 -0.140625 -1.125q0 -0.703125 0.171875 -1.21875q0.171875 -0.515625 0.46875 -0.84375q0.3125 -0.328125 0.71875 -0.484375q0.421875 -0.15625 0.890625 -0.15625q0.234375 0 0.453125 0.046875q0.21875 0.03125 0.390625 0.109375q0.1875 0.0625 0.328125 0.15625q0.15625 0.09375 0.21875 0.15625q0.0625 0.0625 0.078125 0.109375q0.03125 0.03125 0.046875 0.09375q0.015625 0.046875 0.015625 0.109375q0.015625 0.0625 0.015625 0.15625q0 0.203125 -0.0625 0.296875q-0.046875 0.078125 -0.109375 0.078125q-0.078125 0 -0.1875 -0.078125q-0.109375 -0.09375 -0.265625 -0.203125q-0.15625 -0.109375 -0.390625 -0.1875q-0.21875 -0.09375 -0.53125 -0.09375q-0.640625 0 -0.984375 0.5q-0.34375 0.484375 -0.34375 1.40625q0 0.46875 0.078125 0.828125q0.09375 0.34375 0.265625 0.59375q0.171875 0.234375 0.421875 0.34375q0.25 0.109375 0.578125 0.109375q0.3125 0 0.53125 -0.09375q0.234375 -0.09375 0.40625 -0.203125q0.171875 -0.125 0.28125 -0.21875q0.125 -0.09375 0.1875 -0.09375q0.03125 0 0.0625 0.03125q0.03125 0.015625 0.046875 0.0625q0.015625 0.046875 0.015625 0.125q0.015625 0.078125 0.015625 0.1875z" fill-rule="nonzero"></path><path fill="#000000" fill-opacity="0.0" d="m323.44144 83.92387l16.440948 21.858269" fill-rule="nonzero"></path><path stroke="#000000" stroke-width="1.0" stroke-linejoin="round" stroke-linecap="butt" d="m323.44144 83.92387l12.83432 17.063248" fill-rule="evenodd"></path><path fill="#000000" stroke="#000000" stroke-width="1.0" stroke-linecap="butt" d="m334.95575 101.97997l4.047882 2.63385l-1.4078674 -4.6195755z" fill-rule="evenodd"></path><path fill="#000000" fill-opacity="0.0" d="m351.50787 130.40749l16.440948 21.826767" fill-rule="nonzero"></path><path stroke="#000000" stroke-width="1.0" stroke-linejoin="round" stroke-linecap="butt" d="m351.50787 130.40749l12.830994 17.034256" fill-rule="evenodd"></path><path fill="#000000" stroke="#000000" stroke-width="1.0" stroke-linecap="butt" d="m363.01953 148.43552l4.049713 2.6310425l-1.4110413 -4.6186066z" fill-rule="evenodd"></path><path fill="#000000" fill-opacity="0.0" d="m228.20473 17.540682l195.27559 0l0 36.62992l-195.27559 0z" fill-rule="nonzero"></path><path fill="#000000" d="m318.95972 41.69756q0 0.0625 -0.03125 0.109375q-0.015625 0.046875 -0.09375 0.078125q-0.0625 0.03125 -0.1875 0.046875q-0.109375 0.015625 -0.265625 0.015625q-0.1875 0 -0.296875 -0.015625q-0.109375 -0.015625 -0.1875 -0.046875q-0.0625 -0.03125 -0.09375 -0.078125q-0.015625 -0.046875 -0.015625 -0.109375l0 -0.921875q-0.59375 0.65625 -1.1875 0.96875q-0.578125 0.3125 -1.1875 0.3125q-0.703125 0 -1.1875 -0.234375q-0.46875 -0.25 -0.765625 -0.640625q-0.296875 -0.40625 -0.4375 -0.9375q-0.125 -0.546875 -0.125 -1.3125l0 -4.265625q0 -0.0625 0.03125 -0.09375q0.03125 -0.046875 0.109375 -0.078125q0.078125 -0.046875 0.203125 -0.046875q0.125 -0.015625 0.3125 -0.015625q0.1875 0 0.3125 0.015625q0.125 0 0.1875 0.046875q0.078125 0.03125 0.109375 0.078125q0.03125 0.03125 0.03125 0.09375l0 4.09375q0 0.625 0.09375 1.0q0.09375 0.359375 0.265625 0.625q0.1875 0.265625 0.46875 0.40625q0.28125 0.140625 0.65625 0.140625q0.484375 0 0.96875 -0.34375q0.484375 -0.34375 1.015625 -1.0l0 -4.921875q0 -0.0625 0.03125 -0.09375q0.03125 -0.046875 0.109375 -0.078125q0.078125 -0.046875 0.1875 -0.046875q0.125 -0.015625 0.328125 -0.015625q0.1875 0 0.3125 0.015625q0.125 0 0.1875 0.046875q0.078125 0.03125 0.109375 0.078125q0.03125 0.03125 0.03125 0.09375l0 7.03125zm6.796875 -1.90625q0 0.53125 -0.203125 0.953125q-0.1875 0.421875 -0.5625 0.71875q-0.359375 0.28125 -0.875 0.4375q-0.5 0.15625 -1.109375 0.15625q-0.375 0 -0.71875 -0.0625q-0.34375 -0.0625 -0.609375 -0.15625q-0.265625 -0.09375 -0.453125 -0.1875q-0.1875 -0.09375 -0.28125 -0.171875q-0.078125 -0.078125 -0.125 -0.21875q-0.03125 -0.140625 -0.03125 -0.390625q0 -0.140625 0.015625 -0.234375q0.015625 -0.109375 0.03125 -0.171875q0.03125 -0.0625 0.0625 -0.09375q0.046875 -0.03125 0.109375 -0.03125q0.078125 0 0.25 0.109375q0.171875 0.109375 0.40625 0.234375q0.25 0.125 0.578125 0.234375q0.34375 0.09375 0.78125 0.09375q0.328125 0 0.59375 -0.0625q0.265625 -0.078125 0.453125 -0.203125q0.203125 -0.140625 0.3125 -0.34375q0.109375 -0.21875 0.109375 -0.515625q0 -0.296875 -0.15625 -0.5q-0.15625 -0.203125 -0.40625 -0.359375q-0.25 -0.15625 -0.5625 -0.265625q-0.3125 -0.125 -0.640625 -0.25q-0.328125 -0.140625 -0.65625 -0.3125q-0.3125 -0.171875 -0.5625 -0.40625q-0.25 -0.25 -0.40625 -0.578125q-0.140625 -0.34375 -0.140625 -0.8125q0 -0.40625 0.15625 -0.78125q0.15625 -0.390625 0.46875 -0.671875q0.328125 -0.28125 0.8125 -0.453125q0.484375 -0.171875 1.125 -0.171875q0.28125 0 0.5625 0.046875q0.28125 0.046875 0.5 0.125q0.234375 0.0625 0.390625 0.140625q0.15625 0.078125 0.234375 0.140625q0.09375 0.0625 0.109375 0.109375q0.03125 0.046875 0.046875 0.109375q0.015625 0.0625 0.015625 0.15625q0.015625 0.078125 0.015625 0.203125q0 0.125 -0.015625 0.234375q0 0.09375 -0.03125 0.15625q-0.03125 0.0625 -0.078125 0.09375q-0.03125 0.015625 -0.078125 0.015625q-0.0625 0 -0.203125 -0.078125q-0.125 -0.09375 -0.34375 -0.1875q-0.203125 -0.09375 -0.5 -0.171875q-0.28125 -0.09375 -0.640625 -0.09375q-0.328125 0 -0.578125 0.078125q-0.25 0.0625 -0.421875 0.203125q-0.15625 0.140625 -0.234375 0.328125q-0.078125 0.1875 -0.078125 0.40625q0 0.296875 0.15625 0.515625q0.15625 0.203125 0.40625 0.359375q0.25 0.15625 0.5625 0.28125q0.328125 0.125 0.65625 0.265625q0.328125 0.125 0.65625 0.296875q0.328125 0.15625 0.578125 0.390625q0.25 0.234375 0.390625 0.5625q0.15625 0.328125 0.15625 0.78125zm7.8515625 -1.90625q0 0.296875 -0.15625 0.4375q-0.15625 0.125 -0.34375 0.125l-4.609375 0q0 0.578125 0.109375 1.046875q0.125 0.46875 0.390625 0.8125q0.28125 0.328125 0.71875 0.515625q0.4375 0.171875 1.0625 0.171875q0.5 0 0.890625 -0.078125q0.390625 -0.078125 0.671875 -0.171875q0.296875 -0.109375 0.46875 -0.1875q0.1875 -0.09375 0.28125 -0.09375q0.0625 0 0.09375 0.03125q0.046875 0.03125 0.0625 0.09375q0.03125 0.046875 0.046875 0.140625q0.015625 0.09375 0.015625 0.234375q0 0.109375 -0.015625 0.1875q0 0.0625 -0.015625 0.125q-0.015625 0.0625 -0.046875 0.109375q-0.015625 0.046875 -0.0625 0.09375q-0.046875 0.03125 -0.265625 0.140625q-0.203125 0.09375 -0.546875 0.1875q-0.328125 0.09375 -0.765625 0.171875q-0.4375 0.078125 -0.9375 0.078125q-0.875 0 -1.53125 -0.25q-0.640625 -0.25 -1.09375 -0.71875q-0.4375 -0.484375 -0.671875 -1.203125q-0.21875 -0.71875 -0.21875 -1.671875q0 -0.90625 0.234375 -1.625q0.234375 -0.71875 0.671875 -1.21875q0.4375 -0.515625 1.0625 -0.78125q0.625 -0.265625 1.40625 -0.265625q0.828125 0 1.40625 0.265625q0.578125 0.265625 0.953125 0.71875q0.375 0.4375 0.546875 1.046875q0.1875 0.609375 0.1875 1.296875l0 0.234375zm-1.296875 -0.390625q0.015625 -1.015625 -0.453125 -1.59375q-0.46875 -0.578125 -1.40625 -0.578125q-0.46875 0 -0.828125 0.1875q-0.359375 0.171875 -0.609375 0.46875q-0.234375 0.296875 -0.375 0.703125q-0.125 0.390625 -0.140625 0.8125l3.8125 0zm7.3671875 -2.359375q0 0.171875 -0.015625 0.296875q0 0.109375 -0.03125 0.171875q-0.015625 0.0625 -0.0625 0.109375q-0.03125 0.03125 -0.09375 0.03125q-0.0625 0 -0.15625 -0.03125q-0.078125 -0.046875 -0.203125 -0.078125q-0.109375 -0.03125 -0.25 -0.0625q-0.140625 -0.03125 -0.296875 -0.03125q-0.203125 0 -0.390625 0.078125q-0.1875 0.078125 -0.390625 0.265625q-0.203125 0.171875 -0.4375 0.46875q-0.21875 0.296875 -0.5 0.71875l0 4.625q0 0.0625 -0.03125 0.109375q-0.03125 0.046875 -0.109375 0.078125q-0.0625 0.03125 -0.1875 0.046875q-0.125 0.015625 -0.3125 0.015625q-0.1875 0 -0.3125 -0.015625q-0.125 -0.015625 -0.203125 -0.046875q-0.078125 -0.03125 -0.109375 -0.078125q-0.015625 -0.046875 -0.015625 -0.109375l0 -7.03125q0 -0.0625 0.015625 -0.09375q0.03125 -0.046875 0.09375 -0.078125q0.078125 -0.046875 0.1875 -0.046875q0.109375 -0.015625 0.28125 -0.015625q0.171875 0 0.28125 0.015625q0.125 0 0.1875 0.046875q0.0625 0.03125 0.078125 0.078125q0.03125 0.03125 0.03125 0.09375l0 1.03125q0.296875 -0.421875 0.546875 -0.6875q0.25 -0.265625 0.46875 -0.421875q0.234375 -0.15625 0.453125 -0.203125q0.234375 -0.0625 0.453125 -0.0625q0.109375 0 0.234375 0.015625q0.125 0 0.265625 0.03125q0.140625 0.03125 0.25 0.078125q0.125 0.03125 0.171875 0.078125q0.046875 0.03125 0.0625 0.078125q0.015625 0.03125 0.015625 0.09375q0.015625 0.046875 0.015625 0.15625q0.015625 0.09375 0.015625 0.28125z" fill-rule="nonzero"></path><path fill="#000000" fill-opacity="0.0" d="m442.52625 17.540682l195.27557 0l0 174.01575l-195.27557 0z" fill-rule="nonzero"></path><path stroke="#ff0000" stroke-width="1.0" stroke-linejoin="round" stroke-linecap="butt" d="m442.52625 17.540682l195.27557 0l0 174.01575l-195.27557 0z" fill-rule="nonzero"></path><path fill="#cfe2f3" d="m521.9824 82.93439l0 0c0 -8.0103 7.614685 -14.503937 17.007874 -14.503937l0 0c9.393188 0 17.007874 6.493637 17.007874 14.503937l0 0c0 8.010307 -7.614685 14.503937 -17.007874 14.503937l0 0c-9.393188 0 -17.007874 -6.4936295 -17.007874 -14.503937z" fill-rule="nonzero"></path><path stroke="#000000" stroke-width="1.0" stroke-linejoin="round" stroke-linecap="butt" d="m521.9824 82.93439l0 0c0 -8.0103 7.614685 -14.503937 17.007874 -14.503937l0 0c9.393188 0 17.007874 6.493637 17.007874 14.503937l0 0c0 8.010307 -7.614685 14.503937 -17.007874 14.503937l0 0c-9.393188 0 -17.007874 -6.4936295 -17.007874 -14.503937z" fill-rule="nonzero"></path><path fill="#000000" d="m538.1016 86.55189q-0.015625 0.0625 -0.046875 0.078125q-0.015625 0.03125 -0.0625 0.046875q-0.03125 0.015625 -0.09375 0.015625q-0.046875 0.015625 -0.140625 0.015625q-0.09375 0 -0.15625 -0.015625q-0.0625 0 -0.109375 -0.03125q-0.03125 -0.03125 -0.046875 -0.0625q0 -0.03125 0.03125 -0.09375l2.359375 -6.484375q0.015625 -0.046875 0.03125 -0.078125q0.03125 -0.03125 0.0625 -0.046875q0.046875 -0.015625 0.109375 -0.015625q0.0625 -0.015625 0.140625 -0.015625q0.09375 0 0.15625 0.015625q0.0625 0.015625 0.09375 0.046875q0.046875 0.015625 0.046875 0.0625q0.015625 0.03125 -0.015625 0.078125l-2.359375 6.484375z" fill-rule="nonzero"></path><path fill="#000000" fill-opacity="0.0" d="m526.96387 93.19022l-31.811005 23.275589" fill-rule="nonzero"></path><path stroke="#000000" stroke-width="1.0" stroke-linejoin="round" stroke-linecap="butt" d="m526.96387 93.19022l-26.96878 19.732613" fill-rule="evenodd"></path><path fill="#000000" stroke="#000000" stroke-width="1.0" stroke-linecap="butt" d="m499.01974 111.58982l-2.6870728 4.0127487l4.6377563 -1.3467255z" fill-rule="evenodd"></path><path fill="#000000" fill-opacity="0.0" d="m551.0097 93.18183l31.811035 23.275589" fill-rule="nonzero"></path><path stroke="#000000" stroke-width="1.0" stroke-linejoin="round" stroke-linecap="butt" d="m551.0097 93.18183l26.96875 19.732613" fill-rule="evenodd"></path><path fill="#000000" stroke="#000000" stroke-width="1.0" stroke-linecap="butt" d="m577.0031 114.24745l4.6377563 1.3467178l-2.6870728 -4.0127487z" fill-rule="evenodd"></path><path fill="#000000" fill-opacity="0.0" d="m442.52756 17.540682l195.2756 0l0 36.62992l-195.2756 0z" fill-rule="nonzero"></path><path fill="#000000" d="m522.84503 39.79131q0 0.53125 -0.203125 0.953125q-0.1875 0.421875 -0.5625 0.71875q-0.359375 0.28125 -0.875 0.4375q-0.5 0.15625 -1.109375 0.15625q-0.375 0 -0.71875 -0.0625q-0.34375 -0.0625 -0.609375 -0.15625q-0.265625 -0.09375 -0.453125 -0.1875q-0.1875 -0.09375 -0.28125 -0.171875q-0.078125 -0.078125 -0.125 -0.21875q-0.03125 -0.140625 -0.03125 -0.390625q0 -0.140625 0.015625 -0.234375q0.015625 -0.109375 0.03125 -0.171875q0.03125 -0.0625 0.0625 -0.09375q0.046875 -0.03125 0.109375 -0.03125q0.078125 0 0.25 0.109375q0.171875 0.109375 0.40625 0.234375q0.25 0.125 0.578125 0.234375q0.34375 0.09375 0.78125 0.09375q0.328125 0 0.59375 -0.0625q0.265625 -0.078125 0.453125 -0.203125q0.203125 -0.140625 0.3125 -0.34375q0.109375 -0.21875 0.109375 -0.515625q0 -0.296875 -0.15625 -0.5q-0.15625 -0.203125 -0.40625 -0.359375q-0.25 -0.15625 -0.5625 -0.265625q-0.3125 -0.125 -0.640625 -0.25q-0.328125 -0.140625 -0.65625 -0.3125q-0.3125 -0.171875 -0.5625 -0.40625q-0.25 -0.25 -0.40625 -0.578125q-0.140625 -0.34375 -0.140625 -0.8125q0 -0.40625 0.15625 -0.78125q0.15625 -0.390625 0.46875 -0.671875q0.328125 -0.28125 0.8125 -0.453125q0.484375 -0.171875 1.125 -0.171875q0.28125 0 0.5625 0.046875q0.28125 0.046875 0.5 0.125q0.234375 0.0625 0.390625 0.140625q0.15625 0.078125 0.234375 0.140625q0.09375 0.0625 0.109375 0.109375q0.03125 0.046875 0.046875 0.109375q0.015625 0.0625 0.015625 0.15625q0.015625 0.078125 0.015625 0.203125q0 0.125 -0.015625 0.234375q0 0.09375 -0.03125 0.15625q-0.03125 0.0625 -0.078125 0.09375q-0.03125 0.015625 -0.078125 0.015625q-0.0625 0 -0.203125 -0.078125q-0.125 -0.09375 -0.34375 -0.1875q-0.203125 -0.09375 -0.5 -0.171875q-0.28125 -0.09375 -0.640625 -0.09375q-0.328125 0 -0.578125 0.078125q-0.25 0.0625 -0.421875 0.203125q-0.15625 0.140625 -0.234375 0.328125q-0.078125 0.1875 -0.078125 0.40625q0 0.296875 0.15625 0.515625q0.15625 0.203125 0.40625 0.359375q0.25 0.15625 0.5625 0.28125q0.328125 0.125 0.65625 0.265625q0.328125 0.125 0.65625 0.296875q0.328125 0.15625 0.578125 0.390625q0.25 0.234375 0.390625 0.5625q0.15625 0.328125 0.15625 0.78125zm5.0546875 2.109375l-0.9375 2.59375q-0.046875 0.125 -0.25 0.1875q-0.1875 0.0625 -0.578125 0.0625q-0.203125 0 -0.328125 -0.015625q-0.125 -0.015625 -0.1875 -0.0625q-0.0625 -0.046875 -0.078125 -0.125q0 -0.078125 0.046875 -0.1875l0.96875 -2.453125q-0.078125 -0.03125 -0.140625 -0.09375q-0.0625 -0.078125 -0.078125 -0.15625l-2.515625 -6.71875q-0.0625 -0.171875 -0.0625 -0.265625q0 -0.09375 0.0625 -0.140625q0.0625 -0.0625 0.203125 -0.078125q0.140625 -0.015625 0.375 -0.015625q0.234375 0 0.359375 0.015625q0.140625 0 0.21875 0.03125q0.078125 0.03125 0.109375 0.09375q0.046875 0.0625 0.078125 0.15625l2.015625 5.640625l0.015625 0l1.9375 -5.671875q0.046875 -0.140625 0.109375 -0.1875q0.078125 -0.046875 0.203125 -0.0625q0.140625 -0.015625 0.390625 -0.015625q0.21875 0 0.359375 0.015625q0.140625 0.015625 0.203125 0.078125q0.0625 0.046875 0.0625 0.140625q0 0.09375 -0.046875 0.234375l-2.515625 7.0zm8.4453125 -2.109375q0 0.53125 -0.203125 0.953125q-0.1875 0.421875 -0.5625 0.71875q-0.359375 0.28125 -0.875 0.4375q-0.5 0.15625 -1.109375 0.15625q-0.375 0 -0.71875 -0.0625q-0.34375 -0.0625 -0.609375 -0.15625q-0.265625 -0.09375 -0.453125 -0.1875q-0.1875 -0.09375 -0.28125 -0.171875q-0.078125 -0.078125 -0.125 -0.21875q-0.03125 -0.140625 -0.03125 -0.390625q0 -0.140625 0.015625 -0.234375q0.015625 -0.109375 0.03125 -0.171875q0.03125 -0.0625 0.0625 -0.09375q0.046875 -0.03125 0.109375 -0.03125q0.078125 0 0.25 0.109375q0.171875 0.109375 0.40625 0.234375q0.25 0.125 0.578125 0.234375q0.34375 0.09375 0.78125 0.09375q0.328125 0 0.59375 -0.0625q0.265625 -0.078125 0.453125 -0.203125q0.203125 -0.140625 0.3125 -0.34375q0.109375 -0.21875 0.109375 -0.515625q0 -0.296875 -0.15625 -0.5q-0.15625 -0.203125 -0.40625 -0.359375q-0.25 -0.15625 -0.5625 -0.265625q-0.3125 -0.125 -0.640625 -0.25q-0.328125 -0.140625 -0.65625 -0.3125q-0.3125 -0.171875 -0.5625 -0.40625q-0.25 -0.25 -0.40625 -0.578125q-0.140625 -0.34375 -0.140625 -0.8125q0 -0.40625 0.15625 -0.78125q0.15625 -0.390625 0.46875 -0.671875q0.328125 -0.28125 0.8125 -0.453125q0.484375 -0.171875 1.125 -0.171875q0.28125 0 0.5625 0.046875q0.28125 0.046875 0.5 0.125q0.234375 0.0625 0.390625 0.140625q0.15625 0.078125 0.234375 0.140625q0.09375 0.0625 0.109375 0.109375q0.03125 0.046875 0.046875 0.109375q0.015625 0.0625 0.015625 0.15625q0.015625 0.078125 0.015625 0.203125q0 0.125 -0.015625 0.234375q0 0.09375 -0.03125 0.15625q-0.03125 0.0625 -0.078125 0.09375q-0.03125 0.015625 -0.078125 0.015625q-0.0625 0 -0.203125 -0.078125q-0.125 -0.09375 -0.34375 -0.1875q-0.203125 -0.09375 -0.5 -0.171875q-0.28125 -0.09375 -0.640625 -0.09375q-0.328125 0 -0.578125 0.078125q-0.25 0.0625 -0.421875 0.203125q-0.15625 0.140625 -0.234375 0.328125q-0.078125 0.1875 -0.078125 0.40625q0 0.296875 0.15625 0.515625q0.15625 0.203125 0.40625 0.359375q0.25 0.15625 0.5625 0.28125q0.328125 0.125 0.65625 0.265625q0.328125 0.125 0.65625 0.296875q0.328125 0.15625 0.578125 0.390625q0.25 0.234375 0.390625 0.5625q0.15625 0.328125 0.15625 0.78125zm5.5078125 1.390625q0 0.234375 -0.03125 0.375q-0.03125 0.125 -0.09375 0.1875q-0.0625 0.0625 -0.1875 0.125q-0.125 0.046875 -0.296875 0.078125q-0.15625 0.046875 -0.34375 0.0625q-0.171875 0.03125 -0.34375 0.03125q-0.546875 0 -0.9375 -0.140625q-0.390625 -0.15625 -0.640625 -0.453125q-0.25 -0.296875 -0.375 -0.734375q-0.109375 -0.453125 -0.109375 -1.0625l0 -4.109375l-0.984375 0q-0.109375 0 -0.1875 -0.125q-0.0625 -0.125 -0.0625 -0.40625q0 -0.15625 0.015625 -0.25q0.015625 -0.109375 0.046875 -0.171875q0.03125 -0.0625 0.078125 -0.09375q0.0625 -0.03125 0.125 -0.03125l0.96875 0l0 -1.671875q0 -0.046875 0.03125 -0.09375q0.03125 -0.046875 0.09375 -0.078125q0.078125 -0.046875 0.203125 -0.0625q0.125 -0.015625 0.3125 -0.015625q0.203125 0 0.328125 0.015625q0.125 0.015625 0.1875 0.0625q0.078125 0.03125 0.109375 0.078125q0.03125 0.046875 0.03125 0.09375l0 1.671875l1.796875 0q0.0625 0 0.109375 0.03125q0.046875 0.03125 0.078125 0.09375q0.046875 0.0625 0.0625 0.171875q0.015625 0.09375 0.015625 0.25q0 0.28125 -0.078125 0.40625q-0.0625 0.125 -0.1875 0.125l-1.796875 0l0 3.921875q0 0.71875 0.203125 1.09375q0.21875 0.375 0.78125 0.375q0.171875 0 0.3125 -0.03125q0.140625 -0.046875 0.25 -0.078125q0.109375 -0.046875 0.1875 -0.078125q0.078125 -0.03125 0.140625 -0.03125q0.046875 0 0.078125 0.015625q0.03125 0.015625 0.046875 0.078125q0.03125 0.046875 0.046875 0.140625q0.015625 0.09375 0.015625 0.234375zm7.703125 -3.296875q0 0.296875 -0.15625 0.4375q-0.15625 0.125 -0.34375 0.125l-4.609375 0q0 0.578125 0.109375 1.046875q0.125 0.46875 0.390625 0.8125q0.28125 0.328125 0.71875 0.515625q0.4375 0.171875 1.0625 0.171875q0.5 0 0.890625 -0.078125q0.390625 -0.078125 0.671875 -0.171875q0.296875 -0.109375 0.46875 -0.1875q0.1875 -0.09375 0.28125 -0.09375q0.0625 0 0.09375 0.03125q0.046875 0.03125 0.0625 0.09375q0.03125 0.046875 0.046875 0.140625q0.015625 0.09375 0.015625 0.234375q0 0.109375 -0.015625 0.1875q0 0.0625 -0.015625 0.125q-0.015625 0.0625 -0.046875 0.109375q-0.015625 0.046875 -0.0625 0.09375q-0.046875 0.03125 -0.265625 0.140625q-0.203125 0.09375 -0.546875 0.1875q-0.328125 0.09375 -0.765625 0.171875q-0.4375 0.078125 -0.9375 0.078125q-0.875 0 -1.53125 -0.25q-0.640625 -0.25 -1.09375 -0.71875q-0.4375 -0.484375 -0.671875 -1.203125q-0.21875 -0.71875 -0.21875 -1.671875q0 -0.90625 0.234375 -1.625q0.234375 -0.71875 0.671875 -1.21875q0.4375 -0.515625 1.0625 -0.78125q0.625 -0.265625 1.40625 -0.265625q0.828125 0 1.40625 0.265625q0.578125 0.265625 0.953125 0.71875q0.375 0.4375 0.546875 1.046875q0.1875 0.609375 0.1875 1.296875l0 0.234375zm-1.296875 -0.390625q0.015625 -1.015625 -0.453125 -1.59375q-0.46875 -0.578125 -1.40625 -0.578125q-0.46875 0 -0.828125 0.1875q-0.359375 0.171875 -0.609375 0.46875q-0.234375 0.296875 -0.375 0.703125q-0.125 0.390625 -0.140625 0.8125l3.8125 0zm13.6796875 4.203125q0 0.0625 -0.03125 0.109375q-0.03125 0.046875 -0.109375 0.078125q-0.0625 0.03125 -0.1875 0.046875q-0.125 0.015625 -0.3125 0.015625q-0.1875 0 -0.3125 -0.015625q-0.125 -0.015625 -0.203125 -0.046875q-0.078125 -0.03125 -0.109375 -0.078125q-0.03125 -0.046875 -0.03125 -0.109375l0 -4.265625q0 -0.453125 -0.078125 -0.8125q-0.078125 -0.375 -0.25 -0.640625q-0.171875 -0.265625 -0.4375 -0.40625q-0.265625 -0.140625 -0.625 -0.140625q-0.4375 0 -0.890625 0.34375q-0.453125 0.34375 -0.984375 1.015625l0 4.90625q0 0.0625 -0.03125 0.109375q-0.03125 0.046875 -0.109375 0.078125q-0.078125 0.03125 -0.203125 0.046875q-0.125 0.015625 -0.3125 0.015625q-0.171875 0 -0.3125 -0.015625q-0.125 -0.015625 -0.203125 -0.046875q-0.0625 -0.03125 -0.09375 -0.078125q-0.03125 -0.046875 -0.03125 -0.109375l0 -4.265625q0 -0.453125 -0.09375 -0.8125q-0.078125 -0.375 -0.25 -0.640625q-0.171875 -0.265625 -0.4375 -0.40625q-0.25 -0.140625 -0.609375 -0.140625q-0.453125 0 -0.90625 0.34375q-0.453125 0.34375 -0.984375 1.015625l0 4.90625q0 0.0625 -0.03125 0.109375q-0.03125 0.046875 -0.109375 0.078125q-0.0625 0.03125 -0.1875 0.046875q-0.125 0.015625 -0.3125 0.015625q-0.1875 0 -0.3125 -0.015625q-0.125 -0.015625 -0.203125 -0.046875q-0.078125 -0.03125 -0.109375 -0.078125q-0.015625 -0.046875 -0.015625 -0.109375l0 -7.03125q0 -0.0625 0.015625 -0.09375q0.03125 -0.046875 0.09375 -0.078125q0.078125 -0.046875 0.1875 -0.046875q0.109375 -0.015625 0.28125 -0.015625q0.171875 0 0.28125 0.015625q0.125 0 0.1875 0.046875q0.0625 0.03125 0.078125 0.078125q0.03125 0.03125 0.03125 0.09375l0 0.9375q0.59375 -0.671875 1.15625 -0.96875q0.5625 -0.3125 1.125 -0.3125q0.4375 0 0.78125 0.109375q0.359375 0.09375 0.625 0.28125q0.265625 0.171875 0.453125 0.4375q0.1875 0.25 0.3125 0.5625q0.34375 -0.390625 0.65625 -0.65625q0.328125 -0.265625 0.609375 -0.421875q0.296875 -0.171875 0.578125 -0.234375q0.28125 -0.078125 0.5625 -0.078125q0.671875 0 1.125 0.234375q0.46875 0.234375 0.75 0.640625q0.296875 0.390625 0.40625 0.9375q0.125 0.53125 0.125 1.125l0 4.4375z" fill-rule="nonzero"></path><path fill="#cfe2f3" d="m521.98175 130.96776l0 0c0 -8.0103 7.614685 -14.503929 17.007874 -14.503929l0 0c9.393188 0 17.007874 6.4936295 17.007874 14.503929l0 0c0 8.010315 -7.614685 14.503937 -17.007874 14.503937l0 0c-9.393188 0 -17.007874 -6.493622 -17.007874 -14.503937z" fill-rule="nonzero"></path><path stroke="#000000" stroke-width="1.0" stroke-linejoin="round" stroke-linecap="butt" d="m521.98175 130.96776l0 0c0 -8.0103 7.614685 -14.503929 17.007874 -14.503929l0 0c9.393188 0 17.007874 6.4936295 17.007874 14.503929l0 0c0 8.010315 -7.614685 14.503937 -17.007874 14.503937l0 0c-9.393188 0 -17.007874 -6.493622 -17.007874 -14.503937z" fill-rule="nonzero"></path><path fill="#000000" d="m538.4076 133.22589q0 0.265625 -0.09375 0.359375q-0.09375 0.09375 -0.34375 0.09375q-0.234375 0 -0.328125 -0.078125q-0.078125 -0.09375 -0.078125 -0.375q0 -0.265625 0.09375 -0.359375q0.09375 -0.09375 0.328125 -0.09375q0.234375 0 0.328125 0.09375q0.09375 0.078125 0.09375 0.359375zm2.0195312 0q0 0.265625 -0.09375 0.359375q-0.09375 0.09375 -0.34375 0.09375q-0.234375 0 -0.328125 -0.078125q-0.078125 -0.09375 -0.078125 -0.375q0 -0.265625 0.09375 -0.359375q0.09375 -0.09375 0.328125 -0.09375q0.234375 0 0.328125 0.09375q0.09375 0.078125 0.09375 0.359375z" fill-rule="nonzero"></path><path fill="#000000" fill-opacity="0.0" d="m538.9903 97.438324l0 19.023628" fill-rule="nonzero"></path><path stroke="#000000" stroke-width="1.0" stroke-linejoin="round" stroke-linecap="butt" d="m538.9903 97.43833l0 13.023621" fill-rule="evenodd"></path><path fill="#000000" stroke="#000000" stroke-width="1.0" stroke-linecap="butt" d="m537.33856 110.46195l1.6517334 4.538101l1.6517334 -4.538101z" fill-rule="evenodd"></path><path fill="#000000" fill-opacity="0.0" d="m526.96326 141.2236l-13.8897705 24.15747" fill-rule="nonzero"></path><path stroke="#000000" stroke-width="1.0" stroke-linejoin="round" stroke-linecap="butt" d="m526.96326 141.2236l-10.899048 18.955963" fill-rule="evenodd"></path><path fill="#000000" stroke="#000000" stroke-width="1.0" stroke-linecap="butt" d="m514.63226 159.35626l-0.8300781 4.7574615l3.6939087 -3.110855z" fill-rule="evenodd"></path><path fill="#000000" fill-opacity="0.0" d="m538.9896 145.4717l0.50390625 21.732285" fill-rule="nonzero"></path><path stroke="#000000" stroke-width="1.0" stroke-linejoin="round" stroke-linecap="butt" d="m538.9896 145.47171l0.36480713 15.733887" fill-rule="evenodd"></path><path fill="#000000" stroke="#000000" stroke-width="1.0" stroke-linecap="butt" d="m537.7032 161.2439l1.7564697 4.498581l1.5460815 -4.575165z" fill-rule="evenodd"></path><path fill="#000000" fill-opacity="0.0" d="m551.016 141.2236l16.472473 24.15747" fill-rule="nonzero"></path><path stroke="#000000" stroke-width="1.0" stroke-linejoin="round" stroke-linecap="butt" d="m551.016 141.2236l13.092224 19.200256" fill-rule="evenodd"></path><path fill="#000000" stroke="#000000" stroke-width="1.0" stroke-linecap="butt" d="m562.7435 161.35439l3.9213257 2.818863l-1.1919556 -4.6799316z" fill-rule="evenodd"></path><path fill="#cfe2f3" d="m476.98807 130.96776l0 0c0 -8.0103 7.614685 -14.503929 17.007874 -14.503929l0 0c9.393188 0 17.007874 6.4936295 17.007874 14.503929l0 0c0 8.010315 -7.614685 14.503937 -17.007874 14.503937l0 0c-9.393188 0 -17.007874 -6.493622 -17.007874 -14.503937z" fill-rule="nonzero"></path><path stroke="#000000" stroke-width="1.0" stroke-linejoin="round" stroke-linecap="butt" d="m476.98807 130.96776l0 0c0 -8.0103 7.614685 -14.503929 17.007874 -14.503929l0 0c9.393188 0 17.007874 6.4936295 17.007874 14.503929l0 0c0 8.010315 -7.614685 14.503937 -17.007874 14.503937l0 0c-9.393188 0 -17.007874 -6.493622 -17.007874 -14.503937z" fill-rule="nonzero"></path><path fill="#000000" d="m493.4139 133.22589q0 0.265625 -0.09375 0.359375q-0.09375 0.09375 -0.34375 0.09375q-0.234375 0 -0.328125 -0.078125q-0.078125 -0.09375 -0.078125 -0.375q0 -0.265625 0.09375 -0.359375q0.09375 -0.09375 0.328125 -0.09375q0.234375 0 0.328125 0.09375q0.09375 0.078125 0.09375 0.359375zm2.0195312 0q0 0.265625 -0.09375 0.359375q-0.09375 0.09375 -0.34375 0.09375q-0.234375 0 -0.328125 -0.078125q-0.078125 -0.09375 -0.078125 -0.375q0 -0.265625 0.09375 -0.359375q0.09375 -0.09375 0.328125 -0.09375q0.234375 0 0.328125 0.09375q0.09375 0.078125 0.09375 0.359375z" fill-rule="nonzero"></path><path fill="#000000" fill-opacity="0.0" d="m481.96957 141.2236l-13.8897705 24.15747" fill-rule="nonzero"></path><path stroke="#000000" stroke-width="1.0" stroke-linejoin="round" stroke-linecap="butt" d="m481.96957 141.2236l-10.899078 18.955963" fill-rule="evenodd"></path><path fill="#000000" stroke="#000000" stroke-width="1.0" stroke-linecap="butt" d="m469.63858 159.35626l-0.8300781 4.7574615l3.6939087 -3.110855z" fill-rule="evenodd"></path><path fill="#000000" fill-opacity="0.0" d="m493.99594 145.4717l0.50393677 21.732285" fill-rule="nonzero"></path><path stroke="#000000" stroke-width="1.0" stroke-linejoin="round" stroke-linecap="butt" d="m493.99594 145.47171l0.36483765 15.733887" fill-rule="evenodd"></path><path fill="#000000" stroke="#000000" stroke-width="1.0" stroke-linecap="butt" d="m492.7095 161.2439l1.7564697 4.498581l1.5461121 -4.575165z" fill-rule="evenodd"></path><path fill="#cfe2f3" d="m566.7474 130.96776l0 0c0 -8.0103 7.614685 -14.503929 17.007874 -14.503929l0 0c9.393188 0 17.007874 6.4936295 17.007874 14.503929l0 0c0 8.010315 -7.614685 14.503937 -17.007874 14.503937l0 0c-9.393188 0 -17.007874 -6.493622 -17.007874 -14.503937z" fill-rule="nonzero"></path><path stroke="#000000" stroke-width="1.0" stroke-linejoin="round" stroke-linecap="butt" d="m566.7474 130.96776l0 0c0 -8.0103 7.614685 -14.503929 17.007874 -14.503929l0 0c9.393188 0 17.007874 6.4936295 17.007874 14.503929l0 0c0 8.010315 -7.614685 14.503937 -17.007874 14.503937l0 0c-9.393188 0 -17.007874 -6.493622 -17.007874 -14.503937z" fill-rule="nonzero"></path><path fill="#000000" d="m583.1732 133.22589q0 0.265625 -0.09375 0.359375q-0.09375 0.09375 -0.34375 0.09375q-0.234375 0 -0.328125 -0.078125q-0.078125 -0.09375 -0.078125 -0.375q0 -0.265625 0.09375 -0.359375q0.09375 -0.09375 0.328125 -0.09375q0.234375 0 0.328125 0.09375q0.09375 0.078125 0.09375 0.359375zm2.0195312 0q0 0.265625 -0.09375 0.359375q-0.09375 0.09375 -0.34375 0.09375q-0.234375 0 -0.328125 -0.078125q-0.078125 -0.09375 -0.078125 -0.375q0 -0.265625 0.09375 -0.359375q0.09375 -0.09375 0.328125 -0.09375q0.234375 0 0.328125 0.09375q0.09375 0.078125 0.09375 0.359375z" fill-rule="nonzero"></path><path fill="#000000" fill-opacity="0.0" d="m583.75525 145.4717l0.5039673 21.732285" fill-rule="nonzero"></path><path stroke="#000000" stroke-width="1.0" stroke-linejoin="round" stroke-linecap="butt" d="m583.75525 145.47171l0.36480713 15.733887" fill-rule="evenodd"></path><path fill="#000000" stroke="#000000" stroke-width="1.0" stroke-linecap="butt" d="m582.4688 161.2439l1.7564697 4.498581l1.5460815 -4.575165z" fill-rule="evenodd"></path><path fill="#000000" fill-opacity="0.0" d="m595.7816 141.2236l16.472473 24.15747" fill-rule="nonzero"></path><path stroke="#000000" stroke-width="1.0" stroke-linejoin="round" stroke-linecap="butt" d="m595.7817 141.2236l13.092224 19.200256" fill-rule="evenodd"></path><path fill="#000000" stroke="#000000" stroke-width="1.0" stroke-linecap="butt" d="m607.5092 161.35439l3.9212646 2.818863l-1.1919556 -4.6799316z" fill-rule="evenodd"></path><path fill="#000000" fill-opacity="0.0" d="m423.479 104.54855l19.055115 0" fill-rule="nonzero"></path><path stroke="#000000" stroke-width="1.0" stroke-linejoin="round" stroke-linecap="butt" d="m423.479 104.54855l15.628021 0" fill-rule="evenodd"></path><path fill="#000000" stroke="#000000" stroke-width="1.0" stroke-linecap="butt" d="m439.10703 104.54855l-1.1245728 1.124588l3.0897522 -1.124588l-3.0897522 -1.1245804z" fill-rule="evenodd"></path><path fill="#000000" fill-opacity="0.0" d="m13.880577 17.540682l195.2756 0l0 174.01575l-195.2756 0z" fill-rule="nonzero"></path><path stroke="#ff0000" stroke-width="1.0" stroke-linejoin="round" stroke-linecap="butt" d="m13.880577 17.540682l195.2756 0l0 174.01575l-195.2756 0z" fill-rule="nonzero"></path><path fill="#cfe2f3" d="m93.33672 82.93439l0 0c0 -8.0103 7.614685 -14.503937 17.007874 -14.503937l0 0c9.393188 0 17.007874 6.493637 17.007874 14.503937l0 0c0 8.010307 -7.614685 14.503937 -17.007874 14.503937l0 0c-9.393188 0 -17.007874 -6.4936295 -17.007874 -14.503937z" fill-rule="nonzero"></path><path stroke="#000000" stroke-width="1.0" stroke-linejoin="round" stroke-linecap="butt" d="m93.33672 82.93439l0 0c0 -8.0103 7.614685 -14.503937 17.007874 -14.503937l0 0c9.393188 0 17.007874 6.493637 17.007874 14.503937l0 0c0 8.010307 -7.614685 14.503937 -17.007874 14.503937l0 0c-9.393188 0 -17.007874 -6.4936295 -17.007874 -14.503937z" fill-rule="nonzero"></path><path fill="#000000" d="m109.455925 86.55189q-0.015625 0.0625 -0.046875 0.078125q-0.015625 0.03125 -0.0625 0.046875q-0.03125 0.015625 -0.09375 0.015625q-0.046875 0.015625 -0.140625 0.015625q-0.09375 0 -0.15625 -0.015625q-0.0625 0 -0.109375 -0.03125q-0.03125 -0.03125 -0.046875 -0.0625q0 -0.03125 0.03125 -0.09375l2.359375 -6.484375q0.015625 -0.046875 0.03125 -0.078125q0.03125 -0.03125 0.0625 -0.046875q0.046875 -0.015625 0.109375 -0.015625q0.0625 -0.015625 0.140625 -0.015625q0.09375 0 0.15625 0.015625q0.0625 0.015625 0.09375 0.046875q0.046875 0.015625 0.046875 0.0625q0.015625 0.03125 -0.015625 0.078125l-2.359375 6.484375z" fill-rule="nonzero"></path><path fill="#000000" fill-opacity="0.0" d="m98.318214 93.19022l-31.81102 23.275589" fill-rule="nonzero"></path><path stroke="#000000" stroke-width="1.0" stroke-linejoin="round" stroke-linecap="butt" d="m98.318214 93.19022l-26.968788 19.732613" fill-rule="evenodd"></path><path fill="#000000" stroke="#000000" stroke-width="1.0" stroke-linecap="butt" d="m70.374084 111.58982l-2.6870804 4.0127487l4.6377716 -1.3467255z" fill-rule="evenodd"></path><path fill="#000000" fill-opacity="0.0" d="m122.36402 93.18183l31.811028 23.275589" fill-rule="nonzero"></path><path stroke="#000000" stroke-width="1.0" stroke-linejoin="round" stroke-linecap="butt" d="m122.36402 93.18183l26.968788 19.732613" fill-rule="evenodd"></path><path fill="#000000" stroke="#000000" stroke-width="1.0" stroke-linecap="butt" d="m148.35747 114.24745l4.6377563 1.3467178l-2.6870728 -4.0127487z" fill-rule="evenodd"></path><path fill="#000000" fill-opacity="0.0" d="m13.881889 17.540682l195.2756 0l0 36.62992l-195.2756 0z" fill-rule="nonzero"></path><path fill="#000000" d="m109.91031 41.69756q0 0.0625 -0.03125 0.109375q-0.015625 0.046875 -0.09375 0.078125q-0.0625 0.03125 -0.171875 0.046875q-0.109375 0.015625 -0.265625 0.015625q-0.15625 0 -0.265625 -0.015625q-0.109375 -0.015625 -0.1875 -0.046875q-0.0625 -0.03125 -0.09375 -0.078125q-0.03125 -0.046875 -0.03125 -0.109375l0 -0.921875q-0.5625 0.59375 -1.15625 0.9375q-0.59375 0.34375 -1.3125 0.34375q-0.765625 0 -1.3125 -0.296875q-0.546875 -0.3125 -0.890625 -0.828125q-0.34375 -0.515625 -0.5 -1.203125q-0.15625 -0.6875 -0.15625 -1.453125q0 -0.90625 0.1875 -1.640625q0.203125 -0.734375 0.578125 -1.25q0.390625 -0.515625 0.953125 -0.78125q0.578125 -0.28125 1.3125 -0.28125q0.625 0 1.125 0.265625q0.515625 0.265625 1.015625 0.796875l0 -4.093752q0 -0.046875 0.03125 -0.09375q0.03125 -0.0625 0.109375 -0.078125q0.078125 -0.03125 0.1875 -0.046875q0.125 -0.03125 0.3125 -0.03125q0.203125 0 0.328125 0.03125q0.125 0.015625 0.1875 0.046875q0.078125 0.015625 0.109375 0.078125q0.03125 0.046875 0.03125 0.09375l0 10.406252zm-1.296875 -4.9375q-0.515625 -0.65625 -1.015625 -0.984375q-0.484375 -0.34375 -1.015625 -0.34375q-0.484375 0 -0.828125 0.234375q-0.34375 0.234375 -0.5625 0.625q-0.21875 0.375 -0.3125 0.859375q-0.09375 0.484375 -0.09375 0.984375q0 0.53125 0.078125 1.046875q0.078125 0.5 0.28125 0.890625q0.203125 0.390625 0.53125 0.640625q0.34375 0.234375 0.859375 0.234375q0.25 0 0.484375 -0.0625q0.25 -0.078125 0.5 -0.234375q0.25 -0.171875 0.515625 -0.4375q0.28125 -0.265625 0.578125 -0.640625l0 -2.8125zm4.96875 4.9375q0 0.0625 -0.03125 0.109375q-0.03125 0.046875 -0.109375 0.078125q-0.0625 0.03125 -0.1875 0.046875q-0.125 0.015625 -0.3125 0.015625q-0.1875 0 -0.3125 -0.015625q-0.125 -0.015625 -0.203125 -0.046875q-0.078125 -0.03125 -0.109375 -0.078125q-0.015625 -0.046875 -0.015625 -0.109375l0 -7.03125q0 -0.046875 0.015625 -0.09375q0.03125 -0.046875 0.109375 -0.078125q0.078125 -0.03125 0.203125 -0.046875q0.125 -0.015625 0.3125 -0.015625q0.1875 0 0.3125 0.015625q0.125 0.015625 0.1875 0.046875q0.078125 0.03125 0.109375 0.078125q0.03125 0.046875 0.03125 0.09375l0 7.03125zm0.15625 -9.40625q0 0.453125 -0.171875 0.625q-0.171875 0.15625 -0.640625 0.15625q-0.453125 0 -0.625 -0.15625q-0.15625 -0.15625 -0.15625 -0.609375q0 -0.4531269 0.171875 -0.6093769q0.171875 -0.171875 0.625 -0.171875q0.453125 0 0.625 0.171875q0.171875 0.15625 0.171875 0.5937519zm6.34375 2.84375q0 0.171875 -0.015625 0.296875q0 0.109375 -0.03125 0.171875q-0.015625 0.0625 -0.0625 0.109375q-0.03125 0.03125 -0.09375 0.03125q-0.0625 0 -0.15625 -0.03125q-0.078125 -0.046875 -0.203125 -0.078125q-0.109375 -0.03125 -0.25 -0.0625q-0.140625 -0.03125 -0.296875 -0.03125q-0.203125 0 -0.390625 0.078125q-0.1875 0.078125 -0.390625 0.265625q-0.203125 0.171875 -0.4375 0.46875q-0.21875 0.296875 -0.5 0.71875l0 4.625q0 0.0625 -0.03125 0.109375q-0.03125 0.046875 -0.109375 0.078125q-0.0625 0.03125 -0.1875 0.046875q-0.125 0.015625 -0.3125 0.015625q-0.1875 0 -0.3125 -0.015625q-0.125 -0.015625 -0.203125 -0.046875q-0.078125 -0.03125 -0.109375 -0.078125q-0.015625 -0.046875 -0.015625 -0.109375l0 -7.03125q0 -0.0625 0.015625 -0.09375q0.03125 -0.046875 0.09375 -0.078125q0.078125 -0.046875 0.1875 -0.046875q0.109375 -0.015625 0.28125 -0.015625q0.171875 0 0.28125 0.015625q0.125 0 0.1875 0.046875q0.0625 0.03125 0.078125 0.078125q0.03125 0.03125 0.03125 0.09375l0 1.03125q0.296875 -0.421875 0.546875 -0.6875q0.25 -0.265625 0.46875 -0.421875q0.234375 -0.15625 0.453125 -0.203125q0.234375 -0.0625 0.453125 -0.0625q0.109375 0 0.234375 0.015625q0.125 0 0.265625 0.03125q0.140625 0.03125 0.25 0.078125q0.125 0.03125 0.171875 0.078125q0.046875 0.03125 0.0625 0.078125q0.015625 0.03125 0.015625 0.09375q0.015625 0.046875 0.015625 0.15625q0.015625 0.09375 0.015625 0.28125z" fill-rule="nonzero"></path><path fill="#cfe2f3" d="m93.33608 130.96776l0 0c0 -8.0103 7.614685 -14.503929 17.007874 -14.503929l0 0c9.393188 0 17.007874 6.4936295 17.007874 14.503929l0 0c0 8.010315 -7.614685 14.503937 -17.007874 14.503937l0 0c-9.393188 0 -17.007874 -6.493622 -17.007874 -14.503937z" fill-rule="nonzero"></path><path stroke="#000000" stroke-width="1.0" stroke-linejoin="round" stroke-linecap="butt" d="m93.33608 130.96776l0 0c0 -8.0103 7.614685 -14.503929 17.007874 -14.503929l0 0c9.393188 0 17.007874 6.4936295 17.007874 14.503929l0 0c0 8.010315 -7.614685 14.503937 -17.007874 14.503937l0 0c-9.393188 0 -17.007874 -6.493622 -17.007874 -14.503937z" fill-rule="nonzero"></path><path fill="#000000" d="m109.761925 133.22589q0 0.265625 -0.09375 0.359375q-0.09375 0.09375 -0.34375 0.09375q-0.234375 0 -0.328125 -0.078125q-0.078125 -0.09375 -0.078125 -0.375q0 -0.265625 0.09375 -0.359375q0.09375 -0.09375 0.328125 -0.09375q0.234375 0 0.328125 0.09375q0.09375 0.078125 0.09375 0.359375zm2.0195312 0q0 0.265625 -0.09375 0.359375q-0.09375 0.09375 -0.34375 0.09375q-0.234375 0 -0.328125 -0.078125q-0.078125 -0.09375 -0.078125 -0.375q0 -0.265625 0.09375 -0.359375q0.09375 -0.09375 0.328125 -0.09375q0.234375 0 0.328125 0.09375q0.09375 0.078125 0.09375 0.359375z" fill-rule="nonzero"></path><path fill="#000000" fill-opacity="0.0" d="m110.3446 97.438324l0 19.023628" fill-rule="nonzero"></path><path stroke="#000000" stroke-width="1.0" stroke-linejoin="round" stroke-linecap="butt" d="m110.344604 97.43833l0 13.023621" fill-rule="evenodd"></path><path fill="#000000" stroke="#000000" stroke-width="1.0" stroke-linecap="butt" d="m108.69287 110.46195l1.6517334 4.538101l1.6517258 -4.538101z" fill-rule="evenodd"></path><path fill="#000000" fill-opacity="0.0" d="m98.31757 141.2236l-13.8897705 24.15747" fill-rule="nonzero"></path><path stroke="#000000" stroke-width="1.0" stroke-linejoin="round" stroke-linecap="butt" d="m98.31757 141.2236l-10.899071 18.955963" fill-rule="evenodd"></path><path fill="#000000" stroke="#000000" stroke-width="1.0" stroke-linecap="butt" d="m85.98659 159.35626l-0.8300934 4.7574615l3.6939316 -3.110855z" fill-rule="evenodd"></path><path fill="#000000" fill-opacity="0.0" d="m110.343956 145.4717l0.50393677 21.732285" fill-rule="nonzero"></path><path stroke="#000000" stroke-width="1.0" stroke-linejoin="round" stroke-linecap="butt" d="m110.343956 145.47171l0.36483765 15.733887" fill-rule="evenodd"></path><path fill="#000000" stroke="#000000" stroke-width="1.0" stroke-linecap="butt" d="m109.05751 161.2439l1.7564926 4.498581l1.5460815 -4.575165z" fill-rule="evenodd"></path><path fill="#000000" fill-opacity="0.0" d="m122.37034 141.2236l16.472435 24.15747" fill-rule="nonzero"></path><path stroke="#000000" stroke-width="1.0" stroke-linejoin="round" stroke-linecap="butt" d="m122.37034 141.2236l13.0922165 19.200256" fill-rule="evenodd"></path><path fill="#000000" stroke="#000000" stroke-width="1.0" stroke-linecap="butt" d="m134.09789 161.35439l3.9212952 2.818863l-1.1919556 -4.6799316z" fill-rule="evenodd"></path><path fill="#cfe2f3" d="m48.342407 130.96776l0 0c0 -8.0103 7.614685 -14.503929 17.007874 -14.503929l0 0c9.393188 0 17.007874 6.4936295 17.007874 14.503929l0 0c0 8.010315 -7.614685 14.503937 -17.007874 14.503937l0 0c-9.393188 0 -17.007874 -6.493622 -17.007874 -14.503937z" fill-rule="nonzero"></path><path stroke="#000000" stroke-width="1.0" stroke-linejoin="round" stroke-linecap="butt" d="m48.342407 130.96776l0 0c0 -8.0103 7.614685 -14.503929 17.007874 -14.503929l0 0c9.393188 0 17.007874 6.4936295 17.007874 14.503929l0 0c0 8.010315 -7.614685 14.503937 -17.007874 14.503937l0 0c-9.393188 0 -17.007874 -6.493622 -17.007874 -14.503937z" fill-rule="nonzero"></path><path fill="#000000" d="m64.76825 133.22589q0 0.265625 -0.09375 0.359375q-0.09375 0.09375 -0.34375 0.09375q-0.234375 0 -0.328125 -0.078125q-0.078121185 -0.09375 -0.078121185 -0.375q0 -0.265625 0.093746185 -0.359375q0.09375 -0.09375 0.328125 -0.09375q0.234375 0 0.328125 0.09375q0.09375 0.078125 0.09375 0.359375zm2.0195312 0q0 0.265625 -0.09375 0.359375q-0.09375 0.09375 -0.34375 0.09375q-0.234375 0 -0.328125 -0.078125q-0.078125 -0.09375 -0.078125 -0.375q0 -0.265625 0.09375 -0.359375q0.09375 -0.09375 0.328125 -0.09375q0.234375 0 0.328125 0.09375q0.09375 0.078125 0.09375 0.359375z" fill-rule="nonzero"></path><path fill="#000000" fill-opacity="0.0" d="m53.3239 141.2236l-13.889763 24.15747" fill-rule="nonzero"></path><path stroke="#000000" stroke-width="1.0" stroke-linejoin="round" stroke-linecap="butt" d="m53.323902 141.2236l-10.899067 18.955963" fill-rule="evenodd"></path><path fill="#000000" stroke="#000000" stroke-width="1.0" stroke-linecap="butt" d="m40.99292 159.35626l-0.8300972 4.7574615l3.6939316 -3.110855z" fill-rule="evenodd"></path><path fill="#000000" fill-opacity="0.0" d="m65.35028 145.4717l0.50393677 21.732285" fill-rule="nonzero"></path><path stroke="#000000" stroke-width="1.0" stroke-linejoin="round" stroke-linecap="butt" d="m65.35028 145.47171l0.36484528 15.733887" fill-rule="evenodd"></path><path fill="#000000" stroke="#000000" stroke-width="1.0" stroke-linecap="butt" d="m64.063835 161.2439l1.7564926 4.498581l1.5460892 -4.575165z" fill-rule="evenodd"></path><path fill="#cfe2f3" d="m138.10172 130.96776l0 0c0 -8.0103 7.614685 -14.503929 17.007874 -14.503929l0 0c9.393188 0 17.007874 6.4936295 17.007874 14.503929l0 0c0 8.010315 -7.614685 14.503937 -17.007874 14.503937l0 0c-9.393188 0 -17.007874 -6.493622 -17.007874 -14.503937z" fill-rule="nonzero"></path><path stroke="#000000" stroke-width="1.0" stroke-linejoin="round" stroke-linecap="butt" d="m138.10172 130.96776l0 0c0 -8.0103 7.614685 -14.503929 17.007874 -14.503929l0 0c9.393188 0 17.007874 6.4936295 17.007874 14.503929l0 0c0 8.010315 -7.614685 14.503937 -17.007874 14.503937l0 0c-9.393188 0 -17.007874 -6.493622 -17.007874 -14.503937z" fill-rule="nonzero"></path><path fill="#000000" d="m154.52756 133.22589q0 0.265625 -0.09375 0.359375q-0.09375 0.09375 -0.34375 0.09375q-0.234375 0 -0.328125 -0.078125q-0.078125 -0.09375 -0.078125 -0.375q0 -0.265625 0.09375 -0.359375q0.09375 -0.09375 0.328125 -0.09375q0.234375 0 0.328125 0.09375q0.09375 0.078125 0.09375 0.359375zm2.0195312 0q0 0.265625 -0.09375 0.359375q-0.09375 0.09375 -0.34375 0.09375q-0.234375 0 -0.328125 -0.078125q-0.078125 -0.09375 -0.078125 -0.375q0 -0.265625 0.09375 -0.359375q0.09375 -0.09375 0.328125 -0.09375q0.234375 0 0.328125 0.09375q0.09375 0.078125 0.09375 0.359375z" fill-rule="nonzero"></path><path fill="#000000" fill-opacity="0.0" d="m155.10959 145.4717l0.50393677 21.732285" fill-rule="nonzero"></path><path stroke="#000000" stroke-width="1.0" stroke-linejoin="round" stroke-linecap="butt" d="m155.10959 145.47171l0.36483765 15.733887" fill-rule="evenodd"></path><path fill="#000000" stroke="#000000" stroke-width="1.0" stroke-linecap="butt" d="m153.82315 161.2439l1.756485 4.498581l1.5460815 -4.575165z" fill-rule="evenodd"></path><path fill="#000000" fill-opacity="0.0" d="m167.13597 141.2236l16.472443 24.15747" fill-rule="nonzero"></path><path stroke="#000000" stroke-width="1.0" stroke-linejoin="round" stroke-linecap="butt" d="m167.13599 141.2236l13.092194 19.200256" fill-rule="evenodd"></path><path fill="#000000" stroke="#000000" stroke-width="1.0" stroke-linecap="butt" d="m178.86353 161.35439l3.9212952 2.818863l-1.1919556 -4.6799316z" fill-rule="evenodd"></path><path fill="#000000" fill-opacity="0.0" d="m119.014435 209.16536l195.2756 0l0 174.01573l-195.2756 0z" fill-rule="nonzero"></path><path stroke="#00ff00" stroke-width="1.0" stroke-linejoin="round" stroke-linecap="butt" d="m119.014435 209.16536l195.2756 0l0 174.01573l-195.2756 0z" fill-rule="nonzero"></path><path fill="#cfe2f3" d="m198.47058 274.55905l0 0c0 -8.010284 7.614685 -14.503937 17.007874 -14.503937l0 0c9.393188 0 17.007874 6.4936523 17.007874 14.503937l0 0c0 8.010315 -7.614685 14.503937 -17.007874 14.503937l0 0c-9.393188 0 -17.007874 -6.493622 -17.007874 -14.503937z" fill-rule="nonzero"></path><path stroke="#000000" stroke-width="1.0" stroke-linejoin="round" stroke-linecap="butt" d="m198.47058 274.55905l0 0c0 -8.010284 7.614685 -14.503937 17.007874 -14.503937l0 0c9.393188 0 17.007874 6.4936523 17.007874 14.503937l0 0c0 8.010315 -7.614685 14.503937 -17.007874 14.503937l0 0c-9.393188 0 -17.007874 -6.493622 -17.007874 -14.503937z" fill-rule="nonzero"></path><path fill="#000000" d="m214.58978 278.17657q-0.015625 0.0625 -0.046875 0.078125q-0.015625 0.03125 -0.0625 0.046875q-0.03125 0.015625 -0.09375 0.015625q-0.046875 0.015625 -0.140625 0.015625q-0.09375 0 -0.15625 -0.015625q-0.0625 0 -0.109375 -0.03125q-0.03125 -0.03125 -0.046875 -0.0625q0 -0.03125 0.03125 -0.09375l2.359375 -6.484375q0.015625 -0.046875 0.03125 -0.078125q0.03125 -0.03125 0.0625 -0.046875q0.046875 -0.015625 0.109375 -0.015625q0.0625 -0.015625 0.140625 -0.015625q0.09375 0 0.15625 0.015625q0.0625 0.015625 0.09375 0.046875q0.046875 0.015625 0.046875 0.0625q0.015625 0.03125 -0.015625 0.078125l-2.359375 6.484375z" fill-rule="nonzero"></path><path fill="#000000" fill-opacity="0.0" d="m203.45207 284.81488l-31.81102 23.275604" fill-rule="nonzero"></path><path stroke="#000000" stroke-width="1.0" stroke-linejoin="round" stroke-linecap="butt" d="m203.45207 284.8149l-26.96878 19.732605" fill-rule="evenodd"></path><path fill="#000000" stroke="#000000" stroke-width="1.0" stroke-linecap="butt" d="m175.50793 303.2145l-2.6870728 4.012726l4.6377716 -1.3467102z" fill-rule="evenodd"></path><path fill="#000000" fill-opacity="0.0" d="m227.49788 284.8065l31.81102 23.275604" fill-rule="nonzero"></path><path stroke="#000000" stroke-width="1.0" stroke-linejoin="round" stroke-linecap="butt" d="m227.4979 284.8065l26.96878 19.732605" fill-rule="evenodd"></path><path fill="#000000" stroke="#000000" stroke-width="1.0" stroke-linecap="butt" d="m253.49133 305.8721l4.6377563 1.3467407l-2.6870728 -4.0127563z" fill-rule="evenodd"></path><path fill="#000000" fill-opacity="0.0" d="m119.01575 209.16536l195.2756 0l0 36.629913l-195.2756 0z" fill-rule="nonzero"></path><path fill="#000000" d="m207.56761 231.41599q0 0.53125 -0.203125 0.953125q-0.1875 0.421875 -0.5625 0.71875q-0.359375 0.28125 -0.875 0.4375q-0.5 0.15625 -1.109375 0.15625q-0.375 0 -0.71875 -0.0625q-0.34375 -0.0625 -0.609375 -0.15625q-0.265625 -0.09375 -0.453125 -0.1875q-0.1875 -0.09375 -0.28125 -0.171875q-0.078125 -0.078125 -0.125 -0.21875q-0.03125 -0.140625 -0.03125 -0.390625q0 -0.140625 0.015625 -0.234375q0.015625 -0.109375 0.03125 -0.171875q0.03125 -0.0625 0.0625 -0.09375q0.046875 -0.03125 0.109375 -0.03125q0.078125 0 0.25 0.109375q0.171875 0.109375 0.40625 0.234375q0.25 0.125 0.578125 0.234375q0.34375 0.09375 0.78125 0.09375q0.328125 0 0.59375 -0.0625q0.265625 -0.078125 0.453125 -0.203125q0.203125 -0.140625 0.3125 -0.34375q0.109375 -0.21875 0.109375 -0.515625q0 -0.296875 -0.15625 -0.5q-0.15625 -0.203125 -0.40625 -0.359375q-0.25 -0.15625 -0.5625 -0.265625q-0.3125 -0.125 -0.640625 -0.25q-0.328125 -0.140625 -0.65625 -0.3125q-0.3125 -0.171875 -0.5625 -0.40625q-0.25 -0.25 -0.40625 -0.578125q-0.140625 -0.34375 -0.140625 -0.8125q0 -0.40625 0.15625 -0.78125q0.15625 -0.390625 0.46875 -0.671875q0.328125 -0.28125 0.8125 -0.453125q0.484375 -0.171875 1.125 -0.171875q0.28125 0 0.5625 0.046875q0.28125 0.046875 0.5 0.125q0.234375 0.0625 0.390625 0.140625q0.15625 0.078125 0.234375 0.140625q0.09375 0.0625 0.109375 0.109375q0.03125 0.046875 0.046875 0.109375q0.015625 0.0625 0.015625 0.15625q0.015625 0.078125 0.015625 0.203125q0 0.125 -0.015625 0.234375q0 0.09375 -0.03125 0.15625q-0.03125 0.0625 -0.078125 0.09375q-0.03125 0.015625 -0.078125 0.015625q-0.0625 0 -0.203125 -0.078125q-0.125 -0.09375 -0.34375 -0.1875q-0.203125 -0.09375 -0.5 -0.171875q-0.28125 -0.09375 -0.640625 -0.09375q-0.328125 0 -0.578125 0.078125q-0.25 0.0625 -0.421875 0.203125q-0.15625 0.140625 -0.234375 0.328125q-0.078125 0.1875 -0.078125 0.40625q0 0.296875 0.15625 0.515625q0.15625 0.203125 0.40625 0.359375q0.25 0.15625 0.5625 0.28125q0.328125 0.125 0.65625 0.265625q0.328125 0.125 0.65625 0.296875q0.328125 0.15625 0.578125 0.390625q0.25 0.234375 0.390625 0.5625q0.15625 0.328125 0.15625 0.78125zm8.3203125 -1.71875q0 0.921875 -0.203125 1.65625q-0.203125 0.734375 -0.59375 1.25q-0.375 0.515625 -0.953125 0.796875q-0.5625 0.28125 -1.296875 0.28125q-0.3125 0 -0.578125 -0.0625q-0.265625 -0.0625 -0.53125 -0.203125q-0.25 -0.140625 -0.5 -0.34375q-0.25 -0.203125 -0.53125 -0.46875l0 3.515625q0 0.0625 -0.03125 0.109375q-0.03125 0.046875 -0.109375 0.078125q-0.0625 0.03125 -0.1875 0.046875q-0.125 0.015625 -0.3125 0.015625q-0.1875 0 -0.3125 -0.015625q-0.125 -0.015625 -0.203125 -0.046875q-0.078125 -0.03125 -0.109375 -0.078125q-0.015625 -0.046875 -0.015625 -0.109375l0 -9.828125q0 -0.0625 0.015625 -0.109375q0.03125 -0.046875 0.09375 -0.078125q0.078125 -0.03125 0.1875 -0.03125q0.109375 -0.015625 0.265625 -0.015625q0.15625 0 0.265625 0.015625q0.109375 0 0.171875 0.03125q0.078125 0.03125 0.09375 0.078125q0.03125 0.046875 0.03125 0.109375l0 0.953125q0.328125 -0.328125 0.625 -0.5625q0.296875 -0.25 0.59375 -0.40625q0.296875 -0.171875 0.609375 -0.25q0.328125 -0.078125 0.671875 -0.078125q0.765625 0 1.296875 0.296875q0.546875 0.296875 0.890625 0.8125q0.34375 0.515625 0.5 1.203125q0.15625 0.671875 0.15625 1.4375zm-1.359375 0.15625q0 -0.546875 -0.09375 -1.046875q-0.078125 -0.5 -0.28125 -0.890625q-0.1875 -0.390625 -0.53125 -0.625q-0.328125 -0.234375 -0.828125 -0.234375q-0.25 0 -0.5 0.078125q-0.234375 0.0625 -0.484375 0.234375q-0.25 0.15625 -0.53125 0.421875q-0.265625 0.25 -0.578125 0.640625l0 2.796875q0.53125 0.640625 1.0 0.984375q0.484375 0.34375 1.015625 0.34375q0.484375 0 0.828125 -0.234375q0.34375 -0.234375 0.5625 -0.625q0.21875 -0.390625 0.3125 -0.875q0.109375 -0.484375 0.109375 -0.96875zm9.296875 -0.34375q0 0.296875 -0.15625 0.4375q-0.15625 0.125 -0.34375 0.125l-4.609375 0q0 0.578125 0.109375 1.046875q0.125 0.46875 0.390625 0.8125q0.28125 0.328125 0.71875 0.515625q0.4375 0.171875 1.0625 0.171875q0.5 0 0.890625 -0.078125q0.390625 -0.078125 0.671875 -0.171875q0.296875 -0.109375 0.46875 -0.1875q0.1875 -0.09375 0.28125 -0.09375q0.0625 0 0.09375 0.03125q0.046875 0.03125 0.0625 0.09375q0.03125 0.046875 0.046875 0.140625q0.015625 0.09375 0.015625 0.234375q0 0.109375 -0.015625 0.1875q0 0.0625 -0.015625 0.125q-0.015625 0.0625 -0.046875 0.109375q-0.015625 0.046875 -0.0625 0.09375q-0.046875 0.03125 -0.265625 0.140625q-0.203125 0.09375 -0.546875 0.1875q-0.328125 0.09375 -0.765625 0.171875q-0.4375 0.078125 -0.9375 0.078125q-0.875 0 -1.53125 -0.25q-0.640625 -0.25 -1.09375 -0.71875q-0.4375 -0.484375 -0.671875 -1.203125q-0.21875 -0.71875 -0.21875 -1.671875q0 -0.90625 0.234375 -1.625q0.234375 -0.71875 0.671875 -1.21875q0.4375 -0.515625 1.0625 -0.78125q0.625 -0.265625 1.40625 -0.265625q0.828125 0 1.40625 0.265625q0.578125 0.265625 0.953125 0.71875q0.375 0.4375 0.546875 1.046875q0.1875 0.609375 0.1875 1.296875l0 0.234375zm-1.296875 -0.390625q0.015625 -1.015625 -0.453125 -1.59375q-0.46875 -0.578125 -1.40625 -0.578125q-0.46875 0 -0.828125 0.1875q-0.359375 0.171875 -0.609375 0.46875q-0.234375 0.296875 -0.375 0.703125q-0.125 0.390625 -0.140625 0.8125l3.8125 0zm8.3046875 3.140625q0 0.125 -0.015625 0.234375q0 0.09375 -0.015625 0.15625q-0.015625 0.0625 -0.046875 0.125q-0.03125 0.046875 -0.125 0.140625q-0.09375 0.09375 -0.328125 0.25q-0.234375 0.140625 -0.53125 0.265625q-0.296875 0.109375 -0.640625 0.171875q-0.34375 0.078125 -0.703125 0.078125q-0.765625 0 -1.359375 -0.25q-0.578125 -0.265625 -0.96875 -0.734375q-0.390625 -0.484375 -0.609375 -1.1875q-0.203125 -0.703125 -0.203125 -1.609375q0 -1.046875 0.25 -1.78125q0.265625 -0.75 0.703125 -1.21875q0.4375 -0.484375 1.03125 -0.71875q0.609375 -0.234375 1.296875 -0.234375q0.34375 0 0.65625 0.0625q0.3125 0.0625 0.578125 0.171875q0.265625 0.09375 0.46875 0.234375q0.21875 0.125 0.3125 0.21875q0.09375 0.09375 0.125 0.15625q0.03125 0.046875 0.046875 0.125q0.03125 0.078125 0.03125 0.171875q0.015625 0.09375 0.015625 0.234375q0 0.296875 -0.078125 0.421875q-0.0625 0.125 -0.15625 0.125q-0.125 0 -0.28125 -0.125q-0.140625 -0.140625 -0.375 -0.296875q-0.234375 -0.15625 -0.578125 -0.28125q-0.328125 -0.125 -0.78125 -0.125q-0.921875 0 -1.421875 0.71875q-0.5 0.703125 -0.5 2.0625q0 0.6875 0.125 1.203125q0.140625 0.5 0.390625 0.84375q0.25 0.34375 0.609375 0.515625q0.359375 0.171875 0.828125 0.171875q0.453125 0 0.78125 -0.140625q0.34375 -0.140625 0.578125 -0.3125q0.25 -0.171875 0.421875 -0.296875q0.171875 -0.140625 0.265625 -0.140625q0.046875 0 0.078125 0.03125q0.046875 0.03125 0.078125 0.109375q0.03125 0.0625 0.03125 0.1875q0.015625 0.109375 0.015625 0.265625z" fill-rule="nonzero"></path><path fill="#cfe2f3" d="m198.46994 322.59244l0 0c0 -8.010315 7.614685 -14.503937 17.007874 -14.503937l0 0c9.393188 0 17.007874 6.493622 17.007874 14.503937l0 0c0 8.010315 -7.614685 14.503937 -17.007874 14.503937l0 0c-9.393188 0 -17.007874 -6.493622 -17.007874 -14.503937z" fill-rule="nonzero"></path><path stroke="#000000" stroke-width="1.0" stroke-linejoin="round" stroke-linecap="butt" d="m198.46994 322.59244l0 0c0 -8.010315 7.614685 -14.503937 17.007874 -14.503937l0 0c9.393188 0 17.007874 6.493622 17.007874 14.503937l0 0c0 8.010315 -7.614685 14.503937 -17.007874 14.503937l0 0c-9.393188 0 -17.007874 -6.493622 -17.007874 -14.503937z" fill-rule="nonzero"></path><path fill="#000000" d="m214.89578 324.85056q0 0.265625 -0.09375 0.359375q-0.09375 0.09375 -0.34375 0.09375q-0.234375 0 -0.328125 -0.078125q-0.078125 -0.09375 -0.078125 -0.375q0 -0.265625 0.09375 -0.359375q0.09375 -0.09375 0.328125 -0.09375q0.234375 0 0.328125 0.09375q0.09375 0.078125 0.09375 0.359375zm2.0195312 0q0 0.265625 -0.09375 0.359375q-0.09375 0.09375 -0.34375 0.09375q-0.234375 0 -0.328125 -0.078125q-0.078125 -0.09375 -0.078125 -0.375q0 -0.265625 0.09375 -0.359375q0.09375 -0.09375 0.328125 -0.09375q0.234375 0 0.328125 0.09375q0.09375 0.078125 0.09375 0.359375z" fill-rule="nonzero"></path><path fill="#000000" fill-opacity="0.0" d="m215.47845 289.063l0 19.02362" fill-rule="nonzero"></path><path stroke="#000000" stroke-width="1.0" stroke-linejoin="round" stroke-linecap="butt" d="m215.47845 289.063l0 13.023621" fill-rule="evenodd"></path><path fill="#000000" stroke="#000000" stroke-width="1.0" stroke-linecap="butt" d="m213.82672 302.0866l1.6517334 4.5381165l1.6517334 -4.5381165z" fill-rule="evenodd"></path><path fill="#000000" fill-opacity="0.0" d="m203.45143 332.84827l-13.8897705 24.15747" fill-rule="nonzero"></path><path stroke="#000000" stroke-width="1.0" stroke-linejoin="round" stroke-linecap="butt" d="m203.45142 332.84827l-10.899063 18.955963" fill-rule="evenodd"></path><path fill="#000000" stroke="#000000" stroke-width="1.0" stroke-linecap="butt" d="m191.12044 350.98093l-0.8300934 4.757477l3.6939392 -3.1108704z" fill-rule="evenodd"></path><path fill="#000000" fill-opacity="0.0" d="m215.47781 337.09637l0.50393677 21.73227" fill-rule="nonzero"></path><path stroke="#000000" stroke-width="1.0" stroke-linejoin="round" stroke-linecap="butt" d="m215.47781 337.09637l0.3648529 15.733887" fill-rule="evenodd"></path><path fill="#000000" stroke="#000000" stroke-width="1.0" stroke-linecap="butt" d="m214.19138 352.86856l1.756485 4.498596l1.5460815 -4.575165z" fill-rule="evenodd"></path><path fill="#000000" fill-opacity="0.0" d="m227.5042 332.84827l16.472443 24.15747" fill-rule="nonzero"></path><path stroke="#000000" stroke-width="1.0" stroke-linejoin="round" stroke-linecap="butt" d="m227.5042 332.84827l13.092224 19.200256" fill-rule="evenodd"></path><path fill="#000000" stroke="#000000" stroke-width="1.0" stroke-linecap="butt" d="m239.23175 352.97906l3.9212952 2.8188477l-1.1919556 -4.6799316z" fill-rule="evenodd"></path><path fill="#cfe2f3" d="m153.47627 322.59244l0 0c0 -8.010315 7.614685 -14.503937 17.007874 -14.503937l0 0c9.393188 0 17.007874 6.493622 17.007874 14.503937l0 0c0 8.010315 -7.614685 14.503937 -17.007874 14.503937l0 0c-9.393188 0 -17.007874 -6.493622 -17.007874 -14.503937z" fill-rule="nonzero"></path><path stroke="#000000" stroke-width="1.0" stroke-linejoin="round" stroke-linecap="butt" d="m153.47627 322.59244l0 0c0 -8.010315 7.614685 -14.503937 17.007874 -14.503937l0 0c9.393188 0 17.007874 6.493622 17.007874 14.503937l0 0c0 8.010315 -7.614685 14.503937 -17.007874 14.503937l0 0c-9.393188 0 -17.007874 -6.493622 -17.007874 -14.503937z" fill-rule="nonzero"></path><path fill="#000000" d="m169.90211 324.85056q0 0.265625 -0.09375 0.359375q-0.09375 0.09375 -0.34375 0.09375q-0.234375 0 -0.328125 -0.078125q-0.078125 -0.09375 -0.078125 -0.375q0 -0.265625 0.09375 -0.359375q0.09375 -0.09375 0.328125 -0.09375q0.234375 0 0.328125 0.09375q0.09375 0.078125 0.09375 0.359375zm2.0195312 0q0 0.265625 -0.09375 0.359375q-0.09375 0.09375 -0.34375 0.09375q-0.234375 0 -0.328125 -0.078125q-0.078125 -0.09375 -0.078125 -0.375q0 -0.265625 0.09375 -0.359375q0.09375 -0.09375 0.328125 -0.09375q0.234375 0 0.328125 0.09375q0.09375 0.078125 0.09375 0.359375z" fill-rule="nonzero"></path><path fill="#000000" fill-opacity="0.0" d="m158.45776 332.84827l-13.8897705 24.15747" fill-rule="nonzero"></path><path stroke="#000000" stroke-width="1.0" stroke-linejoin="round" stroke-linecap="butt" d="m158.45776 332.84827l-10.899063 18.955963" fill-rule="evenodd"></path><path fill="#000000" stroke="#000000" stroke-width="1.0" stroke-linecap="butt" d="m146.12677 350.98093l-0.8300934 4.757477l3.6939392 -3.1108704z" fill-rule="evenodd"></path><path fill="#000000" fill-opacity="0.0" d="m170.48415 337.09637l0.50393677 21.73227" fill-rule="nonzero"></path><path stroke="#000000" stroke-width="1.0" stroke-linejoin="round" stroke-linecap="butt" d="m170.48415 337.09637l0.36483765 15.733887" fill-rule="evenodd"></path><path fill="#000000" stroke="#000000" stroke-width="1.0" stroke-linecap="butt" d="m169.1977 352.86856l1.7565002 4.498596l1.5460815 -4.575165z" fill-rule="evenodd"></path><path fill="#cfe2f3" d="m243.23558 322.59244l0 0c0 -8.010315 7.614685 -14.503937 17.007858 -14.503937l0 0c9.393188 0 17.007874 6.493622 17.007874 14.503937l0 0c0 8.010315 -7.614685 14.503937 -17.007874 14.503937l0 0c-9.393173 0 -17.007858 -6.493622 -17.007858 -14.503937z" fill-rule="nonzero"></path><path stroke="#000000" stroke-width="1.0" stroke-linejoin="round" stroke-linecap="butt" d="m243.23558 322.59244l0 0c0 -8.010315 7.614685 -14.503937 17.007858 -14.503937l0 0c9.393188 0 17.007874 6.493622 17.007874 14.503937l0 0c0 8.010315 -7.614685 14.503937 -17.007874 14.503937l0 0c-9.393173 0 -17.007858 -6.493622 -17.007858 -14.503937z" fill-rule="nonzero"></path><path fill="#000000" d="m259.6614 324.85056q0 0.265625 -0.09375 0.359375q-0.09375 0.09375 -0.34375 0.09375q-0.234375 0 -0.328125 -0.078125q-0.078125 -0.09375 -0.078125 -0.375q0 -0.265625 0.09375 -0.359375q0.09375 -0.09375 0.328125 -0.09375q0.234375 0 0.328125 0.09375q0.09375 0.078125 0.09375 0.359375zm2.0195312 0q0 0.265625 -0.09375 0.359375q-0.09375 0.09375 -0.34375 0.09375q-0.234375 0 -0.328125 -0.078125q-0.078125 -0.09375 -0.078125 -0.375q0 -0.265625 0.09375 -0.359375q0.09375 -0.09375 0.328125 -0.09375q0.234375 0 0.328125 0.09375q0.09375 0.078125 0.09375 0.359375z" fill-rule="nonzero"></path><path fill="#000000" fill-opacity="0.0" d="m260.24344 337.09637l0.50393677 21.73227" fill-rule="nonzero"></path><path stroke="#000000" stroke-width="1.0" stroke-linejoin="round" stroke-linecap="butt" d="m260.24347 337.09637l0.36483765 15.733887" fill-rule="evenodd"></path><path fill="#000000" stroke="#000000" stroke-width="1.0" stroke-linecap="butt" d="m258.957 352.86856l1.7565002 4.498596l1.5460815 -4.575165z" fill-rule="evenodd"></path><path fill="#000000" fill-opacity="0.0" d="m272.26984 332.84827l16.472443 24.15747" fill-rule="nonzero"></path><path stroke="#000000" stroke-width="1.0" stroke-linejoin="round" stroke-linecap="butt" d="m272.26984 332.84827l13.092194 19.200256" fill-rule="evenodd"></path><path fill="#000000" stroke="#000000" stroke-width="1.0" stroke-linecap="butt" d="m283.99738 352.97906l3.9212952 2.8188477l-1.1919556 -4.6799316z" fill-rule="evenodd"></path><path fill="#000000" fill-opacity="0.0" d="m337.38977 209.16536l195.27557 0l0 174.01573l-195.27557 0z" fill-rule="nonzero"></path><path stroke="#00ffff" stroke-width="1.0" stroke-linejoin="round" stroke-linecap="butt" d="m337.38977 209.16536l195.27557 0l0 174.01573l-195.27557 0z" fill-rule="nonzero"></path><path fill="#cfe2f3" d="m416.84592 274.55905l0 0c0 -8.010284 7.614685 -14.503937 17.007874 -14.503937l0 0c9.393188 0 17.007874 6.4936523 17.007874 14.503937l0 0c0 8.010315 -7.614685 14.503937 -17.007874 14.503937l0 0c-9.393188 0 -17.007874 -6.493622 -17.007874 -14.503937z" fill-rule="nonzero"></path><path stroke="#000000" stroke-width="1.0" stroke-linejoin="round" stroke-linecap="butt" d="m416.84592 274.55905l0 0c0 -8.010284 7.614685 -14.503937 17.007874 -14.503937l0 0c9.393188 0 17.007874 6.4936523 17.007874 14.503937l0 0c0 8.010315 -7.614685 14.503937 -17.007874 14.503937l0 0c-9.393188 0 -17.007874 -6.493622 -17.007874 -14.503937z" fill-rule="nonzero"></path><path fill="#000000" d="m432.96512 278.17657q-0.015625 0.0625 -0.046875 0.078125q-0.015625 0.03125 -0.0625 0.046875q-0.03125 0.015625 -0.09375 0.015625q-0.046875 0.015625 -0.140625 0.015625q-0.09375 0 -0.15625 -0.015625q-0.0625 0 -0.109375 -0.03125q-0.03125 -0.03125 -0.046875 -0.0625q0 -0.03125 0.03125 -0.09375l2.359375 -6.484375q0.015625 -0.046875 0.03125 -0.078125q0.03125 -0.03125 0.0625 -0.046875q0.046875 -0.015625 0.109375 -0.015625q0.0625 -0.015625 0.140625 -0.015625q0.09375 0 0.15625 0.015625q0.0625 0.015625 0.09375 0.046875q0.046875 0.015625 0.046875 0.0625q0.015625 0.03125 -0.015625 0.078125l-2.359375 6.484375z" fill-rule="nonzero"></path><path fill="#000000" fill-opacity="0.0" d="m421.8274 284.81488l-31.811005 23.275604" fill-rule="nonzero"></path><path stroke="#000000" stroke-width="1.0" stroke-linejoin="round" stroke-linecap="butt" d="m421.8274 284.8149l-26.968811 19.732605" fill-rule="evenodd"></path><path fill="#000000" stroke="#000000" stroke-width="1.0" stroke-linecap="butt" d="m393.88327 303.21448l-2.6871033 4.0127563l4.637787 -1.3467102z" fill-rule="evenodd"></path><path fill="#000000" fill-opacity="0.0" d="m445.8732 284.8065l31.811035 23.275604" fill-rule="nonzero"></path><path stroke="#000000" stroke-width="1.0" stroke-linejoin="round" stroke-linecap="butt" d="m445.8732 284.8065l26.96878 19.732605" fill-rule="evenodd"></path><path fill="#000000" stroke="#000000" stroke-width="1.0" stroke-linecap="butt" d="m471.86664 305.8721l4.6377563 1.3467407l-2.6870728 -4.0127563z" fill-rule="evenodd"></path><path fill="#000000" fill-opacity="0.0" d="m337.39108 209.16536l195.2756 0l0 36.629913l-195.2756 0z" fill-rule="nonzero"></path><path fill="#000000" d="m428.107 229.69724q0 0.921875 -0.203125 1.65625q-0.203125 0.734375 -0.59375 1.25q-0.375 0.515625 -0.953125 0.796875q-0.5625 0.28125 -1.296875 0.28125q-0.3125 0 -0.578125 -0.0625q-0.265625 -0.0625 -0.53125 -0.203125q-0.25 -0.140625 -0.5 -0.34375q-0.25 -0.203125 -0.53125 -0.46875l0 3.515625q0 0.0625 -0.03125 0.109375q-0.03125 0.046875 -0.109375 0.078125q-0.0625 0.03125 -0.1875 0.046875q-0.125 0.015625 -0.3125 0.015625q-0.1875 0 -0.3125 -0.015625q-0.125 -0.015625 -0.203125 -0.046875q-0.078125 -0.03125 -0.109375 -0.078125q-0.015625 -0.046875 -0.015625 -0.109375l0 -9.828125q0 -0.0625 0.015625 -0.109375q0.03125 -0.046875 0.09375 -0.078125q0.078125 -0.03125 0.1875 -0.03125q0.109375 -0.015625 0.265625 -0.015625q0.15625 0 0.265625 0.015625q0.109375 0 0.171875 0.03125q0.078125 0.03125 0.09375 0.078125q0.03125 0.046875 0.03125 0.109375l0 0.953125q0.328125 -0.328125 0.625 -0.5625q0.296875 -0.25 0.59375 -0.40625q0.296875 -0.171875 0.609375 -0.25q0.328125 -0.078125 0.671875 -0.078125q0.765625 0 1.296875 0.296875q0.546875 0.296875 0.890625 0.8125q0.34375 0.515625 0.5 1.203125q0.15625 0.671875 0.15625 1.4375zm-1.359375 0.15625q0 -0.546875 -0.09375 -1.046875q-0.078125 -0.5 -0.28125 -0.890625q-0.1875 -0.390625 -0.53125 -0.625q-0.328125 -0.234375 -0.828125 -0.234375q-0.25 0 -0.5 0.078125q-0.234375 0.0625 -0.484375 0.234375q-0.25 0.15625 -0.53125 0.421875q-0.265625 0.25 -0.578125 0.640625l0 2.796875q0.53125 0.640625 1.0 0.984375q0.484375 0.34375 1.015625 0.34375q0.484375 0 0.828125 -0.234375q0.34375 -0.234375 0.5625 -0.625q0.21875 -0.390625 0.3125 -0.875q0.109375 -0.484375 0.109375 -0.96875zm7.40625 -3.09375q0 0.171875 -0.015625 0.296875q0 0.109375 -0.03125 0.171875q-0.015625 0.0625 -0.0625 0.109375q-0.03125 0.03125 -0.09375 0.03125q-0.0625 0 -0.15625 -0.03125q-0.078125 -0.046875 -0.203125 -0.078125q-0.109375 -0.03125 -0.25 -0.0625q-0.140625 -0.03125 -0.296875 -0.03125q-0.203125 0 -0.390625 0.078125q-0.1875 0.078125 -0.390625 0.265625q-0.203125 0.171875 -0.4375 0.46875q-0.21875 0.296875 -0.5 0.71875l0 4.625q0 0.0625 -0.03125 0.109375q-0.03125 0.046875 -0.109375 0.078125q-0.0625 0.03125 -0.1875 0.046875q-0.125 0.015625 -0.3125 0.015625q-0.1875 0 -0.3125 -0.015625q-0.125 -0.015625 -0.203125 -0.046875q-0.078125 -0.03125 -0.109375 -0.078125q-0.015625 -0.046875 -0.015625 -0.109375l0 -7.03125q0 -0.0625 0.015625 -0.09375q0.03125 -0.046875 0.09375 -0.078125q0.078125 -0.046875 0.1875 -0.046875q0.109375 -0.015625 0.28125 -0.015625q0.171875 0 0.28125 0.015625q0.125 0 0.1875 0.046875q0.0625 0.03125 0.078125 0.078125q0.03125 0.03125 0.03125 0.09375l0 1.03125q0.296875 -0.421875 0.546875 -0.6875q0.25 -0.265625 0.46875 -0.421875q0.234375 -0.15625 0.453125 -0.203125q0.234375 -0.0625 0.453125 -0.0625q0.109375 0 0.234375 0.015625q0.125 0 0.265625 0.03125q0.140625 0.03125 0.25 0.078125q0.125 0.03125 0.171875 0.078125q0.046875 0.03125 0.0625 0.078125q0.015625 0.03125 0.015625 0.09375q0.015625 0.046875 0.015625 0.15625q0.015625 0.09375 0.015625 0.28125zm8.0 2.96875q0 0.859375 -0.234375 1.59375q-0.21875 0.71875 -0.671875 1.25q-0.4375 0.515625 -1.125 0.8125q-0.671875 0.296875 -1.5625 0.296875q-0.859375 0 -1.515625 -0.265625q-0.640625 -0.265625 -1.078125 -0.75q-0.421875 -0.5 -0.640625 -1.203125q-0.203125 -0.703125 -0.203125 -1.59375q0 -0.859375 0.21875 -1.578125q0.234375 -0.71875 0.671875 -1.234375q0.453125 -0.53125 1.125 -0.8125q0.671875 -0.296875 1.578125 -0.296875q0.859375 0 1.5 0.265625q0.65625 0.25 1.078125 0.75q0.4375 0.484375 0.640625 1.1875q0.21875 0.703125 0.21875 1.578125zm-1.359375 0.09375q0 -0.578125 -0.109375 -1.078125q-0.09375 -0.515625 -0.34375 -0.890625q-0.234375 -0.390625 -0.65625 -0.609375q-0.40625 -0.21875 -1.03125 -0.21875q-0.5625 0 -0.984375 0.203125q-0.40625 0.203125 -0.671875 0.578125q-0.265625 0.359375 -0.390625 0.875q-0.125 0.5 -0.125 1.109375q0 0.578125 0.09375 1.09375q0.109375 0.5 0.359375 0.875q0.25 0.375 0.65625 0.609375q0.421875 0.21875 1.03125 0.21875q0.5625 0 0.96875 -0.203125q0.421875 -0.203125 0.6875 -0.5625q0.265625 -0.375 0.390625 -0.875q0.125 -0.515625 0.125 -1.125zm8.3125 2.4375q0 0.125 -0.015625 0.234375q0 0.09375 -0.015625 0.15625q-0.015625 0.0625 -0.046875 0.125q-0.03125 0.046875 -0.125 0.140625q-0.09375 0.09375 -0.328125 0.25q-0.234375 0.140625 -0.53125 0.265625q-0.296875 0.109375 -0.640625 0.171875q-0.34375 0.078125 -0.703125 0.078125q-0.765625 0 -1.359375 -0.25q-0.578125 -0.265625 -0.96875 -0.734375q-0.390625 -0.484375 -0.609375 -1.1875q-0.203125 -0.703125 -0.203125 -1.609375q0 -1.046875 0.25 -1.78125q0.265625 -0.75 0.703125 -1.21875q0.4375 -0.484375 1.03125 -0.71875q0.609375 -0.234375 1.296875 -0.234375q0.34375 0 0.65625 0.0625q0.3125 0.0625 0.578125 0.171875q0.265625 0.09375 0.46875 0.234375q0.21875 0.125 0.3125 0.21875q0.09375 0.09375 0.125 0.15625q0.03125 0.046875 0.046875 0.125q0.03125 0.078125 0.03125 0.171875q0.015625 0.09375 0.015625 0.234375q0 0.296875 -0.078125 0.421875q-0.0625 0.125 -0.15625 0.125q-0.125 0 -0.28125 -0.125q-0.140625 -0.140625 -0.375 -0.296875q-0.234375 -0.15625 -0.578125 -0.28125q-0.328125 -0.125 -0.78125 -0.125q-0.921875 0 -1.421875 0.71875q-0.5 0.703125 -0.5 2.0625q0 0.6875 0.125 1.203125q0.140625 0.5 0.390625 0.84375q0.25 0.34375 0.609375 0.515625q0.359375 0.171875 0.828125 0.171875q0.453125 0 0.78125 -0.140625q0.34375 -0.140625 0.578125 -0.3125q0.25 -0.171875 0.421875 -0.296875q0.171875 -0.140625 0.265625 -0.140625q0.046875 0 0.078125 0.03125q0.046875 0.03125 0.078125 0.109375q0.03125 0.0625 0.03125 0.1875q0.015625 0.109375 0.015625 0.265625z" fill-rule="nonzero"></path><path fill="#cfe2f3" d="m416.84528 322.59244l0 0c0 -8.010315 7.614685 -14.503937 17.007874 -14.503937l0 0c9.393188 0 17.007874 6.493622 17.007874 14.503937l0 0c0 8.010315 -7.614685 14.503937 -17.007874 14.503937l0 0c-9.393188 0 -17.007874 -6.493622 -17.007874 -14.503937z" fill-rule="nonzero"></path><path stroke="#000000" stroke-width="1.0" stroke-linejoin="round" stroke-linecap="butt" d="m416.84528 322.59244l0 0c0 -8.010315 7.614685 -14.503937 17.007874 -14.503937l0 0c9.393188 0 17.007874 6.493622 17.007874 14.503937l0 0c0 8.010315 -7.614685 14.503937 -17.007874 14.503937l0 0c-9.393188 0 -17.007874 -6.493622 -17.007874 -14.503937z" fill-rule="nonzero"></path><path fill="#000000" d="m433.27112 324.85056q0 0.265625 -0.09375 0.359375q-0.09375 0.09375 -0.34375 0.09375q-0.234375 0 -0.328125 -0.078125q-0.078125 -0.09375 -0.078125 -0.375q0 -0.265625 0.09375 -0.359375q0.09375 -0.09375 0.328125 -0.09375q0.234375 0 0.328125 0.09375q0.09375 0.078125 0.09375 0.359375zm2.0195312 0q0 0.265625 -0.09375 0.359375q-0.09375 0.09375 -0.34375 0.09375q-0.234375 0 -0.328125 -0.078125q-0.078125 -0.09375 -0.078125 -0.375q0 -0.265625 0.09375 -0.359375q0.09375 -0.09375 0.328125 -0.09375q0.234375 0 0.328125 0.09375q0.09375 0.078125 0.09375 0.359375z" fill-rule="nonzero"></path><path fill="#000000" fill-opacity="0.0" d="m433.8538 289.063l0 19.02362" fill-rule="nonzero"></path><path stroke="#000000" stroke-width="1.0" stroke-linejoin="round" stroke-linecap="butt" d="m433.8538 289.063l0 13.023621" fill-rule="evenodd"></path><path fill="#000000" stroke="#000000" stroke-width="1.0" stroke-linecap="butt" d="m432.20206 302.0866l1.6517334 4.5381165l1.6517334 -4.5381165z" fill-rule="evenodd"></path><path fill="#000000" fill-opacity="0.0" d="m421.82675 332.84827l-13.8897705 24.15747" fill-rule="nonzero"></path><path stroke="#000000" stroke-width="1.0" stroke-linejoin="round" stroke-linecap="butt" d="m421.82678 332.84827l-10.899078 18.955963" fill-rule="evenodd"></path><path fill="#000000" stroke="#000000" stroke-width="1.0" stroke-linecap="butt" d="m409.4958 350.98093l-0.83010864 4.757477l3.6939392 -3.1108704z" fill-rule="evenodd"></path><path fill="#000000" fill-opacity="0.0" d="m433.85315 337.09637l0.50393677 21.73227" fill-rule="nonzero"></path><path stroke="#000000" stroke-width="1.0" stroke-linejoin="round" stroke-linecap="butt" d="m433.85315 337.09637l0.36480713 15.733887" fill-rule="evenodd"></path><path fill="#000000" stroke="#000000" stroke-width="1.0" stroke-linecap="butt" d="m432.5667 352.86856l1.7564697 4.498596l1.5460815 -4.575165z" fill-rule="evenodd"></path><path fill="#000000" fill-opacity="0.0" d="m445.87952 332.84827l16.472443 24.15747" fill-rule="nonzero"></path><path stroke="#000000" stroke-width="1.0" stroke-linejoin="round" stroke-linecap="butt" d="m445.87952 332.84827l13.092224 19.200256" fill-rule="evenodd"></path><path fill="#000000" stroke="#000000" stroke-width="1.0" stroke-linecap="butt" d="m457.60706 352.97906l3.9212952 2.8188477l-1.1919556 -4.6799316z" fill-rule="evenodd"></path><path fill="#cfe2f3" d="m371.8516 322.59244l0 0c0 -8.010315 7.614685 -14.503937 17.007874 -14.503937l0 0c9.393188 0 17.007874 6.493622 17.007874 14.503937l0 0c0 8.010315 -7.614685 14.503937 -17.007874 14.503937l0 0c-9.393188 0 -17.007874 -6.493622 -17.007874 -14.503937z" fill-rule="nonzero"></path><path stroke="#000000" stroke-width="1.0" stroke-linejoin="round" stroke-linecap="butt" d="m371.8516 322.59244l0 0c0 -8.010315 7.614685 -14.503937 17.007874 -14.503937l0 0c9.393188 0 17.007874 6.493622 17.007874 14.503937l0 0c0 8.010315 -7.614685 14.503937 -17.007874 14.503937l0 0c-9.393188 0 -17.007874 -6.493622 -17.007874 -14.503937z" fill-rule="nonzero"></path><path fill="#000000" d="m388.27744 324.85056q0 0.265625 -0.09375 0.359375q-0.09375 0.09375 -0.34375 0.09375q-0.234375 0 -0.328125 -0.078125q-0.078125 -0.09375 -0.078125 -0.375q0 -0.265625 0.09375 -0.359375q0.09375 -0.09375 0.328125 -0.09375q0.234375 0 0.328125 0.09375q0.09375 0.078125 0.09375 0.359375zm2.0195312 0q0 0.265625 -0.09375 0.359375q-0.09375 0.09375 -0.34375 0.09375q-0.234375 0 -0.328125 -0.078125q-0.078125 -0.09375 -0.078125 -0.375q0 -0.265625 0.09375 -0.359375q0.09375 -0.09375 0.328125 -0.09375q0.234375 0 0.328125 0.09375q0.09375 0.078125 0.09375 0.359375z" fill-rule="nonzero"></path><path fill="#000000" fill-opacity="0.0" d="m376.8331 332.84827l-13.8897705 24.15747" fill-rule="nonzero"></path><path stroke="#000000" stroke-width="1.0" stroke-linejoin="round" stroke-linecap="butt" d="m376.8331 332.84827l-10.899078 18.955963" fill-rule="evenodd"></path><path fill="#000000" stroke="#000000" stroke-width="1.0" stroke-linecap="butt" d="m364.5021 350.98093l-0.83010864 4.757477l3.6939392 -3.1108704z" fill-rule="evenodd"></path><path fill="#000000" fill-opacity="0.0" d="m388.85947 337.09637l0.50393677 21.73227" fill-rule="nonzero"></path><path stroke="#000000" stroke-width="1.0" stroke-linejoin="round" stroke-linecap="butt" d="m388.85947 337.09637l0.36480713 15.733887" fill-rule="evenodd"></path><path fill="#000000" stroke="#000000" stroke-width="1.0" stroke-linecap="butt" d="m387.573 352.86856l1.7565002 4.498596l1.5460815 -4.575165z" fill-rule="evenodd"></path><path fill="#cfe2f3" d="m461.6109 322.59244l0 0c0 -8.010315 7.614685 -14.503937 17.007874 -14.503937l0 0c9.393188 0 17.007874 6.493622 17.007874 14.503937l0 0c0 8.010315 -7.614685 14.503937 -17.007874 14.503937l0 0c-9.393188 0 -17.007874 -6.493622 -17.007874 -14.503937z" fill-rule="nonzero"></path><path stroke="#000000" stroke-width="1.0" stroke-linejoin="round" stroke-linecap="butt" d="m461.6109 322.59244l0 0c0 -8.010315 7.614685 -14.503937 17.007874 -14.503937l0 0c9.393188 0 17.007874 6.493622 17.007874 14.503937l0 0c0 8.010315 -7.614685 14.503937 -17.007874 14.503937l0 0c-9.393188 0 -17.007874 -6.493622 -17.007874 -14.503937z" fill-rule="nonzero"></path><path fill="#000000" d="m478.03674 324.85056q0 0.265625 -0.09375 0.359375q-0.09375 0.09375 -0.34375 0.09375q-0.234375 0 -0.328125 -0.078125q-0.078125 -0.09375 -0.078125 -0.375q0 -0.265625 0.09375 -0.359375q0.09375 -0.09375 0.328125 -0.09375q0.234375 0 0.328125 0.09375q0.09375 0.078125 0.09375 0.359375zm2.0195312 0q0 0.265625 -0.09375 0.359375q-0.09375 0.09375 -0.34375 0.09375q-0.234375 0 -0.328125 -0.078125q-0.078125 -0.09375 -0.078125 -0.375q0 -0.265625 0.09375 -0.359375q0.09375 -0.09375 0.328125 -0.09375q0.234375 0 0.328125 0.09375q0.09375 0.078125 0.09375 0.359375z" fill-rule="nonzero"></path><path fill="#000000" fill-opacity="0.0" d="m478.61877 337.09637l0.50393677 21.73227" fill-rule="nonzero"></path><path stroke="#000000" stroke-width="1.0" stroke-linejoin="round" stroke-linecap="butt" d="m478.61877 337.09637l0.36480713 15.733887" fill-rule="evenodd"></path><path fill="#000000" stroke="#000000" stroke-width="1.0" stroke-linecap="butt" d="m477.33234 352.86856l1.7564697 4.498596l1.5460815 -4.575165z" fill-rule="evenodd"></path><path fill="#000000" fill-opacity="0.0" d="m490.64517 332.84827l16.472443 24.15747" fill-rule="nonzero"></path><path stroke="#000000" stroke-width="1.0" stroke-linejoin="round" stroke-linecap="butt" d="m490.64517 332.84827l13.092224 19.200256" fill-rule="evenodd"></path><path fill="#000000" stroke="#000000" stroke-width="1.0" stroke-linecap="butt" d="m502.37274 352.97906l3.9212952 2.8188477l-1.1919861 -4.6799316z" fill-rule="evenodd"></path><path fill="#000000" fill-opacity="0.0" d="m209.15617 104.54855l19.055115 0" fill-rule="nonzero"></path><path stroke="#000000" stroke-width="1.0" stroke-linejoin="round" stroke-linecap="butt" d="m209.15617 104.54855l15.6280365 0" fill-rule="evenodd"></path><path fill="#000000" stroke="#000000" stroke-width="1.0" stroke-linecap="butt" d="m224.7842 104.54855l-1.1245728 1.124588l3.0897675 -1.124588l-3.0897675 -1.1245804z" fill-rule="evenodd"></path></g></svg>

