<svg id="Ebene_1" data-name="Ebene 1" xmlns="http://www.w3.org/2000/svg" viewBox="0 0 992.08 468.96"><title>Elektra_v02</title><path d="M378.31,196.14h62.42v14H398v18.79h38.59v14H398V264h44v14H378.31Z"/><path d="M455,189.71h18.41V278H455Z"/><path d="M488.27,259.45V237.51q0-11.47,7.38-16.65t22.76-5.17q14.51,0,21.25,5t6.74,16.84v14.88H506.81v5.54q0,5.31,3.78,7.57t13.62,2.27a90.63,90.63,0,0,0,20.43-2.65v11.73a114.42,114.42,0,0,1-24,2.4Q488.27,279.25,488.27,259.45Zm40.61-17.53v-8.83a5,5,0,0,0-2.46-4.54c-1.64-1-4.4-1.51-8.26-1.51-4.46,0-7.44.5-9,1.51a5.23,5.23,0,0,0-2.39,4.54v8.83Z"/><path d="M560.53,189.71h18.41V278H560.53Zm19.17,54,20-26.73h21.06l-21.19,26.61,23,34.43H601.76Z"/><path d="M651.32,278.87a28.86,28.86,0,0,1-6.3-1.51,15.26,15.26,0,0,1-5.74-3.16,14.47,14.47,0,0,1-3.59-5.55,21.89,21.89,0,0,1-1.52-8.45V228.3H621.81V217h12.36V199.3h18.41V217h16.78V228.3H652.58v28.75a21.81,21.81,0,0,0,.76,6.62,5.18,5.18,0,0,0,2.9,3.16,17.2,17.2,0,0,0,6.56.94,60.89,60.89,0,0,0,6.56-.63v11.48a98.81,98.81,0,0,1-10.22.63A67.83,67.83,0,0,1,651.32,278.87Z"/><path d="M680,217h17.53v10.72a8.72,8.72,0,0,1,2.39-5.68,18.54,18.54,0,0,1,6.12-4.54,17.19,17.19,0,0,1,7.38-1.76h6.55V231h-6.3q-7.83,0-11.54,2.39t-3.72,7.95V278H680Z"/><path d="M734.49,277.67a9.89,9.89,0,0,1-5.93-5.67c-1.13-2.74-1.7-6.83-1.7-12.3q0-7.3,1.83-11.48a11.3,11.3,0,0,1,5.92-6q4.1-1.81,11.29-1.82h20.68v-4.17a12.22,12.22,0,0,0-1.07-5.8,6,6,0,0,0-3.91-2.64,35.19,35.19,0,0,0-8.51-.76,205.35,205.35,0,0,0-21.44,1.51V217A188.52,188.52,0,0,1,755,215.69q11.73,0,18.1,1.76t9.14,6.06Q785,227.8,785,236v42H767v-5.55a11.89,11.89,0,0,1-5.8,5.17q-3.66,1.63-13.87,1.64Q738.71,279.25,734.49,277.67Zm27.93-10.28a5.79,5.79,0,0,0,2.46-.75,4.09,4.09,0,0,0,1.2-1.64,5.56,5.56,0,0,0,.5-2.65V250.49H754a22.09,22.09,0,0,0-6.05.57,3.61,3.61,0,0,0-2.4,2.27,19.49,19.49,0,0,0-.63,6,18.2,18.2,0,0,0,.63,5.8,3.44,3.44,0,0,0,2.46,2.15,28.56,28.56,0,0,0,6.5.5A58,58,0,0,0,762.42,267.39Z"/><path d="M222,233a53.42,53.42,0,0,1,60.56-36.66A53.42,53.42,0,1,0,244.62,296a55.12,55.12,0,0,0,6.33,1.56A53.41,53.41,0,0,1,222,233Z"/><path d="M293.63,283.43a53.43,53.43,0,0,1-62-34.12,53.42,53.42,0,1,0,105.27-17,55.11,55.11,0,0,0-1.81-6.26A53.44,53.44,0,0,1,293.63,283.43Z"/><path d="M301.12,197.39a53.43,53.43,0,0,1,1.46,70.78,52.85,52.85,0,0,0,5.05-4.12,53.42,53.42,0,1,0-76.94-73.83A53.43,53.43,0,0,1,301.12,197.39Z"/></svg>