<?xml version="1.0" encoding="UTF-8" standalone="no"?>
<!DOCTYPE svg PUBLIC "-//W3C//DTD SVG 1.1//EN" "http://www.w3.org/Graphics/SVG/1.1/DTD/svg11.dtd">
<svg xmlns="http://www.w3.org/2000/svg" xmlns:xl="http://www.w3.org/1999/xlink" version="1.1" viewBox="336 80 320 309" width="320pt" height="309pt" xmlns:dc="http://purl.org/dc/elements/1.1/">
  <metadata> Produced by OmniGraffle 7.5 
    <dc:date>2017-12-29 11:21:41 +0000</dc:date>
  </metadata>
  <defs/>
  <g stroke="none" stroke-opacity="1" stroke-dasharray="none" fill="none" fill-opacity="1">
    <title>Canvas 1</title>
    <g>
      <title>Layer 1</title>
      <path d="M 372.45 230.89 C 392.0401 168.08195 455.3905 129.74225 520.12 141.52 C 474.25367 120.82614 420.5698 128.40492 382.2247 160.98726 C 343.87958 193.5696 327.7339 245.3259 340.75206 293.93128 C 353.7702 342.53667 393.62295 379.2947 443.12 388.35 C 383.1825 361.2382 352.86677 293.69167 372.45 230.89 Z" fill="white"/>
      <path d="M 547.22 353.82 C 483.0371 368.2626 418.16135 332.57275 396 270.63 C 401.0365 320.6819 434.4495 363.35733 481.8313 380.2547 C 529.21316 397.15205 582.08986 385.24934 617.66106 349.679 C 653.23225 314.10866 665.1362 261.23224 648.24 213.85 C 654.7457 279.3229 611.4088 339.36916 547.22 353.82 Z" fill="white"/>
      <path d="M 565.48 144.06 C 610.0831 192.42475 611.6189 266.45706 569.06 316.63 C 573.3617 313.53055 577.47247 310.17446 581.37 306.58 C 616.9927 273.7517 631.45186 223.86483 618.90556 177.07527 C 606.35926 130.28572 568.8808 94.32557 521.61266 83.72388 C 474.3445 73.12219 425.0979 89.63091 393.77 126.58 C 447.2074 88.2055 520.8717 95.70449 565.48 144.06 Z" fill="white"/>
    </g>
  </g>
</svg>
