<svg id="Ebene_1" data-name="Ebene 1" xmlns="http://www.w3.org/2000/svg" viewBox="0 0 992.08 468.96"><defs><style>.cls-1{fill:#2f418f;}.cls-2{fill:#409030;}.cls-3{fill:#dfa809;}</style></defs><title>Elektra_v02</title><path class="cls-1" d="M372.45,230.89a130.26,130.26,0,0,1,147.67-89.37,130.24,130.24,0,1,0-77,246.83A130.26,130.26,0,0,1,372.45,230.89Z"/><path class="cls-2" d="M547.22,353.82A130.24,130.24,0,0,1,396,270.63a130.23,130.23,0,1,0,252.24-56.78A130.27,130.27,0,0,1,547.22,353.82Z"/><path class="cls-3" d="M565.48,144.06a130.26,130.26,0,0,1,3.58,172.57,131.85,131.85,0,0,0,12.31-10.05,130.24,130.24,0,1,0-187.6-180A130.25,130.25,0,0,1,565.48,144.06Z"/></svg>