<?xml version="1.0" encoding="UTF-8" standalone="no"?>
<!DOCTYPE svg PUBLIC "-//W3C//DTD SVG 1.1//EN" "http://www.w3.org/Graphics/SVG/1.1/DTD/svg11.dtd">
<svg xmlns="http://www.w3.org/2000/svg" xmlns:xl="http://www.w3.org/1999/xlink" version="1.1" viewBox="-1 0 20 18" width="20pt" height="18pt" xmlns:dc="http://purl.org/dc/elements/1.1/">
  <metadata> Produced by OmniGraffle 7.5 
    <dc:date>2017-12-29 16:00:38 +0000</dc:date>
  </metadata>
  <defs/>
  <g stroke="none" stroke-opacity="1" stroke-dasharray="none" fill="none" fill-opacity="1">
    <title>Canvas 1</title>
    <g>
      <title>Layer 1</title>
      <path d="M 2.113358 8.791432 C 3.2590253 5.118294 6.96388 2.876114 10.749388 3.5648996 C 8.067035 2.3546823 4.927498 2.7979042 2.6850015 4.703383 C .4425041 6.608862 -.50172675 9.635671 .25960064 12.478209 C 1.0209269 15.320747 3.3515934 17.470428 6.2462775 18 C 2.7410156 16.414449 .9680925 12.464196 2.113358 8.791432 Z" fill="#999"/>
      <path d="M 12.334249 15.980618 C 8.580707 16.82525 4.786647 14.738037 3.490608 11.115504 C 3.7851523 14.042637 5.73921 16.53838 8.51019 17.52657 C 11.281173 18.51476 14.373506 17.818667 16.45378 15.738444 C 18.534052 13.658221 19.230218 10.565905 18.242095 7.794899 C 18.622561 11.623882 16.088135 15.135505 12.334249 15.980618 Z" fill="#999"/>
      <path d="M 13.402129 3.713444 C 16.010605 6.541909 16.100422 10.871463 13.611494 13.805674 C 13.863066 13.624412 14.103472 13.428142 14.331407 13.21793 C 16.414692 11.298067 17.260292 8.380586 16.52656 5.644241 C 15.792828 2.907897 13.601014 .8048773 10.836681 .18486977 C 8.072347 -.43513774 5.19231 .5303244 3.3601932 2.6911793 C 6.485317 .44696365 10.793349 .8855192 13.402129 3.713444 Z" fill="#999"/>
    </g>
  </g>
</svg>
