<svg id="Ebene_1" data-name="Ebene 1" xmlns="http://www.w3.org/2000/svg" viewBox="0 0 992.08 468.96"><defs><style>.cls-1,.cls-2{fill:#282828;}.cls-2{font-size:54.97px;font-family:Play-Regular, Play;letter-spacing:0.3em;}.cls-3{fill:#2f418f;}.cls-4{fill:#409030;}.cls-5{fill:#dfa809;}</style></defs><title>Elektra_v02</title><path class="cls-1" d="M382,168.81h62.43v14H401.64V201.6h38.58v14H401.64v21.06h44v14H382Z"/><path class="cls-1" d="M458.63,162.38h18.42v88.28H458.63Z"/><path class="cls-1" d="M491.93,232.12V210.18q0-11.48,7.37-16.65t22.77-5.17q14.49,0,21.24,5t6.75,16.84v14.88h-39.6v5.55c0,3.53,1.27,6,3.79,7.56s7.06,2.27,13.62,2.27a91.15,91.15,0,0,0,20.43-2.64v11.72a114.49,114.49,0,0,1-24,2.4Q491.93,251.92,491.93,232.12Zm40.6-17.53v-8.83a5,5,0,0,0-2.46-4.54c-1.64-1-4.39-1.51-8.26-1.51-4.45,0-7.44.51-8.95,1.51a5.22,5.22,0,0,0-2.4,4.54v8.83Z"/><path class="cls-1" d="M564.18,162.38H582.6v88.28H564.18Zm19.17,54,20-26.74h21.06l-21.18,26.61,23,34.43H605.42Z"/><path class="cls-1" d="M655,251.54a29.08,29.08,0,0,1-6.31-1.51,15.29,15.29,0,0,1-5.73-3.16,14.52,14.52,0,0,1-3.6-5.54,22,22,0,0,1-1.51-8.45V201H625.47V189.62h12.36V172h18.41v17.65H673V201H656.24v28.75a21.49,21.49,0,0,0,.76,6.62,5.1,5.1,0,0,0,2.9,3.16,17.16,17.16,0,0,0,6.56.94,60.78,60.78,0,0,0,6.55-.63v11.48a98.48,98.48,0,0,1-10.21.63A67.83,67.83,0,0,1,655,251.54Z"/><path class="cls-1" d="M683.6,189.62h17.53v10.72a8.65,8.65,0,0,1,2.4-5.67,18.17,18.17,0,0,1,6.12-4.54,17,17,0,0,1,7.37-1.77h6.56v15.26h-6.3q-7.83,0-11.54,2.4T702,214v36.7H683.6Z"/><path class="cls-1" d="M738.14,250.34a9.87,9.87,0,0,1-5.92-5.67q-1.71-4.09-1.7-12.3,0-7.31,1.82-11.47a11.32,11.32,0,0,1,5.93-6q4.1-1.83,11.29-1.83h20.68v-4.16a12.19,12.19,0,0,0-1.07-5.8,6,6,0,0,0-3.91-2.65,35.19,35.19,0,0,0-8.51-.76,208.17,208.17,0,0,0-21.44,1.51v-11.6a188.41,188.41,0,0,1,23.33-1.26q11.72,0,18.09,1.77t9.14,6.05q2.77,4.29,2.78,12.48v42h-18v-5.55a11.93,11.93,0,0,1-5.8,5.17q-3.66,1.64-13.88,1.64Q742.38,251.92,738.14,250.34Zm27.94-10.28a5.89,5.89,0,0,0,2.46-.75,3.92,3.92,0,0,0,1.19-1.64,5.43,5.43,0,0,0,.51-2.65V223.17H757.63a22.75,22.75,0,0,0-6.06.56,3.61,3.61,0,0,0-2.39,2.27,19.53,19.53,0,0,0-.63,6,18.31,18.31,0,0,0,.63,5.81,3.45,3.45,0,0,0,2.46,2.14,27.93,27.93,0,0,0,6.49.5A56.47,56.47,0,0,0,766.08,240.06Z"/><text class="cls-2" transform="translate(377.32 302.93)">INITIATIVE</text><path class="cls-3" d="M202.64,231.34a67.09,67.09,0,0,1,76.05-46,67.08,67.08,0,1,0-47.58,125.17,69.29,69.29,0,0,0,7.95,2A67.09,67.09,0,0,1,202.64,231.34Z"/><path class="cls-4" d="M292.65,294.65a67.08,67.08,0,0,1-77.89-42.84,69.3,69.3,0,0,0,1.31,8.08,67.08,67.08,0,1,0,128.6-37.32A67.08,67.08,0,0,1,292.65,294.65Z"/><path class="cls-5" d="M302.06,186.62a67.09,67.09,0,0,1,1.84,88.88,67.08,67.08,0,1,0-84.61-103.79,68.4,68.4,0,0,0-5.67,5.9A67.08,67.08,0,0,1,302.06,186.62Z"/></svg>