<?xml version="1.0" encoding="UTF-8" standalone="no"?>
<!DOCTYPE svg PUBLIC "-//W3C//DTD SVG 1.1//EN" "http://www.w3.org/Graphics/SVG/1.1/DTD/svg11.dtd">
<svg xmlns="http://www.w3.org/2000/svg" xmlns:xl="http://www.w3.org/1999/xlink" version="1.1" viewBox="0 0 504.00002 504.00002" width="42pc" height="42pc" xmlns:dc="http://purl.org/dc/elements/1.1/"><metadata> Produced by OmniGraffle 6.5.1 <dc:date>2016-03-10 20:43:41 +0000</dc:date></metadata><defs/><g stroke="none" stroke-opacity="1" stroke-dasharray="none" fill="none" fill-opacity="1"><title>Canvas 1</title><g><title>Layer 1</title><path d="M 354.8217 141.92289 C 384.57122 164.45526 407.32793 196.68761 417.73482 235.52707 C 442.60697 328.35025 387.52172 423.76072 294.6984 448.6324 C 255.85902 459.03948 216.56666 455.44778 182.1783 440.95015 C 223.52784 472.26842 278.38672 484.84745 332.3705 470.3824 C 425.19381 445.5107 480.27907 350.10025 455.40692 257.27706 C 440.94213 203.29319 402.6189 162.07351 354.8217 141.9229 Z" fill="#2f418f"/><path d="M 354.8217 141.92289 C 384.57122 164.45526 407.32793 196.68761 417.73482 235.52707 C 442.60697 328.35025 387.52172 423.76072 294.6984 448.6324 C 255.85902 459.03948 216.56666 455.44778 182.1783 440.95015 C 223.52784 472.26842 278.38672 484.84745 332.3705 470.3824 C 425.19381 445.5107 480.27907 350.10025 455.40692 257.27706 C 440.94213 203.29319 402.6189 162.07351 354.8217 141.9229 Z" stroke="black" stroke-linecap="round" stroke-linejoin="round" stroke-width=".25"/><path d="M 306.84628 383.45218 C 272.45791 397.94983 233.16553 401.54154 194.32613 391.13445 C 101.50281 366.26277 46.417557 270.85231 71.28971 178.02912 C 81.6966 139.189685 104.45328 106.95735 134.20278 84.42498 C 86.405594 104.5756 48.082395 145.795264 33.617613 199.77912 C 8.7454606 292.6023 63.830716 388.01277 156.65403 412.88444 C 210.63783 427.3495 265.49673 414.77046 306.84628 383.45217 Z" fill="#409030"/><path d="M 306.84628 383.45218 C 272.45791 397.94983 233.16553 401.54154 194.32613 391.13445 C 101.50281 366.26277 46.417557 270.85231 71.28971 178.02912 C 81.6966 139.189685 104.45328 106.95735 134.20278 84.42498 C 86.405594 104.5756 48.082395 145.795264 33.617613 199.77912 C 8.7454606 292.6023 63.830716 388.01277 156.65403 412.88444 C 210.63783 427.3495 265.49673 414.77046 306.84628 383.45217 Z" stroke="black" stroke-linecap="round" stroke-linejoin="round" stroke-width=".25"/><path d="M 117.60656 213.75007 C 122.24541 176.72004 138.78109 140.89599 167.2136 112.46362 C 235.16476 44.512113 345.33527 44.512113 413.28643 112.46362 C 441.71893 140.89597 458.2546 176.72 462.89346 213.75001 C 469.3411 162.28112 452.80543 108.48243 413.28643 68.96363 C 345.33527 1.0121228 235.16476 1.0121228 167.2136 68.96363 C 127.694584 108.48244 111.15891 162.28117 117.60657 213.75007 Z" fill="#dfa809"/><path d="M 117.60656 213.75007 C 122.24541 176.72004 138.78109 140.89599 167.2136 112.46362 C 235.16476 44.512113 345.33527 44.512113 413.28643 112.46362 C 441.71893 140.89597 458.2546 176.72 462.89346 213.75001 C 469.3411 162.28112 452.80543 108.48243 413.28643 68.96363 C 345.33527 1.0121228 235.16476 1.0121228 167.2136 68.96363 C 127.694584 108.48244 111.15891 162.28117 117.60657 213.75007 Z" stroke="black" stroke-linecap="round" stroke-linejoin="round" stroke-width=".25"/></g></g></svg>