<?xml version="1.0" standalone="no"?>
<!DOCTYPE svg PUBLIC "-//W3C//DTD SVG 20010904//EN"
 "http://www.w3.org/TR/2001/REC-SVG-20010904/DTD/svg10.dtd">
<svg version="1.0" xmlns="http://www.w3.org/2000/svg"
 width="800.000000pt" height="800.000000pt" viewBox="0 0 800.000000 800.000000"
 preserveAspectRatio="xMidYMid meet">
<metadata>
Created by potrace 1.11, written by Peter Selinger 2001-2013
</metadata>
<g transform="translate(0.000000,800.000000) scale(0.100000,-0.100000)"
fill="#000000" stroke="none">
<path d="M3745 7842 c-2 -2 -29 -5 -61 -7 -95 -7 -161 -15 -263 -31 -53 -9
-107 -17 -121 -19 -34 -4 -235 -57 -340 -88 -133 -40 -416 -153 -495 -199 -11
-6 -49 -27 -85 -46 -65 -34 -231 -132 -240 -142 -3 -3 -25 -18 -50 -35 -90
-59 -168 -118 -265 -199 -82 -69 -368 -356 -362 -362 3 -3 33 15 68 39 182
126 435 257 664 343 122 46 284 97 305 96 3 0 11 4 18 10 6 6 12 8 12 6 0 -3
26 1 58 9 31 7 68 16 82 19 74 15 191 34 230 39 25 3 56 7 70 10 122 24 616
23 755 -2 17 -3 41 -6 55 -8 81 -9 123 -16 129 -20 4 -2 28 -6 53 -9 54 -7
314 -72 343 -86 11 -6 29 -11 40 -13 11 -1 25 -5 30 -8 6 -4 35 -14 65 -24 30
-10 75 -27 100 -37 24 -11 49 -21 55 -23 32 -7 218 -97 342 -166 117 -65 314
-194 364 -239 19 -16 37 -30 40 -30 3 0 17 -9 30 -21 13 -11 46 -39 74 -62
113 -96 253 -234 351 -347 21 -25 44 -50 49 -56 6 -6 19 -23 30 -38 11 -16 26
-34 33 -42 27 -29 175 -241 215 -308 23 -39 44 -73 47 -76 10 -10 171 -339
185 -380 1 -3 7 -18 14 -35 7 -16 14 -37 17 -45 2 -8 17 -52 33 -97 17 -46 28
-83 25 -83 -4 0 -2 -6 4 -13 6 -7 15 -31 21 -52 39 -153 70 -285 74 -315 3
-19 6 -35 7 -35 1 0 3 -11 4 -25 2 -14 6 -41 9 -60 23 -137 30 -246 31 -470 1
-186 -9 -393 -19 -410 -1 -3 -6 -32 -10 -65 -3 -33 -11 -79 -16 -103 -5 -23
-11 -57 -13 -75 -4 -25 -43 -182 -80 -317 -32 -114 -109 -309 -189 -474 -53
-109 -167 -309 -179 -314 -4 -2 -8 -8 -8 -13 0 -7 -57 -96 -70 -109 -3 -3 -14
-18 -23 -33 -10 -16 -24 -36 -32 -45 -79 -97 -106 -134 -102 -138 3 -3 22 11
43 30 22 20 42 36 46 36 4 0 18 10 32 23 14 12 49 42 78 67 65 54 299 288 351
350 131 157 272 355 317 445 6 11 26 47 46 80 68 116 212 433 230 505 2 8 11
35 20 60 9 25 17 52 19 60 2 8 10 35 18 60 16 49 53 196 62 245 5 28 8 48 20
105 9 44 16 92 21 139 2 25 6 60 8 76 27 207 22 576 -10 778 -3 20 -7 47 -9
60 -8 61 -21 140 -29 165 -3 9 -8 29 -11 45 -3 15 -7 39 -10 55 -3 15 -10 41
-15 57 -5 17 -23 77 -40 135 -17 58 -34 112 -37 120 -3 8 -7 20 -9 25 -18 73
-199 462 -244 525 -11 16 -20 31 -20 35 0 3 -18 33 -40 65 -22 32 -40 63 -40
69 0 5 -3 11 -7 13 -5 2 -21 23 -38 48 -16 25 -32 47 -35 50 -3 3 -23 30 -45
60 -35 49 -95 122 -180 219 -32 36 -226 229 -247 246 -7 6 -45 38 -84 73 -39
34 -74 62 -78 62 -4 0 -19 11 -33 25 -15 13 -59 46 -97 72 -39 26 -73 50 -76
53 -3 3 -14 10 -25 17 -11 7 -60 36 -110 66 -125 76 -285 160 -285 150 0 -4
-4 -3 -8 3 -8 12 -277 128 -289 125 -4 -1 -31 9 -78 26 -22 8 -41 15 -42 14
-4 -1 -21 4 -63 17 -69 21 -189 51 -234 57 -15 2 -35 7 -45 9 -9 3 -32 8 -51
11 -19 3 -46 8 -60 10 -14 2 -45 7 -70 10 -25 2 -61 7 -80 10 -89 14 -534 28
-545 17z"/>
<path d="M3058 6605 c-2 -2 -43 -7 -92 -10 -48 -4 -98 -8 -110 -11 -11 -2 -41
-7 -66 -10 -36 -4 -160 -28 -260 -49 -67 -14 -195 -51 -295 -85 -66 -22 -124
-42 -130 -44 -56 -17 -275 -118 -389 -179 -95 -51 -361 -218 -376 -236 -3 -3
-36 -30 -75 -59 -101 -77 -196 -162 -315 -282 -119 -121 -126 -129 -235 -265
-112 -139 -295 -415 -295 -443 0 -6 -3 -12 -7 -14 -15 -6 -128 -246 -186 -393
-34 -88 -103 -300 -110 -340 -2 -11 -9 -40 -16 -65 -13 -45 -16 -57 -27 -120
-4 -19 -9 -44 -11 -55 -7 -32 -11 -57 -17 -110 -4 -27 -9 -61 -11 -75 -4 -24
-14 -111 -21 -195 -4 -50 -4 -354 0 -415 5 -84 18 -215 23 -235 2 -11 6 -31 8
-45 1 -14 5 -38 8 -55 10 -54 19 -115 18 -120 0 -2 6 -23 14 -45 8 -22 12 -40
10 -40 -2 0 8 -39 21 -87 31 -109 28 -99 43 -153 6 -25 16 -54 21 -65 5 -11
20 -51 34 -90 53 -151 166 -390 242 -510 14 -22 27 -48 31 -57 3 -10 9 -18 14
-18 5 0 9 -4 9 -9 0 -12 81 -135 92 -139 4 -2 8 -8 8 -13 0 -12 79 -115 174
-228 77 -91 240 -257 327 -333 118 -102 194 -163 232 -186 15 -9 27 -20 27
-24 0 -4 4 -8 10 -8 9 0 98 -57 110 -71 23 -25 351 -203 465 -251 22 -9 63
-27 90 -38 71 -31 343 -120 364 -120 10 0 21 -3 25 -7 3 -4 15 -8 24 -10 10
-1 57 -11 105 -23 48 -11 91 -20 95 -20 4 0 -27 17 -68 38 -41 20 -86 45 -100
55 -13 9 -32 17 -41 17 -10 0 -19 3 -21 8 -1 4 -46 33 -98 64 -91 54 -309 204
-321 220 -3 5 -21 19 -39 33 -90 67 -294 263 -400 384 -30 35 -61 69 -67 77
-7 7 -13 15 -13 18 0 3 -8 14 -17 24 -35 36 -63 72 -63 81 0 4 -9 16 -20 26
-11 10 -20 24 -20 31 0 7 -4 14 -8 16 -13 5 -102 141 -168 258 -64 112 -142
268 -176 353 -11 29 -25 63 -31 77 -5 14 -11 30 -13 35 -1 6 -16 48 -33 95
-36 101 -79 247 -91 310 -5 25 -14 68 -20 95 -22 104 -33 172 -45 290 -2 22
-7 69 -11 105 -10 86 -10 405 0 500 4 41 9 99 11 127 5 56 6 61 35 218 27 147
27 149 67 290 20 72 42 142 50 157 7 15 13 30 13 33 -1 19 16 67 62 175 6 14
14 34 19 45 18 46 142 294 170 340 16 28 33 57 36 65 4 8 12 20 17 26 6 7 29
42 51 78 22 36 43 66 48 66 4 0 7 6 7 14 0 8 3 16 8 18 4 2 34 39 67 83 117
156 279 329 429 460 31 28 67 59 80 70 12 11 35 29 50 40 15 11 40 30 54 43
37 31 301 208 332 222 14 6 52 26 85 45 82 47 243 126 285 140 18 6 68 27 85
36 12 5 27 11 35 13 8 2 24 7 35 11 56 23 111 43 118 43 4 0 38 10 75 21 74
22 149 43 171 47 7 1 34 7 60 13 52 12 92 20 136 26 17 3 41 7 55 10 38 8 175
24 265 31 66 5 395 5 465 0 74 -5 162 -15 235 -27 85 -13 96 -11 50 11 -51 24
-247 95 -305 111 -25 7 -51 17 -58 22 -7 5 -15 7 -18 4 -3 -3 -18 -1 -33 5
-24 10 -81 24 -126 32 -11 2 -38 8 -60 14 -22 6 -58 13 -79 17 -21 3 -48 7
-60 10 -26 6 -80 13 -148 21 -29 3 -69 8 -88 11 -41 6 -497 13 -502 8z"/>
<path d="M7805 4478 c13 -40 21 -391 10 -493 -2 -22 -7 -74 -10 -115 -6 -76
-12 -125 -21 -170 -3 -14 -7 -38 -9 -55 -17 -131 -114 -495 -162 -605 -3 -8
-7 -17 -8 -20 -6 -18 -19 -49 -30 -75 -8 -16 -23 -52 -35 -80 -39 -88 -105
-220 -112 -223 -5 -2 -8 -8 -8 -13 0 -24 -220 -367 -263 -411 -7 -7 -18 -20
-23 -29 -9 -17 -71 -91 -139 -169 -77 -87 -246 -250 -338 -326 -50 -42 -102
-84 -113 -94 -63 -53 -381 -260 -399 -260 -2 0 -27 -13 -55 -30 -27 -16 -50
-27 -50 -24 0 3 -13 -4 -29 -15 -16 -12 -32 -21 -36 -21 -3 0 -32 -12 -63 -27
-31 -15 -59 -27 -62 -28 -3 -1 -18 -7 -35 -14 -45 -20 -157 -62 -185 -71 -178
-57 -228 -72 -245 -75 -11 -1 -60 -12 -110 -24 -106 -24 -138 -31 -185 -36
-19 -3 -46 -7 -60 -10 -26 -5 -76 -12 -169 -21 -138 -15 -607 -7 -704 12 -12
2 -39 6 -62 9 -125 18 -279 51 -405 86 -19 5 -42 12 -50 14 -8 2 -16 4 -17 5
-2 2 -7 4 -13 5 -5 1 -11 3 -12 5 -2 1 -11 3 -20 5 -24 4 -91 27 -103 34 -5 3
-12 6 -15 6 -6 0 -64 23 -105 40 -16 8 -50 21 -75 31 -25 10 -60 26 -78 36
-18 10 -39 18 -47 18 -8 0 -15 4 -15 8 0 4 -14 13 -30 19 -17 6 -80 40 -141
75 -165 94 -174 99 -177 109 -2 5 -9 9 -16 9 -7 0 -21 8 -32 18 -10 9 -32 26
-49 36 -53 33 -165 121 -165 128 0 5 -5 8 -11 8 -6 0 -16 6 -24 13 -7 6 -44
39 -81 72 -78 68 -222 212 -303 302 -68 76 -257 329 -273 366 -7 15 -16 27
-20 27 -5 0 -8 7 -8 15 0 8 -4 15 -10 15 -5 0 -10 4 -10 9 0 5 -16 35 -36 67
-62 104 -166 319 -224 467 -23 59 -34 74 -25 35 2 -13 7 -43 9 -68 3 -25 7
-55 10 -66 5 -26 17 -90 21 -124 2 -14 6 -34 8 -46 22 -94 43 -172 65 -244 14
-47 26 -89 26 -95 1 -9 13 -43 36 -100 5 -11 16 -40 25 -65 9 -25 22 -56 28
-70 6 -14 11 -27 12 -30 7 -30 31 -80 37 -80 4 0 8 -6 8 -13 0 -12 42 -100 65
-137 5 -8 10 -22 12 -30 1 -8 7 -16 12 -18 6 -2 11 -8 11 -14 0 -16 189 -321
210 -338 3 -3 23 -30 45 -60 22 -30 47 -62 55 -70 9 -8 21 -22 26 -31 12 -22
118 -140 192 -215 117 -117 218 -208 317 -283 39 -29 78 -59 88 -67 59 -48
333 -220 392 -245 11 -5 27 -13 35 -19 15 -9 108 -53 220 -103 30 -13 73 -30
95 -37 22 -7 45 -16 50 -20 9 -6 198 -68 229 -75 6 -1 18 -5 26 -8 8 -3 29 -8
45 -12 17 -3 48 -10 70 -16 22 -5 50 -11 62 -13 11 -2 29 -7 40 -10 10 -3 32
-7 48 -10 17 -3 44 -7 60 -10 77 -13 94 -15 145 -21 30 -4 66 -8 80 -10 22 -4
328 -18 355 -17 108 4 248 12 271 16 16 2 61 8 99 12 70 8 82 10 100 14 6 1
13 2 17 1 3 0 59 11 123 24 280 60 494 130 743 246 46 22 88 39 93 39 5 0 9 5
9 10 0 6 4 10 9 10 7 0 80 39 183 98 46 26 121 75 128 82 3 4 22 16 43 29 21
13 43 28 50 34 6 7 30 25 52 42 22 16 45 33 50 37 95 72 196 162 313 282 121
123 120 121 196 216 38 47 73 86 78 88 4 2 8 8 8 12 0 8 92 142 126 183 7 9
14 19 14 22 0 2 25 45 55 95 65 107 110 192 107 203 -1 4 2 7 8 7 5 0 10 4 10
9 0 5 16 44 36 88 60 130 74 163 74 167 0 3 5 17 12 33 6 15 12 30 13 33 1 3
20 63 43 133 23 71 44 138 46 150 3 12 12 51 21 87 26 102 50 234 60 320 3 30
8 68 11 84 9 57 16 203 17 346 0 178 -8 309 -29 450 -3 19 -7 51 -10 70 -8 66
-12 85 -18 100 -3 8 -8 29 -10 45 -3 17 -7 41 -10 55 -3 14 -8 34 -10 45 -3
11 -9 35 -15 53 -5 18 -9 33 -9 35 4 9 -64 217 -73 222 -5 4 -7 0 -4 -7z"/>
</g>
</svg>
